<svg width="72" height="82" viewBox="0 0 72 82" fill="none" xmlns="http://www.w3.org/2000/svg">
<path fill-rule="evenodd" clip-rule="evenodd" d="M64.5126 63.1426C65.4769 61.3722 66 59.4743 66 57.5C66 47.835 53.464 40 38 40C22.536 40 10 47.835 10 57.5C10 67.165 22.536 75 38 75C45.0688 75 51.5258 73.3628 56.4533 70.6621L57.4165 71.5491C58.4321 72.4843 60.0137 72.4192 60.949 71.4035C61.0814 71.2597 61.1937 71.1046 61.2862 70.9416C62.2803 71.5316 63.5848 71.3679 64.3992 70.4834C64.8654 69.9772 65.083 69.3303 65.0583 68.693C65.4474 68.5641 65.8102 68.3376 66.1078 68.0149C67.0439 67 66.98 65.4184 65.9651 64.4823L64.5126 63.1426Z" fill="#171c4c" fill-opacity="0.4"/>
<path fill-rule="evenodd" clip-rule="evenodd" d="M35.0588 14.1426C33.931 12.8376 31.7148 9.98011 32.0298 8.00011C32.4498 5.36011 35.7298 4.78011 37.3998 7.17011C37.3998 7.17011 40.6798 5.30011 42.0998 9.05011C42.0998 9.05011 44.0012 8.02396 44.8088 12.4404C45.3496 12.3939 45.8969 12.3701 46.4498 12.3701C49.6945 12.3701 52.748 13.1891 55.4148 14.6316C59.2357 16.5043 62.1808 19.5197 63.5461 23.2426C64.684 25.6708 65.3198 28.3812 65.3198 31.2401C65.3198 31.9809 65.2771 32.7118 65.194 33.4304C65.4985 34.3346 65.7527 35.2654 65.9531 36.2205C67.3528 42.8914 65.8716 49.532 62.3239 54.9689L63.9649 56.4824C64.5031 56.9788 64.7738 57.6567 64.7699 58.3354C64.836 58.7368 64.7389 59.1612 64.4742 59.5009C64.3764 59.6831 64.2543 59.856 64.1076 60.015C63.81 60.3377 63.4472 60.5642 63.0581 60.6931C63.0828 61.3304 62.8652 61.9773 62.399 62.4835C61.5846 63.368 60.2801 63.5317 59.286 62.9417C59.1935 63.1047 59.0812 63.2598 58.9488 63.4036C58.0135 64.4193 56.4319 64.4844 55.4163 63.5492L54.5633 62.7637C51.6614 64.6895 48.3281 66.1169 44.6762 66.8832C30.0175 69.9589 15.7769 61.2175 12.869 47.3587C12.7494 46.7884 12.6508 46.2183 12.5727 45.6491C11.9454 43.759 11.2026 41.466 10.3598 38.7701C8.59395 33.1265 7.55775 31.3513 6.4355 29.4286C5.64475 28.0739 4.81128 26.646 3.64976 23.7401C2.74598 21.4887 2.49336 18.8922 4.89384 18.9036C5.51259 18.593 6.80839 18.987 8.51908 19.5072C9.00752 19.6557 9.52978 19.8145 10.0798 19.9701C10.0798 19.9701 10.0751 19.9123 10.0782 19.8202C10.0497 19.5546 10.1263 19.2393 10.3798 18.8701V18.8801C10.3651 18.9104 10.3518 18.9402 10.34 18.9694C10.5971 18.622 11.1021 18.3924 12.0898 18.7201C15.2851 19.7795 25.5458 20.6272 34.1542 15.8255C34.4289 15.6567 34.7088 15.4933 34.9938 15.3357C35.4815 15.0384 35.9627 14.7218 36.4359 14.385C36.1804 14.4982 35.933 14.6474 35.6998 14.8401H35.6898C35.6898 14.8401 35.4348 14.5776 35.0588 14.1426Z" fill="#171c4c"/>
<mask id="mask0_816_7711" style="mask-type:luminance" maskUnits="userSpaceOnUse" x="1" y="4" width="69" height="68">
<path d="M69.0039 4.66211H1.00391V71.6621H69.0039V4.66211Z" fill="white"/>
<path fill-rule="evenodd" clip-rule="evenodd" d="M35.0588 16.1426C33.931 14.8376 31.7148 11.9801 32.0298 10.0001C32.4498 7.36011 35.7298 6.78011 37.3998 9.17011C37.3998 9.17011 40.6798 7.30011 42.0998 11.0501C42.0998 11.0501 44.0012 10.024 44.8088 14.4404C45.3496 14.3939 45.8969 14.3701 46.4498 14.3701C49.6945 14.3701 52.748 15.1891 55.4148 16.6316C59.2357 18.5043 62.1808 21.5197 63.5461 25.2426C64.684 27.6708 65.3198 30.3812 65.3198 33.2401C65.3198 33.9809 65.2771 34.7118 65.194 35.4304C65.4985 36.3346 65.7527 37.2654 65.9531 38.2205C67.3528 44.8914 65.8716 51.532 62.3239 56.9689L63.9649 58.4824C64.5031 58.9788 64.7738 59.6567 64.7699 60.3354C64.836 60.7368 64.7389 61.1612 64.4742 61.5009C64.3764 61.6831 64.2543 61.856 64.1076 62.015C63.81 62.3377 63.4472 62.5642 63.0581 62.6931C63.0828 63.3304 62.8652 63.9773 62.399 64.4835C61.5846 65.368 60.2801 65.5317 59.286 64.9417C59.1935 65.1047 59.0812 65.2598 58.9488 65.4036C58.0135 66.4193 56.4319 66.4844 55.4163 65.5492L54.5633 64.7637C51.6614 66.6895 48.3281 68.1169 44.6762 68.8832C30.0175 71.9589 15.7769 63.2175 12.869 49.3587C12.7494 48.7884 12.6508 48.2183 12.5727 47.6491C11.9454 45.759 11.2026 43.466 10.3598 40.7701C8.59395 35.1265 7.55775 33.3513 6.4355 31.4286C5.64475 30.0739 4.81128 28.646 3.64976 25.7401C2.74598 23.4887 2.49336 20.8922 4.89384 20.9036C5.51259 20.593 6.80839 20.987 8.51908 21.5072C9.00752 21.6557 9.52978 21.8145 10.0798 21.9701C10.0798 21.9701 10.0751 21.9123 10.0782 21.8202C10.0497 21.5546 10.1263 21.2393 10.3798 20.8701V20.8801C10.3651 20.9104 10.3518 20.9402 10.34 20.9694C10.5971 20.622 11.1021 20.3924 12.0898 20.7201C15.2851 21.7795 25.5458 22.6272 34.1542 17.8255C34.4289 17.6567 34.7088 17.4933 34.9938 17.3357C35.4815 17.0384 35.9627 16.7218 36.4359 16.385C36.1804 16.4982 35.933 16.6474 35.6998 16.8401H35.6898C35.6898 16.8401 35.4348 16.5776 35.0588 16.1426Z" fill="#171c4c"/>
</mask>
<g mask="url(#mask0_816_7711)">
<path d="M37.3995 9.17049L35.76 10.316C36.3521 11.1633 37.4921 11.4199 38.39 10.9079L37.3995 9.17049ZM42.0995 11.0505L40.2291 11.7587C40.4333 12.298 40.8603 12.7229 41.4006 12.9244C41.9409 13.1259 42.5419 13.0844 43.0493 12.8105L42.0995 11.0505ZM44.8085 14.4408L42.8411 14.8006C43.0266 15.8149 43.9528 16.522 44.9801 16.4335L44.8085 14.4408ZM55.4145 16.632L54.4629 18.3911C54.4864 18.4038 54.5102 18.4161 54.5343 18.4279L55.4145 16.632ZM63.5458 25.243L61.6681 25.9316C61.688 25.9859 61.7103 26.0393 61.7348 26.0916L63.5458 25.243ZM65.1937 35.4308L63.2069 35.2011C63.1731 35.4936 63.2043 35.7899 63.2983 36.0689L65.1937 35.4308ZM62.3236 56.9693L60.6486 55.8763C60.1151 56.694 60.2499 57.7775 60.9676 58.4394L62.3236 56.9693ZM64.7696 60.3358L62.7696 60.3241C62.7689 60.4369 62.7778 60.5495 62.7961 60.6607L64.7696 60.3358ZM64.4739 61.5013L62.8963 60.2719C62.8268 60.3611 62.765 60.456 62.7115 60.5557L64.4739 61.5013ZM63.0578 62.6935L62.4291 60.7949C61.5832 61.0749 61.0247 61.8808 61.0593 62.7711L63.0578 62.6935ZM59.2857 64.9421L60.3063 63.2222C59.8443 62.948 59.2914 62.8712 58.7721 63.0092C58.2529 63.1471 57.811 63.4882 57.5459 63.9555L59.2857 64.9421ZM54.563 64.7641L55.9178 63.2929C55.2403 62.669 54.2244 62.5885 53.4571 63.0977L54.563 64.7641ZM12.5724 47.6495L14.5538 47.3778C14.5372 47.2561 14.5093 47.1362 14.4706 47.0196L12.5724 47.6495ZM3.64954 25.7405L5.50667 24.9982L5.50557 24.9954L3.64954 25.7405ZM4.89362 20.904L4.88411 22.904C5.1989 22.9055 5.50959 22.8327 5.79092 22.6915L4.89362 20.904ZM10.0795 21.9705L9.53502 23.8949C10.1655 24.0733 10.8434 23.9316 11.3496 23.5155C11.8557 23.0994 12.126 22.4617 12.0729 21.8086L10.0795 21.9705ZM10.0779 21.8206L12.0768 21.8883C12.08 21.7942 12.0765 21.7001 12.0665 21.6066L10.0779 21.8206ZM10.3795 20.8705H12.3795C12.3795 19.9942 11.8091 19.22 10.9722 18.9603C10.1353 18.7006 9.22683 19.016 8.73081 19.7384L10.3795 20.8705ZM10.3795 20.8805L12.1785 21.7543C12.3108 21.482 12.3795 21.1832 12.3795 20.8805H10.3795ZM10.3397 20.9698L8.48542 20.2205C8.10812 21.1542 8.48386 22.2228 9.3625 22.7148C10.2411 23.2069 11.3486 22.9689 11.9475 22.1594L10.3397 20.9698ZM34.1539 17.8259L35.1282 19.5726C35.1528 19.5588 35.1772 19.5445 35.2013 19.5298L34.1539 17.8259ZM34.9935 17.3361L35.9615 19.0863C35.9862 19.0726 36.0106 19.0584 36.0348 19.0437L34.9935 17.3361ZM36.4356 16.3854L37.5954 18.0148C38.4318 17.4195 38.6816 16.2876 38.1735 15.3955C37.6653 14.5034 36.5643 14.141 35.6256 14.5568L36.4356 16.3854ZM35.6995 16.8405V18.8405C36.1644 18.8405 36.6148 18.6785 36.9732 18.3824L35.6995 16.8405ZM35.6895 16.8405L34.2549 18.2341C34.6315 18.6217 35.149 18.8405 35.6895 18.8405V16.8405ZM30.0543 9.68626C29.7788 11.4183 30.5946 13.1645 31.275 14.3319C32.0199 15.61 32.9458 16.757 33.5453 17.4507L36.5717 14.8352C36.0435 14.224 35.2973 13.2897 34.7309 12.3178C34.1 11.2352 33.9652 10.5627 34.0046 10.3147L30.0543 9.68626ZM39.0389 8.02494C37.7878 6.23444 35.8045 5.41875 33.924 5.72529C32.0158 6.03633 30.4037 7.49007 30.0543 9.68626L34.0046 10.3147C34.0459 10.0554 34.1411 9.91827 34.2172 9.84307C34.2996 9.76155 34.4159 9.6979 34.5675 9.67318C34.8494 9.62723 35.3412 9.71653 35.76 10.316L39.0389 8.02494ZM43.9699 10.3422C43.5033 9.10998 42.8123 8.16047 41.9064 7.53169C40.9998 6.90238 40.0375 6.70526 39.2195 6.70424C38.4209 6.70324 37.7317 6.88693 37.2667 7.05156C37.0279 7.1361 36.8308 7.22184 36.6868 7.29007C36.6144 7.32438 36.5543 7.3548 36.5078 7.3792C36.4845 7.39142 36.4645 7.40218 36.448 7.41122C36.4397 7.41574 36.4323 7.41984 36.4258 7.42349C36.4226 7.42531 36.4195 7.42702 36.4167 7.42861C36.4153 7.4294 36.4139 7.43017 36.4126 7.4309C36.412 7.43127 36.4111 7.4318 36.4107 7.43199C36.4098 7.43251 36.4089 7.43302 37.3995 9.17049C38.39 10.9079 38.3892 10.9084 38.3883 10.9089C38.388 10.9091 38.3872 10.9096 38.3866 10.9099C38.3855 10.9105 38.3845 10.9111 38.3835 10.9117C38.3814 10.9128 38.3796 10.9139 38.3779 10.9148C38.3746 10.9167 38.3719 10.9181 38.3699 10.9192C38.3659 10.9214 38.3645 10.9222 38.3656 10.9216C38.3678 10.9204 38.3795 10.9143 38.3995 10.9048C38.4405 10.8855 38.5107 10.8544 38.6016 10.8222C38.796 10.7534 39.0155 10.704 39.2145 10.7042C39.394 10.7045 39.5179 10.743 39.6256 10.8177C39.7341 10.893 39.9857 11.116 40.2291 11.7587L43.9699 10.3422ZM46.7759 14.0811C46.3397 11.6959 45.4937 10.0431 44.0637 9.30983C43.3418 8.9396 42.6474 8.90503 42.1271 8.97915C41.8733 9.01532 41.6611 9.07673 41.5007 9.13491C41.4198 9.16426 41.3498 9.19363 41.2915 9.22017C41.2623 9.23348 41.2359 9.24618 41.2122 9.25796C41.2004 9.26386 41.1893 9.26954 41.1789 9.27496C41.1736 9.27767 41.1686 9.28032 41.1637 9.2829C41.1613 9.28419 41.1589 9.28547 41.1565 9.28672C41.1554 9.28735 41.1536 9.28828 41.153 9.28859C41.1513 9.28952 41.1496 9.29044 42.0995 11.0505C43.0493 12.8105 43.0476 12.8114 43.046 12.8124C43.0454 12.8127 43.0437 12.8136 43.0426 12.8142C43.0404 12.8154 43.0381 12.8165 43.0359 12.8177C43.0315 12.82 43.0272 12.8223 43.0229 12.8246C43.0143 12.829 43.0059 12.8333 42.9977 12.8374C42.9813 12.8456 42.9656 12.853 42.9505 12.8599C42.9206 12.8736 42.8921 12.8852 42.8648 12.8951C42.8116 12.9144 42.7542 12.9302 42.6913 12.9392C42.5527 12.9589 42.3842 12.9438 42.2385 12.8691C41.9611 12.7269 42.4696 12.7692 42.8411 14.8006L46.7759 14.0811ZM46.4495 12.3705C45.8392 12.3705 45.2346 12.3967 44.6368 12.4482L44.9801 16.4335C45.4639 16.3918 45.954 16.3705 46.4495 16.3705V12.3705ZM56.366 14.8728C53.4143 13.2762 50.0346 12.3705 46.4495 12.3705V16.3705C49.3538 16.3705 52.0811 17.1027 54.4629 18.3911L56.366 14.8728ZM65.4235 24.5543C63.8542 20.2751 60.5039 16.8991 56.2947 14.8361L54.5343 18.4279C57.9669 20.1103 60.5069 22.7652 61.6681 25.9316L65.4235 24.5543ZM67.3195 33.2405C67.3195 30.0823 66.6166 27.0827 65.3569 24.3943L61.7348 26.0916C62.7508 28.2598 63.3195 30.6809 63.3195 33.2405H67.3195ZM67.1805 35.6604C67.2723 34.8658 67.3195 34.0582 67.3195 33.2405H63.3195C63.3195 33.9044 63.2812 34.5586 63.2069 35.2011L67.1805 35.6604ZM67.9102 37.8102C67.6936 36.7779 67.4187 35.7712 67.0892 34.7926L63.2983 36.0689C63.5777 36.8989 63.8112 37.7537 63.9954 38.6316L67.9102 37.8102ZM63.9985 58.0622C67.8152 52.2132 69.4263 45.0359 67.9102 37.8102L63.9954 38.6316C65.2787 44.7476 63.9274 50.8516 60.6486 55.8763L63.9985 58.0622ZM65.3205 57.0126L63.6795 55.4991L60.9676 58.4394L62.6086 59.9529L65.3205 57.0126ZM66.7695 60.3474C66.7766 59.1299 66.2893 57.9062 65.3205 57.0126L62.6086 59.9529C62.7162 60.0522 62.7704 60.1843 62.7696 60.3241L66.7695 60.3474ZM66.0514 62.7306C66.6719 61.9344 66.8964 60.942 66.743 60.0108L62.7961 60.6607C62.775 60.5323 62.8053 60.3888 62.8963 60.2719L66.0514 62.7306ZM65.5774 63.3714C65.8394 63.0874 66.0594 62.7764 66.2362 62.4469L62.7115 60.5557C62.6928 60.5906 62.6686 60.6254 62.6371 60.6595L65.5774 63.3714ZM63.6864 64.5921C64.3893 64.3594 65.044 63.9497 65.5774 63.3714L62.6371 60.6595C62.5753 60.7265 62.5045 60.7699 62.4291 60.7949L63.6864 64.5921ZM63.8699 65.8387C64.7087 64.9279 65.1007 63.76 65.0562 62.6159L61.0593 62.7711C61.0643 62.9016 61.0211 63.0275 60.9274 63.1292L63.8699 65.8387ZM58.265 66.662C60.055 67.7243 62.4024 67.4325 63.8699 65.8387L60.9274 63.1292C60.7662 63.3043 60.5046 63.3398 60.3063 63.2222L58.265 66.662ZM60.4197 66.7588C60.656 66.5021 60.8583 66.2233 61.0254 65.9287L57.5459 63.9555C57.5281 63.9869 57.5057 64.0183 57.4772 64.0492L60.4197 66.7588ZM54.0612 67.0208C55.8894 68.7043 58.7362 68.587 60.4197 66.7588L57.4772 64.0492C57.2901 64.2523 56.9739 64.2654 56.7707 64.0783L54.0612 67.0208ZM53.2082 66.2354L54.0612 67.0208L56.7707 64.0783L55.9178 63.2929L53.2082 66.2354ZM45.0866 70.8409C48.989 70.0221 52.5579 68.4952 55.6689 66.4305L53.4571 63.0977C50.7644 64.8847 47.6667 66.2125 44.2652 66.9262L45.0866 70.8409ZM10.9113 49.7698C14.0675 64.8117 29.4518 74.1215 45.0866 70.8409L44.2652 66.9262C30.5826 69.7971 17.4857 61.6241 14.8261 48.9484L10.9113 49.7698ZM10.5909 47.9213C10.6754 48.537 10.782 49.1534 10.9113 49.7698L14.8261 48.9484C14.7161 48.4241 14.6255 47.9004 14.5538 47.3778L10.5909 47.9213ZM8.45065 41.3673C9.29697 44.0743 10.0433 46.3784 10.6742 48.2795L14.4706 47.0196C13.847 45.1404 13.1077 42.8585 12.2684 40.1737L8.45065 41.3673ZM4.70799 32.4372C5.7599 34.2394 6.73278 35.877 8.45065 41.3673L12.2684 40.1737C10.4546 34.3769 9.35516 32.464 8.16256 30.4208L4.70799 32.4372ZM1.7924 26.4828C3.00489 29.5162 3.89164 31.0386 4.70799 32.4372L8.16256 30.4208C7.39742 29.11 6.61723 27.7765 5.50667 24.9982L1.7924 26.4828ZM4.90313 18.9041C3.93716 18.8995 2.96559 19.1639 2.20211 19.8694C1.45655 20.5583 1.15203 21.4447 1.05004 22.2093C0.857077 23.6559 1.30119 25.2592 1.7935 26.4856L5.50557 24.9954C5.31474 24.5201 5.16968 24.0535 5.08536 23.6368C4.99839 23.207 4.99216 22.9088 5.01492 22.7382C5.03687 22.5736 5.06279 22.6723 4.91676 22.8072C4.7528 22.9587 4.64984 22.9029 4.88411 22.904L4.90313 18.9041ZM9.10067 19.5941C8.27831 19.344 7.42344 19.082 6.69409 18.9341C6.32285 18.8589 5.90863 18.7966 5.4923 18.7942C5.08835 18.7918 4.54009 18.8437 3.99632 19.1166L5.79092 22.6915C5.55652 22.8091 5.40227 22.7937 5.46876 22.7941C5.52288 22.7944 5.65555 22.805 5.89943 22.8544C6.40034 22.9559 7.04872 23.151 7.93705 23.4211L9.10067 19.5941ZM10.624 20.046C10.0955 19.8965 9.59125 19.7432 9.10067 19.5941L7.93705 23.4211C8.42334 23.5689 8.96355 23.7332 9.53502 23.8949L10.624 20.046ZM8.07911 21.7529C8.07594 21.8466 8.07658 21.927 8.07849 21.9904C8.07945 22.0222 8.08075 22.0502 8.0821 22.0739C8.08278 22.0858 8.08347 22.0967 8.08415 22.1064C8.08449 22.1113 8.08482 22.1159 8.08515 22.1202C8.08531 22.1224 8.08547 22.1245 8.08563 22.1265C8.08571 22.1275 8.08579 22.1285 8.08587 22.1295C8.08591 22.13 8.08595 22.1305 8.08598 22.131C8.08596 22.1308 8.086 22.1312 8.08598 22.131C8.08599 22.1311 8.08607 22.132 8.08607 22.132C8.08609 22.1322 8.08609 22.1324 10.0795 21.9705C12.0729 21.8086 12.0729 21.8085 12.0729 21.8086C12.0729 21.8085 12.0729 21.8087 12.0729 21.8086C12.0729 21.8088 12.073 21.8098 12.0731 21.81C12.0731 21.8105 12.0731 21.8109 12.0732 21.8114C12.0732 21.8123 12.0733 21.8132 12.0734 21.8141C12.0735 21.8159 12.0737 21.8177 12.0738 21.8194C12.0741 21.8229 12.0743 21.8261 12.0745 21.8293C12.0749 21.8355 12.0753 21.8411 12.0756 21.8461C12.0761 21.8561 12.0765 21.8639 12.0766 21.8698C12.077 21.8812 12.0768 21.8868 12.0768 21.8883L8.07911 21.7529ZM8.73081 19.7384C8.28039 20.3943 7.9974 21.1793 8.08945 22.0346L12.0665 21.6066C12.0824 21.7545 12.0632 21.8767 12.0392 21.9571C12.0169 22.0318 11.9975 22.0473 12.0282 22.0026L8.73081 19.7384ZM12.3795 20.8805V20.8705H8.37954V20.8805H12.3795ZM12.194 21.7192C12.188 21.734 12.1827 21.7458 12.1785 21.7543L8.58052 20.0067C8.54693 20.0758 8.51508 20.1471 8.48542 20.2205L12.194 21.7192ZM12.7193 18.8222C12.0152 18.5886 11.2651 18.4784 10.5251 18.6356C9.73358 18.8037 9.1309 19.241 8.73194 19.7803L11.9475 22.1594C11.8866 22.2417 11.7997 22.3313 11.6841 22.4076C11.5667 22.485 11.4507 22.5282 11.3562 22.5483C11.1798 22.5858 11.1761 22.5246 11.4597 22.6187L12.7193 18.8222ZM33.1797 16.0793C29.205 18.2963 24.7989 19.2324 20.9654 19.4751C17.0945 19.7202 14.0033 19.2479 12.7193 18.8222L11.4597 22.6187C13.371 23.2524 17.0078 23.7337 21.2182 23.4671C25.4659 23.1981 30.4944 22.1572 35.1282 19.5726L33.1797 16.0793ZM34.0256 15.5859C33.7138 15.7584 33.4074 15.9371 33.1066 16.1221L35.2013 19.5298C35.4497 19.377 35.7032 19.2291 35.9615 19.0863L34.0256 15.5859ZM35.2759 14.756C34.8423 15.0646 34.4006 15.3552 33.9523 15.6285L36.0348 19.0437C36.5617 18.7224 37.0826 18.3798 37.5954 18.0148L35.2759 14.756ZM36.9732 18.3824C37.06 18.3107 37.1502 18.2563 37.2456 18.214L35.6256 14.5568C35.2101 14.7408 34.8054 14.9849 34.4257 15.2986L36.9732 18.3824ZM35.6895 18.8405H35.6995V14.8405H35.6895V18.8405ZM33.5453 17.4507C33.7493 17.6867 33.9217 17.8774 34.0452 18.0112C34.107 18.0783 34.1569 18.1313 34.1925 18.1688C34.2103 18.1876 34.2246 18.2026 34.2351 18.2135C34.2403 18.2189 34.2446 18.2234 34.2479 18.2268C34.2496 18.2286 34.251 18.23 34.2522 18.2312C34.2527 18.2318 34.2533 18.2324 34.2537 18.2328C34.254 18.2331 34.2547 18.2339 34.2549 18.2341C34.2549 18.234 34.255 18.2342 34.2549 18.2341C34.2549 18.2342 34.2549 18.2341 35.6895 16.8405C37.124 15.4469 37.1241 15.447 37.1242 15.447C37.1243 15.4471 37.1247 15.4477 37.1249 15.4478C37.1243 15.4472 37.123 15.4458 37.1205 15.4432C37.1156 15.4381 37.107 15.4292 37.095 15.4165C37.0711 15.3913 37.0337 15.3515 36.9848 15.2985C36.8868 15.1924 36.7438 15.0343 36.5717 14.8352L33.5453 17.4507Z" fill="#171c4c"/>
</g>
<mask id="mask1_816_7711" style="mask-type:luminance" maskUnits="userSpaceOnUse" x="1" y="2" width="69" height="68">
<path d="M69.0039 2.66211H1.00391V69.6621H69.0039V2.66211Z" fill="white"/>
<path fill-rule="evenodd" clip-rule="evenodd" d="M35.0588 14.1426C33.931 12.8376 31.7148 9.98011 32.0298 8.00011C32.4498 5.36011 35.7298 4.78011 37.3998 7.17011C37.3998 7.17011 40.6798 5.30011 42.0998 9.05011C42.0998 9.05011 44.0012 8.02396 44.8088 12.4404C45.3496 12.3939 45.8969 12.3701 46.4498 12.3701C49.6945 12.3701 52.748 13.1891 55.4148 14.6316C59.2357 16.5043 62.1808 19.5197 63.5461 23.2426C64.684 25.6708 65.3198 28.3812 65.3198 31.2401C65.3198 31.9809 65.2771 32.7118 65.194 33.4304C65.4985 34.3346 65.7527 35.2654 65.9531 36.2205C67.3528 42.8914 65.8716 49.532 62.3239 54.9689L63.9649 56.4824C64.5031 56.9788 64.7738 57.6567 64.7699 58.3354C64.836 58.7368 64.7389 59.1612 64.4742 59.5009C64.3764 59.6831 64.2543 59.856 64.1076 60.015C63.81 60.3377 63.4472 60.5642 63.0581 60.6931C63.0828 61.3304 62.8652 61.9773 62.399 62.4835C61.5846 63.368 60.2801 63.5317 59.286 62.9417C59.1935 63.1047 59.0812 63.2598 58.9488 63.4036C58.0135 64.4193 56.4319 64.4844 55.4163 63.5492L54.5633 62.7637C51.6614 64.6895 48.3281 66.1169 44.6762 66.8832C30.0175 69.9589 15.7769 61.2175 12.869 47.3587C12.7494 46.7884 12.6508 46.2183 12.5727 45.6491C11.9454 43.759 11.2026 41.466 10.3598 38.7701C8.59395 33.1265 7.55775 31.3513 6.4355 29.4286C5.64475 28.0739 4.81128 26.646 3.64976 23.7401C2.74598 21.4887 2.49336 18.8922 4.89384 18.9036C5.51259 18.593 6.80839 18.987 8.51908 19.5072C9.00752 19.6557 9.52978 19.8145 10.0798 19.9701C10.0798 19.9701 10.0751 19.9123 10.0782 19.8202C10.0497 19.5546 10.1263 19.2393 10.3798 18.8701V18.8801C10.3651 18.9104 10.3518 18.9402 10.34 18.9694C10.5971 18.622 11.1021 18.3924 12.0898 18.7201C15.2851 19.7795 25.5458 20.6272 34.1542 15.8255C34.4289 15.6567 34.7088 15.4933 34.9938 15.3357C35.4815 15.0384 35.9627 14.7218 36.4359 14.385C36.1804 14.4982 35.933 14.6474 35.6998 14.8401H35.6898C35.6898 14.8401 35.4348 14.5776 35.0588 14.1426Z" fill="#171c4c"/>
</mask>
<g mask="url(#mask1_816_7711)">
<path d="M37.3995 7.17049L35.76 8.31603C36.3521 9.16328 37.4921 9.41987 38.39 8.90795L37.3995 7.17049ZM42.0995 9.05049L40.2291 9.75874C40.4333 10.298 40.8603 10.7229 41.4006 10.9244C41.9409 11.1259 42.5419 11.0844 43.0493 10.8105L42.0995 9.05049ZM44.8085 12.4408L42.8411 12.8006C43.0266 13.8149 43.9528 14.522 44.9801 14.4335L44.8085 12.4408ZM55.4145 14.632L54.4629 16.3911C54.4864 16.4038 54.5102 16.4161 54.5343 16.4279L55.4145 14.632ZM63.5458 23.243L61.6681 23.9316C61.688 23.9859 61.7103 24.0393 61.7348 24.0916L63.5458 23.243ZM65.1937 33.4308L63.2069 33.2011C63.1731 33.4936 63.2043 33.7899 63.2983 34.0689L65.1937 33.4308ZM62.3236 54.9693L60.6486 53.8763C60.1151 54.694 60.2499 55.7775 60.9676 56.4394L62.3236 54.9693ZM64.7696 58.3358L62.7696 58.3241C62.7689 58.4369 62.7778 58.5495 62.7961 58.6607L64.7696 58.3358ZM64.4739 59.5013L62.8963 58.2719C62.8268 58.3611 62.765 58.456 62.7115 58.5557L64.4739 59.5013ZM63.0578 60.6935L62.4291 58.7949C61.5832 59.0749 61.0247 59.8808 61.0593 60.7711L63.0578 60.6935ZM59.2857 62.9421L60.3063 61.2222C59.8443 60.948 59.2914 60.8712 58.7721 61.0092C58.2529 61.1471 57.811 61.4882 57.5459 61.9555L59.2857 62.9421ZM54.563 62.7641L55.9178 61.2929C55.2403 60.669 54.2244 60.5885 53.4571 61.0977L54.563 62.7641ZM12.5724 45.6495L14.5538 45.3778C14.5372 45.2561 14.5093 45.1362 14.4706 45.0196L12.5724 45.6495ZM3.64954 23.7405L5.50667 22.9982L5.50557 22.9954L3.64954 23.7405ZM4.89362 18.904L4.88411 20.904C5.1989 20.9055 5.50959 20.8327 5.79092 20.6915L4.89362 18.904ZM10.0795 19.9705L9.53502 21.8949C10.1655 22.0733 10.8434 21.9316 11.3496 21.5155C11.8557 21.0994 12.126 20.4617 12.0729 19.8086L10.0795 19.9705ZM10.0779 19.8206L12.0768 19.8883C12.08 19.7942 12.0765 19.7001 12.0665 19.6066L10.0779 19.8206ZM10.3795 18.8705H12.3795C12.3795 17.9942 11.8091 17.22 10.9722 16.9603C10.1353 16.7006 9.22683 17.016 8.73081 17.7384L10.3795 18.8705ZM10.3795 18.8805L12.1785 19.7543C12.3108 19.482 12.3795 19.1832 12.3795 18.8805H10.3795ZM10.3397 18.9698L8.48542 18.2205C8.10812 19.1542 8.48386 20.2228 9.3625 20.7148C10.2411 21.2069 11.3486 20.9689 11.9475 20.1594L10.3397 18.9698ZM34.1539 15.8259L35.1282 17.5726C35.1528 17.5588 35.1772 17.5445 35.2013 17.5298L34.1539 15.8259ZM34.9935 15.3361L35.9615 17.0863C35.9862 17.0726 36.0106 17.0584 36.0348 17.0437L34.9935 15.3361ZM36.4356 14.3854L37.5954 16.0148C38.4318 15.4195 38.6816 14.2876 38.1735 13.3955C37.6653 12.5034 36.5643 12.141 35.6256 12.5568L36.4356 14.3854ZM35.6995 14.8405V16.8405C36.1644 16.8405 36.6148 16.6785 36.9732 16.3824L35.6995 14.8405ZM35.6895 14.8405L34.2549 16.2341C34.6315 16.6217 35.149 16.8405 35.6895 16.8405V14.8405ZM30.0543 7.68626C29.7788 9.4183 30.5946 11.1645 31.275 12.3319C32.0199 13.61 32.9458 14.757 33.5453 15.4507L36.5717 12.8352C36.0435 12.224 35.2973 11.2897 34.7309 10.3178C34.1 9.2352 33.9652 8.56267 34.0046 8.31472L30.0543 7.68626ZM39.0389 6.02494C37.7878 4.23444 35.8045 3.41875 33.924 3.72529C32.0158 4.03633 30.4037 5.49007 30.0543 7.68626L34.0046 8.31472C34.0459 8.05542 34.1411 7.91827 34.2172 7.84307C34.2996 7.76155 34.4159 7.6979 34.5675 7.67318C34.8494 7.62723 35.3412 7.71653 35.76 8.31603L39.0389 6.02494ZM43.9699 8.34223C43.5033 7.10998 42.8123 6.16047 41.9064 5.53169C40.9998 4.90238 40.0375 4.70526 39.2195 4.70424C38.4209 4.70324 37.7317 4.88693 37.2667 5.05156C37.0279 5.1361 36.8308 5.22184 36.6868 5.29007C36.6144 5.32438 36.5543 5.3548 36.5078 5.3792C36.4845 5.39142 36.4645 5.40218 36.448 5.41122C36.4397 5.41574 36.4323 5.41984 36.4258 5.42349C36.4226 5.42531 36.4195 5.42702 36.4167 5.42861C36.4153 5.4294 36.4139 5.43017 36.4126 5.4309C36.412 5.43127 36.4111 5.4318 36.4107 5.43199C36.4098 5.43251 36.4089 5.43302 37.3995 7.17049C38.39 8.90795 38.3892 8.90845 38.3883 8.90894C38.388 8.9091 38.3872 8.90959 38.3866 8.9099C38.3855 8.91052 38.3845 8.91112 38.3835 8.91169C38.3814 8.91283 38.3796 8.91387 38.3779 8.91481C38.3746 8.91668 38.3719 8.91815 38.3699 8.91925C38.3659 8.92145 38.3645 8.92217 38.3656 8.9216C38.3678 8.92044 38.3795 8.91435 38.3995 8.90485C38.4405 8.88546 38.5107 8.85441 38.6016 8.82223C38.796 8.75342 39.0155 8.70399 39.2145 8.70423C39.394 8.70446 39.5179 8.74297 39.6256 8.81772C39.7341 8.89301 39.9857 9.11599 40.2291 9.75874L43.9699 8.34223ZM46.7759 12.0811C46.3397 9.69595 45.4937 8.04311 44.0637 7.30983C43.3418 6.9396 42.6474 6.90503 42.1271 6.97915C41.8733 7.01532 41.6611 7.07673 41.5007 7.13491C41.4198 7.16426 41.3498 7.19363 41.2915 7.22017C41.2623 7.23348 41.2359 7.24618 41.2122 7.25796C41.2004 7.26386 41.1893 7.26954 41.1789 7.27496C41.1736 7.27767 41.1686 7.28032 41.1637 7.2829C41.1613 7.28419 41.1589 7.28547 41.1565 7.28672C41.1554 7.28735 41.1536 7.28828 41.153 7.28859C41.1513 7.28952 41.1496 7.29044 42.0995 9.05049C43.0493 10.8105 43.0476 10.8114 43.046 10.8124C43.0454 10.8127 43.0437 10.8136 43.0426 10.8142C43.0404 10.8154 43.0381 10.8165 43.0359 10.8177C43.0315 10.82 43.0272 10.8223 43.0229 10.8246C43.0143 10.829 43.0059 10.8333 42.9977 10.8374C42.9813 10.8456 42.9656 10.853 42.9505 10.8599C42.9206 10.8736 42.8921 10.8852 42.8648 10.8951C42.8116 10.9144 42.7542 10.9302 42.6913 10.9392C42.5527 10.9589 42.3842 10.9438 42.2385 10.8691C41.9611 10.7269 42.4696 10.7692 42.8411 12.8006L46.7759 12.0811ZM46.4495 10.3705C45.8392 10.3705 45.2346 10.3967 44.6368 10.4482L44.9801 14.4335C45.4639 14.3918 45.954 14.3705 46.4495 14.3705V10.3705ZM56.366 12.8728C53.4143 11.2762 50.0346 10.3705 46.4495 10.3705V14.3705C49.3538 14.3705 52.0811 15.1027 54.4629 16.3911L56.366 12.8728ZM65.4235 22.5543C63.8542 18.2751 60.5039 14.8991 56.2947 12.8361L54.5343 16.4279C57.9669 18.1103 60.5069 20.7652 61.6681 23.9316L65.4235 22.5543ZM67.3195 31.2405C67.3195 28.0823 66.6166 25.0827 65.3569 22.3943L61.7348 24.0916C62.7508 26.2598 63.3195 28.6809 63.3195 31.2405H67.3195ZM67.1805 33.6604C67.2723 32.8658 67.3195 32.0582 67.3195 31.2405H63.3195C63.3195 31.9044 63.2812 32.5586 63.2069 33.2011L67.1805 33.6604ZM67.9102 35.8102C67.6936 34.7779 67.4187 33.7712 67.0892 32.7926L63.2983 34.0689C63.5777 34.8989 63.8112 35.7537 63.9954 36.6316L67.9102 35.8102ZM63.9985 56.0622C67.8152 50.2132 69.4263 43.0359 67.9102 35.8102L63.9954 36.6316C65.2787 42.7476 63.9274 48.8516 60.6486 53.8763L63.9985 56.0622ZM65.3205 55.0126L63.6795 53.4991L60.9676 56.4394L62.6086 57.9529L65.3205 55.0126ZM66.7695 58.3474C66.7766 57.1299 66.2893 55.9062 65.3205 55.0126L62.6086 57.9529C62.7162 58.0522 62.7704 58.1843 62.7696 58.3241L66.7695 58.3474ZM66.0514 60.7306C66.6719 59.9344 66.8964 58.942 66.743 58.0108L62.7961 58.6607C62.775 58.5323 62.8053 58.3888 62.8963 58.2719L66.0514 60.7306ZM65.5774 61.3714C65.8394 61.0874 66.0594 60.7764 66.2362 60.4469L62.7115 58.5557C62.6928 58.5906 62.6686 58.6254 62.6371 58.6595L65.5774 61.3714ZM63.6864 62.5921C64.3893 62.3594 65.044 61.9497 65.5774 61.3714L62.6371 58.6595C62.5753 58.7265 62.5045 58.7699 62.4291 58.7949L63.6864 62.5921ZM63.8699 63.8387C64.7087 62.9279 65.1007 61.76 65.0562 60.6159L61.0593 60.7711C61.0643 60.9016 61.0211 61.0275 60.9274 61.1292L63.8699 63.8387ZM58.265 64.662C60.055 65.7243 62.4024 65.4325 63.8699 63.8387L60.9274 61.1292C60.7662 61.3043 60.5046 61.3398 60.3063 61.2222L58.265 64.662ZM60.4197 64.7588C60.656 64.5021 60.8583 64.2233 61.0254 63.9287L57.5459 61.9555C57.5281 61.9869 57.5057 62.0183 57.4772 62.0492L60.4197 64.7588ZM54.0612 65.0208C55.8894 66.7043 58.7362 66.587 60.4197 64.7588L57.4772 62.0492C57.2901 62.2523 56.9739 62.2654 56.7707 62.0783L54.0612 65.0208ZM53.2082 64.2354L54.0612 65.0208L56.7707 62.0783L55.9178 61.2929L53.2082 64.2354ZM45.0866 68.8409C48.989 68.0221 52.5579 66.4952 55.6689 64.4305L53.4571 61.0977C50.7644 62.8847 47.6667 64.2125 44.2652 64.9262L45.0866 68.8409ZM10.9113 47.7698C14.0675 62.8117 29.4518 72.1215 45.0866 68.8409L44.2652 64.9262C30.5826 67.7971 17.4857 59.6241 14.8261 46.9484L10.9113 47.7698ZM10.5909 45.9213C10.6754 46.537 10.782 47.1534 10.9113 47.7698L14.8261 46.9484C14.7161 46.4241 14.6255 45.9004 14.5538 45.3778L10.5909 45.9213ZM8.45065 39.3673C9.29697 42.0743 10.0433 44.3784 10.6742 46.2795L14.4706 45.0196C13.847 43.1404 13.1077 40.8585 12.2684 38.1737L8.45065 39.3673ZM4.70799 30.4372C5.7599 32.2394 6.73278 33.877 8.45065 39.3673L12.2684 38.1737C10.4546 32.3769 9.35516 30.464 8.16256 28.4208L4.70799 30.4372ZM1.7924 24.4828C3.00489 27.5162 3.89164 29.0386 4.70799 30.4372L8.16256 28.4208C7.39742 27.11 6.61723 25.7765 5.50667 22.9982L1.7924 24.4828ZM4.90313 16.9041C3.93716 16.8995 2.96559 17.1639 2.20211 17.8694C1.45655 18.5583 1.15203 19.4447 1.05004 20.2093C0.857077 21.6559 1.30119 23.2592 1.7935 24.4856L5.50557 22.9954C5.31474 22.5201 5.16968 22.0535 5.08536 21.6368C4.99839 21.207 4.99216 20.9088 5.01492 20.7382C5.03687 20.5736 5.06279 20.6723 4.91676 20.8072C4.7528 20.9587 4.64984 20.9029 4.88411 20.904L4.90313 16.9041ZM9.10067 17.5941C8.27831 17.344 7.42344 17.082 6.69409 16.9341C6.32285 16.8589 5.90863 16.7966 5.4923 16.7942C5.08835 16.7918 4.54009 16.8437 3.99632 17.1166L5.79092 20.6915C5.55652 20.8091 5.40227 20.7937 5.46876 20.7941C5.52288 20.7944 5.65555 20.805 5.89943 20.8544C6.40034 20.9559 7.04872 21.151 7.93705 21.4211L9.10067 17.5941ZM10.624 18.046C10.0955 17.8965 9.59125 17.7432 9.10067 17.5941L7.93705 21.4211C8.42334 21.5689 8.96355 21.7332 9.53502 21.8949L10.624 18.046ZM8.07911 19.7529C8.07594 19.8466 8.07658 19.927 8.07849 19.9904C8.07945 20.0222 8.08075 20.0502 8.0821 20.0739C8.08278 20.0858 8.08347 20.0967 8.08415 20.1064C8.08449 20.1113 8.08482 20.1159 8.08515 20.1202C8.08531 20.1224 8.08547 20.1245 8.08563 20.1265C8.08571 20.1275 8.08579 20.1285 8.08587 20.1295C8.08591 20.13 8.08595 20.1305 8.08598 20.131C8.08596 20.1308 8.086 20.1312 8.08598 20.131C8.08599 20.1311 8.08607 20.132 8.08607 20.132C8.08609 20.1322 8.08609 20.1324 10.0795 19.9705C12.0729 19.8086 12.0729 19.8085 12.0729 19.8086C12.0729 19.8085 12.0729 19.8087 12.0729 19.8086C12.0729 19.8088 12.073 19.8098 12.0731 19.81C12.0731 19.8105 12.0731 19.8109 12.0732 19.8114C12.0732 19.8123 12.0733 19.8132 12.0734 19.8141C12.0735 19.8159 12.0737 19.8177 12.0738 19.8194C12.0741 19.8229 12.0743 19.8261 12.0745 19.8293C12.0749 19.8355 12.0753 19.8411 12.0756 19.8461C12.0761 19.8561 12.0765 19.8639 12.0766 19.8698C12.077 19.8812 12.0768 19.8868 12.0768 19.8883L8.07911 19.7529ZM8.73081 17.7384C8.28039 18.3943 7.9974 19.1793 8.08945 20.0346L12.0665 19.6066C12.0824 19.7545 12.0632 19.8767 12.0392 19.9571C12.0169 20.0318 11.9975 20.0473 12.0282 20.0026L8.73081 17.7384ZM12.3795 18.8805V18.8705H8.37954V18.8805H12.3795ZM12.194 19.7192C12.188 19.734 12.1827 19.7458 12.1785 19.7543L8.58052 18.0067C8.54693 18.0758 8.51508 18.1471 8.48542 18.2205L12.194 19.7192ZM12.7193 16.8222C12.0152 16.5886 11.2651 16.4784 10.5251 16.6356C9.73358 16.8037 9.1309 17.241 8.73194 17.7803L11.9475 20.1594C11.8866 20.2417 11.7997 20.3313 11.6841 20.4076C11.5667 20.485 11.4507 20.5282 11.3562 20.5483C11.1798 20.5858 11.1761 20.5246 11.4597 20.6187L12.7193 16.8222ZM33.1797 14.0793C29.205 16.2963 24.7989 17.2324 20.9654 17.4751C17.0945 17.7202 14.0033 17.2479 12.7193 16.8222L11.4597 20.6187C13.371 21.2524 17.0078 21.7337 21.2182 21.4671C25.4659 21.1981 30.4944 20.1572 35.1282 17.5726L33.1797 14.0793ZM34.0256 13.5859C33.7138 13.7584 33.4074 13.9371 33.1066 14.1221L35.2013 17.5298C35.4497 17.377 35.7032 17.2291 35.9615 17.0863L34.0256 13.5859ZM35.2759 12.756C34.8423 13.0646 34.4006 13.3552 33.9523 13.6285L36.0348 17.0437C36.5617 16.7224 37.0826 16.3798 37.5954 16.0148L35.2759 12.756ZM36.9732 16.3824C37.06 16.3107 37.1502 16.2563 37.2456 16.214L35.6256 12.5568C35.2101 12.7408 34.8054 12.9849 34.4257 13.2986L36.9732 16.3824ZM35.6895 16.8405H35.6995V12.8405H35.6895V16.8405ZM33.5453 15.4507C33.7493 15.6867 33.9217 15.8774 34.0452 16.0112C34.107 16.0783 34.1569 16.1313 34.1925 16.1688C34.2103 16.1876 34.2246 16.2026 34.2351 16.2135C34.2403 16.2189 34.2446 16.2234 34.2479 16.2268C34.2496 16.2286 34.251 16.23 34.2522 16.2312C34.2527 16.2318 34.2533 16.2324 34.2537 16.2328C34.254 16.2331 34.2547 16.2339 34.2549 16.2341C34.2549 16.234 34.255 16.2342 34.2549 16.2341C34.2549 16.2342 34.2549 16.2341 35.6895 14.8405C37.124 13.4469 37.1241 13.447 37.1242 13.447C37.1243 13.4471 37.1247 13.4477 37.1249 13.4478C37.1243 13.4472 37.123 13.4458 37.1205 13.4432C37.1156 13.4381 37.107 13.4292 37.095 13.4165C37.0711 13.3913 37.0337 13.3515 36.9848 13.2985C36.8868 13.1924 36.7438 13.0343 36.5717 12.8352L33.5453 15.4507Z" fill="#171c4c"/>
</g>
<path fill-rule="evenodd" clip-rule="evenodd" d="M57.787 50.7815C56.772 49.8454 55.1904 49.9093 54.2543 50.9242C53.788 51.4298 53.5698 52.076 53.5938 52.7129C53.2003 52.8414 52.8333 53.0695 52.533 53.3957C52.4006 53.5395 52.2882 53.6946 52.1958 53.8576C51.2016 53.2676 49.8972 53.4313 49.0828 54.3157C48.1475 55.3314 48.2127 56.913 49.2284 57.8483L55.4184 63.5483C56.434 64.4835 58.0156 64.4184 58.9509 63.4027C59.0833 63.2589 59.1956 63.1038 59.2881 62.9408C60.2822 63.5308 61.5867 63.3671 62.4011 62.4826C62.8673 61.9764 63.0849 61.3295 63.0601 60.6922C63.4493 60.5633 63.8121 60.3368 64.1097 60.0141C65.0458 58.9992 64.9819 57.4176 63.967 56.4815L57.787 50.7815Z" fill="#F09800"/>
<path fill-rule="evenodd" clip-rule="evenodd" d="M58.1152 51.7775C57.5058 51.2163 56.5568 51.2554 55.9957 51.8648C55.5733 52.3235 55.491 52.9744 55.7359 53.5077C55.1609 53.2432 54.4576 53.3641 54.0057 53.8548C53.7286 54.1558 53.5978 54.5395 53.6099 54.9184L52.8051 54.1774C52.1956 53.6163 51.2467 53.6555 50.6855 54.2649C50.1244 54.8744 50.1636 55.8233 50.773 56.3844L56.953 62.0744C57.5625 62.6356 58.5114 62.5964 59.0726 61.9869C59.3494 61.6862 59.4802 61.3028 59.4683 60.9241L60.283 61.6743C60.8924 62.2355 61.8414 62.1964 62.4025 61.587C62.8249 61.1283 62.9072 60.4774 62.6623 59.9441C63.2373 60.2087 63.9407 60.0877 64.3925 59.597C64.9537 58.9876 64.9146 58.0387 64.3052 57.4775L58.1152 51.7775Z" fill="#FFCC48" fill-opacity="0.5"/>
<path d="M44.6773 66.8833C59.336 63.8075 68.862 50.0794 65.9541 36.2206C63.0462 22.3618 48.8057 13.6204 34.1469 16.6961C19.4881 19.7718 9.96218 33.5 12.87 47.3588C15.7779 61.2176 30.0185 69.959 44.6773 66.8833Z" fill="#D2DCE4"/>
<path d="M43.1894 59.1791C57.103 56.7308 66.697 45.1688 64.6181 33.3546C62.5392 21.5405 49.5747 13.9481 35.661 16.3964C21.7473 18.8448 12.1534 30.4068 14.2323 42.2209C16.3112 54.035 29.2757 61.6275 43.1894 59.1791Z" fill="white"/>
<path d="M14.8798 52.3008C14.8798 52.3008 13.1798 47.7908 10.3598 38.7708C7.34976 29.1508 6.45976 30.7708 3.64976 23.7408C2.52976 20.9508 2.40976 17.6308 7.09976 19.4008C11.2098 20.9508 13.5998 20.6408 13.5998 20.6408L13.4498 39.3308L14.8798 52.3008Z" fill="#D2DCE4"/>
<path d="M20.2699 39.3997C20.2699 39.3997 44.3799 7.85975 38.3699 12.8497C29.2499 20.9097 15.8299 19.9597 12.0899 18.7197C9.91987 17.9997 10.0799 19.9697 10.0799 19.9697C7.49987 19.2397 5.52987 18.4397 4.79987 18.9597C2.85987 20.3297 11.2199 28.9697 11.2199 28.9697C7.38987 29.4097 11.1099 32.8197 15.0499 44.3997L20.2799 39.4097L20.2699 39.3997Z" fill="white"/>
<path d="M46.4481 50.1091C56.8697 50.1091 65.3181 41.6607 65.3181 31.2391C65.3181 20.8175 56.8697 12.3691 46.4481 12.3691C36.0264 12.3691 27.5781 20.8175 27.5781 31.2391C27.5781 41.6607 36.0264 50.1091 46.4481 50.1091Z" fill="#D2DCE4"/>
<path d="M47.3019 44.7191C57.9054 43.2214 65.4906 34.8521 64.2439 26.0258C62.9971 17.1996 53.3906 11.2587 42.787 12.7564C32.1835 14.2542 24.5983 22.6235 25.845 31.4498C27.0918 40.276 36.6983 46.2169 47.3019 44.7191Z" fill="white"/>
<path d="M55.6287 33.3609C55.2487 35.5609 51.1287 38.1709 48.5887 37.5509C46.0487 36.9309 44.5587 34.0809 45.2587 31.2109C45.9687 28.3309 48.5987 26.5109 51.1487 27.1309C53.6987 27.7509 55.9087 31.7309 55.6287 33.3609Z" fill="#F09800"/>
<path d="M55.5316 33.3701C55.1516 35.5701 51.6416 33.0101 49.0916 32.3901C46.5416 31.7701 45.5316 30.0801 45.8216 29.5901C46.9416 27.6901 49.0216 26.6501 51.0516 27.1401C53.5916 27.7701 55.8116 31.7401 55.5316 33.3701Z" fill="#FFCC48"/>
<path d="M41.5235 31.8159C42.8282 31.4573 43.5726 30.0268 43.1862 28.6209C42.7997 27.2151 41.4288 26.3661 40.1241 26.7247C38.8194 27.0834 38.075 28.5138 38.4614 29.9197C38.8479 31.3256 40.2188 32.1745 41.5235 31.8159Z" fill="#DACED3"/>
<path d="M41.3546 32.0634C42.606 31.7194 43.3204 30.3483 42.95 29.001C42.5797 27.6537 41.265 26.8403 40.0135 27.1843C38.7621 27.5283 38.0477 28.8994 38.418 30.2467C38.7884 31.594 40.1031 32.4074 41.3546 32.0634Z" fill="#171c4c"/>
<path d="M42.6689 28.45C42.2789 27.74 41.5189 27.25 40.6489 27.25C39.9389 27.25 39.2989 27.58 38.8789 28.09C38.9089 28.57 39.0989 29.1 39.4289 29.57C40.1889 30.64 41.4289 31.07 42.1989 30.52C42.7689 30.11 42.9289 29.29 42.6589 28.45H42.6689Z" fill="#171c4c"/>
<path d="M40.5883 27.6094C41.4383 27.6094 42.2083 28.2394 42.4583 29.1394C42.7583 30.2194 42.1983 31.3094 41.2183 31.5794C41.0683 31.6194 40.9183 31.6394 40.7683 31.6394C39.9183 31.6394 39.1483 31.0094 38.8983 30.1094C38.7483 29.5794 38.8083 29.0294 39.0483 28.5694C39.2883 28.1194 39.6683 27.7994 40.1383 27.6694C40.2883 27.6294 40.4383 27.6094 40.5883 27.6094ZM40.5883 27.1094C40.3983 27.1094 40.1983 27.1394 40.0083 27.1894C38.7583 27.5294 38.0483 28.8994 38.4183 30.2494C38.7283 31.3894 39.7183 32.1394 40.7683 32.1394C40.9583 32.1394 41.1583 32.1094 41.3483 32.0594C42.5983 31.7194 43.3083 30.3494 42.9383 28.9994C42.6283 27.8594 41.6383 27.1094 40.5883 27.1094Z" fill="#171c4c"/>
<path d="M55.5306 29.0003C53.9606 29.2703 52.8106 24.4003 55.1106 23.9503C57.8706 23.4103 58.4806 28.4903 55.5306 29.0003Z" fill="#171c4c"/>
<path d="M55.9408 27.9491C55.1708 28.0491 54.0508 27.8891 54.0508 26.1491C54.0508 24.4091 54.8909 24.1691 55.3109 24.1391C55.7309 24.1091 56.7609 23.9191 57.2009 25.0791C57.5809 26.0891 57.7108 27.7091 55.9408 27.9491Z" fill="#171c4c"/>
<path d="M55.5119 24.4102C56.4119 24.4102 56.9019 25.3302 56.9719 26.1802C57.0619 27.1902 56.6219 28.3002 55.4119 28.5102C55.0219 28.5102 54.4519 27.5702 54.3419 26.4102C54.3019 26.0002 54.2419 24.6302 55.2119 24.4402C55.3119 24.4202 55.4219 24.4102 55.5119 24.4102ZM55.5119 23.9102C55.3819 23.9102 55.2519 23.9202 55.1119 23.9502C52.8719 24.3902 53.9019 29.0102 55.4019 29.0102C55.4419 29.0102 55.4819 29.0102 55.5319 29.0002C58.3319 28.5202 57.9219 23.9102 55.5119 23.9102Z" fill="#171c4c"/>
<path d="M35.6903 14.8401C35.6903 14.8401 31.6103 10.6401 32.0303 8.00011C32.4503 5.36011 35.7303 4.78011 37.4003 7.17011C37.4003 7.17011 40.6803 5.30011 42.1003 9.05011C42.1003 9.05011 44.6203 7.69011 45.0903 14.8401C45.0903 14.8401 44.4203 17.7201 40.9603 14.8401C40.9603 14.8401 37.7703 13.1301 35.7003 14.8401H35.6903Z" fill="#FF5F5F"/>
<path d="M40.9503 14.8404C44.0903 17.4504 44.9303 15.3304 45.0603 14.9104C45.0703 14.8704 45.0803 14.8404 45.0803 14.8404C44.0303 16.2304 43.0903 14.5704 41.7303 12.5704C40.3703 10.5704 40.9503 10.0904 40.9503 10.0904C38.5003 10.9304 39.9703 14.9704 38.0903 13.8504C36.2103 12.7304 36.3703 8.81039 36.3703 8.81039C34.6503 9.21039 36.2903 12.4104 34.7703 11.5104C33.2503 10.6104 32.6103 6.65039 32.6103 6.65039C32.3203 7.01039 32.1203 7.46039 32.0303 8.00039C31.6103 10.6404 35.6903 14.8404 35.6903 14.8404C37.7603 13.1304 40.9503 14.8404 40.9503 14.8404Z" fill="#E9462E"/>
<path d="M35.4319 50.5791C34.6119 52.7491 32.7019 54.0491 31.1619 53.4691C30.2819 53.1391 29.7319 52.2591 29.5519 51.1791C29.3019 52.9191 29.9019 54.4891 31.1619 54.9591C32.7019 55.5391 34.6119 54.2491 35.4319 52.0691C35.7819 51.1291 35.8619 50.1991 35.7319 49.3691C35.6719 49.7691 35.5819 50.1691 35.4319 50.5691V50.5791Z" fill="#D2DCE4"/>
<path d="M43.1918 56.1798C42.4518 58.1398 40.7318 59.2998 39.3418 58.7798C38.5518 58.4798 38.0518 57.6898 37.8918 56.7098C37.6618 58.2798 38.1418 59.9398 39.3418 60.1198C46.4518 61.2098 46.8118 60.3198 44.9318 59.3998C42.7918 58.3598 43.5818 55.8298 43.4618 55.0898C43.4118 55.4498 43.3318 55.8098 43.1918 56.1698V56.1798Z" fill="#D2DCE4"/>
<path d="M37.6917 57.8009C36.9517 59.7609 33.5517 59.7009 32.1617 59.1809C31.3717 58.8809 32.5517 61.0409 32.3917 60.0609C32.1617 61.6309 39.8217 61.4409 40.9517 61.8609C42.3417 62.3809 41.2917 60.8709 39.3417 60.1209C38.0117 59.6009 38.0717 57.4509 37.9617 56.7109C37.9117 57.0709 37.8317 57.4309 37.6917 57.7909V57.8009Z" fill="#D2DCE4"/>
<path d="M48.7812 55.4591C48.0412 57.4191 46.3212 58.5791 44.9312 58.0591C44.1412 57.7591 43.6412 56.9691 43.4812 55.9891C43.2512 57.5591 43.8012 58.9691 44.9312 59.3991C46.3212 59.9191 48.0112 61.9791 48.7512 60.0191C48.9712 59.4491 52.6012 56.3391 52.6012 55.7891C49.3212 57.8491 49.0912 54.5991 49.0512 54.3691C49.0012 54.7291 48.9212 55.0891 48.7812 55.4491V55.4591Z" fill="#D2DCE4"/>
<path d="M31.511 49.0595C30.591 50.4395 29.041 51.0295 28.061 50.3695C27.501 49.9995 27.261 49.2995 27.311 48.5095C26.851 49.6795 27.021 50.8695 27.811 51.4095C28.791 52.0695 30.331 51.4795 31.261 50.0995C31.661 49.5095 31.871 48.8595 31.911 48.2695C31.801 48.5395 31.681 48.7995 31.511 49.0595Z" fill="#D2DCE4"/>
<path d="M23.5919 43.9509C21.3619 44.6209 19.1819 43.8809 18.7019 42.3009C18.4319 41.4009 18.7918 40.4309 19.5518 39.6309C18.0118 40.4809 17.1319 41.9209 17.5219 43.2009C17.9919 44.7809 20.1818 45.5109 22.4118 44.8509C23.3718 44.5609 24.1618 44.0609 24.7318 43.4509C24.3818 43.6409 24.0119 43.8209 23.5919 43.9409V43.9509Z" fill="#D2DCE4"/>
<path d="M22.4199 39.91C20.7599 40.01 19.3599 39.14 19.2799 37.97C19.2399 37.3 19.6499 36.68 20.2999 36.25C19.0899 36.59 18.2399 37.45 18.2999 38.41C18.3699 39.59 19.7799 40.45 21.4299 40.35C22.1399 40.31 22.7799 40.08 23.2799 39.76C22.9999 39.84 22.7199 39.9 22.4099 39.92L22.4199 39.91Z" fill="#D2DCE4"/>
<path d="M10.3815 18.8791C9.53143 20.6291 13.5915 20.6091 13.5915 20.6091C13.5915 20.6091 11.8315 20.5091 11.9715 22.0691C12.1115 23.6291 15.9415 24.4191 15.9415 24.4191C15.9415 24.4191 11.4215 24.0891 10.6915 22.5691C9.96143 21.0391 11.2415 20.9791 11.2415 20.9791C11.2415 20.9791 9.35143 20.3691 10.3815 18.8691V18.8791Z" fill="#D2DCE4"/>
</svg>
