<svg width="152" height="132" viewBox="0 0 152 132" fill="none" xmlns="http://www.w3.org/2000/svg">
<path d="M38.7635 117.141L32.5366 116.03L46.5327 119.823L46.5346 119.824C46.7379 119.879 47.0948 120.01 47.2798 120.364C47.5262 120.834 47.2791 121.248 47.0968 121.43C46.9178 121.608 46.6912 121.709 46.4971 121.761C46.2911 121.818 46.0553 121.839 45.8138 121.805L45.8134 121.805L37.5487 120.647C35.585 121.398 32.9129 121.744 29.9861 121.706C26.9499 121.666 23.5804 121.213 20.3345 120.324C16.4298 119.255 13.3555 117.734 11.5851 116.078C10.7016 115.251 10.0756 114.327 9.91356 113.344C9.74344 112.313 10.1063 111.351 10.9281 110.558L11.8561 109.662L11.8987 109.828C12.5644 109.426 13.3567 109.106 14.2262 108.857C15.582 108.47 17.1861 108.238 18.9282 108.157C22.4121 107.996 26.5204 108.436 30.4417 109.509C33.0427 110.222 35.2583 111.129 36.9671 112.135C38.6565 113.129 39.9297 114.266 40.5291 115.476L40.5293 115.476C40.7026 115.827 40.6287 116.174 40.4932 116.413C40.3682 116.633 40.1824 116.788 40.0173 116.891C39.691 117.094 39.2274 117.224 38.7649 117.141C38.7644 117.141 38.7639 117.141 38.7635 117.141ZM46.1159 120.31C46.1158 120.31 46.1139 120.31 46.1104 120.312C46.1142 120.311 46.116 120.31 46.1159 120.31Z" fill="#171c4c" stroke="#171c4c" stroke-width="1.5"/>
<g filter="url(#filter0_d_824_6147)">
<path fill-rule="evenodd" clip-rule="evenodd" d="M7.555 107.011C8.78081 102.632 17.3909 101.222 26.7699 103.864C32.9908 105.616 37.9764 108.703 40.2835 111.857C40.6281 112.329 40.2207 112.993 39.6385 112.895L20.985 109.823C20.4572 109.741 20.2844 110.537 20.8017 110.683L49.9915 118.808C50.7674 119.027 50.4787 119.739 49.8665 119.669L40.2514 118.57C37.2828 121.312 30.0576 121.899 22.2985 119.714C20.4925 119.205 18.7894 118.584 17.2253 117.88L19.5609 113.132L15.21 116.888C9.8461 114.002 6.65981 110.163 7.55011 107.002L7.555 107.011Z" fill="#D2DCE4"/>
<path d="M20.8017 110.683L49.9915 118.808M20.8017 110.683C20.2844 110.537 20.4572 109.741 20.985 109.823M20.8017 110.683L20.9022 110.326L21.0028 109.96L20.9133 110.282L20.985 109.823M20.8017 110.683L20.9039 110.316L20.985 109.823M49.9915 118.808L40.2835 111.857C40.6281 112.329 40.2207 112.993 39.6385 112.895L20.985 109.823M49.9915 118.808C50.7674 119.027 50.4787 119.739 49.8665 119.669L49.9915 118.808ZM39.5155 113.635C39.5151 113.635 39.5147 113.635 39.5142 113.635L26.5112 111.494L50.1926 118.086L50.1948 118.086C50.4959 118.171 50.7858 118.33 50.9848 118.594C51.193 118.871 51.2599 119.214 51.1749 119.538C51.0084 120.171 50.3745 120.482 49.7818 120.415L49.7813 120.415L40.495 119.353C38.8088 120.747 36.1753 121.528 33.1228 121.738C29.8781 121.961 26.0454 121.548 22.0951 120.436C20.2544 119.917 18.5164 119.283 16.9177 118.564C16.7322 118.481 16.5885 118.326 16.5196 118.134C16.4507 117.943 16.4625 117.732 16.5523 117.549L17.2611 116.108L15.7001 117.456C15.4647 117.659 15.1284 117.696 14.8546 117.549C12.1141 116.074 9.88459 114.333 8.44628 112.513C7.01536 110.702 6.29123 108.705 6.8282 106.798C6.83848 106.762 6.85139 106.727 6.86669 106.693C7.65562 104.126 10.4938 102.636 13.9838 102.065C17.5925 101.474 22.2024 101.798 26.9732 103.142C33.2804 104.919 38.4449 108.073 40.8889 111.415L40.8891 111.415C41.6312 112.431 40.7586 113.843 39.5155 113.635Z" stroke="#171c4c" stroke-width="1.5" stroke-linejoin="round"/>
</g>
<path d="M11.1836 106.364L50.1376 120.642C51.1442 121.415 45.7082 119.923 42.2674 119.894C38.2364 119.861 34.253 124.004 28.4821 121.889C34.3439 118.03 27.2931 115.677 21.7953 113.027C19.6335 111.984 11.1836 106.364 11.1836 106.364Z" fill="#AABFD0" style="mix-blend-mode:darken"/>
<path d="M39.3151 109.512L41.5152 113.438C41.5152 113.438 33.3334 114.202 27.5625 112.087C33.4243 108.228 26.3735 105.875 20.8758 103.225C18.7139 102.183 32.9254 102.203 39.3151 109.512Z" fill="#AABFD0" style="mix-blend-mode:darken"/>
<path d="M73.8841 78.7836L80.2019 79.0884L65.7125 79.6665L65.7105 79.6666C65.4999 79.6755 65.1227 79.7238 64.8636 80.0269C64.5187 80.4304 64.6671 80.8897 64.8044 81.1071C64.9392 81.3207 65.1376 81.4693 65.3151 81.5642C65.5034 81.6648 65.7285 81.7379 65.9715 81.7588L65.9719 81.7588L74.2868 82.4719C76.0336 83.6422 78.5614 84.5748 81.4231 85.19C84.3917 85.8282 87.7775 86.1373 91.1398 85.9944C95.1847 85.8225 98.5206 85.0255 100.616 83.8052C101.661 83.1962 102.478 82.4347 102.854 81.5134C103.25 80.546 103.111 79.5271 102.487 78.5705L101.782 77.4903L101.703 77.6431C101.144 77.1023 100.443 76.614 99.6505 76.1779C98.4151 75.4978 96.903 74.9144 95.2227 74.4475C91.8624 73.5137 87.7595 73.0263 83.6976 73.199C81.0033 73.3135 78.6411 73.7042 76.7512 74.3037C74.8827 74.8963 73.3881 75.7207 72.5341 76.7667L72.5337 76.7671C72.2867 77.0701 72.2812 77.4257 72.3601 77.6885C72.4329 77.931 72.5794 78.1238 72.7175 78.2606C72.9904 78.5309 73.4132 78.7617 73.8826 78.7836C73.8831 78.7836 73.8836 78.7836 73.8841 78.7836ZM66.0103 80.2339C66.0104 80.2338 66.0121 80.2349 66.0151 80.2373C66.0117 80.2352 66.0102 80.234 66.0103 80.2339Z" fill="#171c4c" stroke="#171c4c" stroke-width="1.5"/>
<g filter="url(#filter1_d_824_6147)">
<path fill-rule="evenodd" clip-rule="evenodd" d="M105.894 77.1888C105.827 72.6426 97.8625 69.0809 88.1199 69.2396C81.6578 69.345 76.0493 71.0559 73.0131 73.5169C72.5594 73.885 72.7837 74.631 73.3716 74.685L92.1911 76.4787C92.7224 76.5337 92.6862 77.3475 92.1488 77.3563L61.8518 77.7582C61.0458 77.7713 61.1431 78.5335 61.7528 78.6226L71.3298 80.0152C73.4998 83.4239 80.3354 85.8372 88.3953 85.7059C90.2713 85.6753 92.0767 85.5092 93.7686 85.2285L92.723 80.0414L95.9704 84.784C101.893 83.3635 105.955 80.4652 105.901 77.1816L105.894 77.1888Z" fill="#D2DCE4"/>
<path d="M92.1488 77.3563L61.8518 77.7582M92.1488 77.3563C92.6862 77.3475 92.7224 76.5337 92.1911 76.4787M92.1488 77.3563L92.1428 76.9856L92.1389 76.6064L92.1433 76.9404L92.1911 76.4787M92.1488 77.3563L92.1438 76.9752L92.1911 76.4787M61.8518 77.7582L73.0131 73.5169C72.5594 73.885 72.7837 74.631 73.3716 74.685L92.1911 76.4787M61.8518 77.7582C61.0458 77.7713 61.1431 78.5335 61.7528 78.6226L61.8518 77.7582ZM73.3016 75.4318C73.302 75.4318 73.3024 75.4318 73.3029 75.4319L86.4216 76.6822L61.8419 77.0082L61.8396 77.0083C61.5269 77.0134 61.2061 77.0923 60.9461 77.2974C60.6741 77.5119 60.5218 77.8266 60.5214 78.1611C60.5207 78.8154 61.0541 79.2784 61.6444 79.3647L61.6448 79.3648L70.8944 80.7098C72.1685 82.4887 74.5153 83.9159 77.413 84.8984C80.4932 85.9427 84.3041 86.5226 88.4075 86.4558C90.3196 86.4246 92.162 86.2554 93.8913 85.9684C94.092 85.9351 94.2705 85.8218 94.386 85.6543C94.5014 85.4869 94.544 85.2797 94.5038 85.0803L94.1865 83.5061L95.3516 85.2078C95.5273 85.4643 95.843 85.5859 96.1453 85.5133C99.1716 84.7876 101.772 83.6738 103.627 82.2813C105.473 80.896 106.683 79.1498 106.651 77.1694C106.65 77.1315 106.647 77.0941 106.641 77.0574C106.533 74.3746 104.17 72.209 100.942 70.7652C97.6034 69.2723 93.0634 68.409 88.1077 68.4897C81.5559 68.5965 75.7572 70.3272 72.5408 72.9343L72.5405 72.9345C71.5636 73.7271 72.0466 75.3153 73.3016 75.4318Z" stroke="#171c4c" stroke-width="1.5" stroke-linejoin="round"/>
</g>
<path d="M104.627 74.559L106.906 79.9784C105.735 80.469 98.1667 84.6981 101.501 85.5493C105.407 86.5465 75.7439 86.8009 81.8637 86.2297C77.1817 81.002 92.8815 82.9748 98.4163 80.4028C103.885 77.8614 104.74 75.7618 104.627 74.559L104.165 73.4601C104.165 73.4601 104.561 73.8566 104.627 74.559Z" fill="#AABFD0" style="mix-blend-mode:darken"/>
<path d="M88.8192 69.2499C90.8404 67.9557 113.065 73.3415 105.021 78.7765C105.021 78.7765 99.7907 77.8305 73.1241 75.1583C102.194 74.0588 88.8192 69.2499 88.8192 69.2499Z" fill="#AABFD0" style="mix-blend-mode:darken"/>
<path d="M111.912 106.139L118.139 105.028L104.143 108.821L104.141 108.822C103.938 108.877 103.581 109.008 103.396 109.362C103.15 109.832 103.397 110.247 103.579 110.428C103.758 110.606 103.985 110.707 104.179 110.76C104.385 110.816 104.62 110.837 104.862 110.803L104.862 110.803L113.127 109.645C115.091 110.396 117.763 110.742 120.69 110.704C123.726 110.664 127.095 110.211 130.341 109.322C134.246 108.253 137.32 106.732 139.091 105.076C139.974 104.249 140.6 103.325 140.762 102.342C140.932 101.311 140.569 100.349 139.748 99.5556L138.82 98.6597L138.777 98.8261C138.111 98.4237 137.319 98.1039 136.45 97.8554C135.094 97.4678 133.49 97.2361 131.748 97.1555C128.264 96.9942 124.155 97.4336 120.234 98.5073C117.633 99.2195 115.417 100.127 113.709 101.133C112.019 102.127 110.746 103.264 110.147 104.474L110.146 104.474C109.973 104.825 110.047 105.172 110.183 105.411C110.308 105.631 110.493 105.786 110.658 105.889C110.985 106.092 111.448 106.223 111.911 106.139C111.911 106.139 111.912 106.139 111.912 106.139ZM104.56 109.308C104.56 109.308 104.562 109.308 104.565 109.31C104.562 109.309 104.56 109.308 104.56 109.308Z" fill="#171c4c" stroke="#171c4c" stroke-width="1.5"/>
<g filter="url(#filter2_d_824_6147)">
<path fill-rule="evenodd" clip-rule="evenodd" d="M143.477 98.3101C142.524 93.8646 134.017 91.9269 124.493 93.9855C118.176 95.3509 113.009 98.1243 110.512 101.131C110.139 101.581 110.505 102.268 111.092 102.207L129.899 100.29C130.431 100.24 130.555 101.045 130.029 101.159L100.394 107.47C99.6065 107.641 99.8508 108.369 100.466 108.338L110.131 107.833C112.925 110.752 120.1 111.784 127.979 110.081C129.813 109.684 131.551 109.169 133.155 108.563L131.117 103.68L135.228 107.697C140.76 105.147 144.176 101.512 143.483 98.3017L143.477 98.3101Z" fill="#D2DCE4"/>
<path d="M130.029 101.159L100.394 107.47M130.029 101.159C130.555 101.045 130.431 100.24 129.899 100.29M130.029 101.159L129.951 100.797L129.873 100.425L129.943 100.752L129.899 100.29M130.029 101.159L129.95 100.786L129.899 100.29M100.394 107.47L110.512 101.131C110.139 101.581 110.505 102.268 111.092 102.207L129.899 100.29M100.394 107.47C99.6065 107.641 99.8508 108.369 100.466 108.338L100.394 107.47ZM111.169 102.953C111.17 102.953 111.17 102.952 111.171 102.952L124.281 101.616L100.238 106.737L100.236 106.737C99.9302 106.803 99.631 106.944 99.4161 107.195C99.1912 107.459 99.1033 107.797 99.1683 108.125C99.2954 108.767 99.9089 109.117 100.505 109.087L100.505 109.086L109.839 108.599C111.436 110.095 114.017 111.036 117.05 111.434C120.275 111.856 124.126 111.681 128.137 110.814C130.007 110.41 131.78 109.884 133.42 109.265C133.611 109.193 133.764 109.047 133.844 108.86C133.925 108.673 133.926 108.462 133.848 108.274L133.229 106.792L134.704 108.234C134.926 108.451 135.26 108.509 135.542 108.378C138.368 107.075 140.701 105.475 142.249 103.747C143.788 102.028 144.634 100.079 144.216 98.1433C144.208 98.1062 144.197 98.0702 144.184 98.0354C143.555 95.4253 140.814 93.7629 137.365 92.9775C133.8 92.1653 129.179 92.2053 124.334 93.2524C117.93 94.6368 112.581 97.4666 109.935 100.652L109.935 100.652C109.132 101.62 109.916 103.083 111.169 102.953Z" stroke="#171c4c" stroke-width="1.5" stroke-linejoin="round"/>
</g>
<path d="M139.898 97.4415L100.138 109.291C99.0861 110.001 104.604 108.846 108.04 109.03C112.065 109.245 115.786 113.626 121.676 111.87C116.063 107.658 123.245 105.744 128.896 103.437C131.118 102.53 139.898 97.4415 139.898 97.4415Z" fill="#AABFD0" style="mix-blend-mode:darken"/>
<path d="M111.624 98.851L109.186 102.634C109.186 102.634 117.305 103.901 123.196 102.145C117.583 97.9328 124.765 96.0187 130.416 93.7121C132.638 92.8051 118.452 91.9496 111.624 98.851Z" fill="#AABFD0" style="mix-blend-mode:darken"/>
<g style="mix-blend-mode:soft-light" opacity="0.15">
<path d="M38.7635 117.141L32.5366 116.03L46.5327 119.823L46.5346 119.824C46.7379 119.879 47.0948 120.01 47.2798 120.364C47.5262 120.834 47.2791 121.248 47.0968 121.43C46.9178 121.608 46.6912 121.709 46.4971 121.761C46.2911 121.818 46.0553 121.839 45.8138 121.805L45.8134 121.805L37.5487 120.647C35.585 121.398 32.9129 121.744 29.9861 121.706C26.9499 121.666 23.5804 121.213 20.3345 120.324C16.4298 119.255 13.3555 117.734 11.5851 116.078C10.7016 115.251 10.0756 114.327 9.91356 113.344C9.74344 112.313 10.1063 111.351 10.9281 110.558L11.8561 109.662L11.8987 109.828C12.5644 109.426 13.3567 109.106 14.2262 108.857C15.582 108.47 17.1861 108.238 18.9282 108.157C22.4121 107.996 26.5204 108.436 30.4417 109.509C33.0427 110.222 35.2583 111.129 36.9671 112.135C38.6565 113.129 39.9297 114.266 40.5291 115.476L40.5293 115.476C40.7026 115.827 40.6287 116.174 40.4932 116.413C40.3682 116.633 40.1824 116.788 40.0173 116.891C39.691 117.094 39.2274 117.224 38.7649 117.141C38.7644 117.141 38.7639 117.141 38.7635 117.141ZM46.1159 120.31C46.1158 120.31 46.1139 120.31 46.1104 120.312C46.1142 120.311 46.116 120.31 46.1159 120.31Z" fill="#7000FF" stroke="#7000FF" stroke-width="1.5"/>
<g filter="url(#filter3_d_824_6147)">
<path fill-rule="evenodd" clip-rule="evenodd" d="M7.555 107.011C8.78081 102.632 17.3909 101.222 26.7699 103.864C32.9908 105.616 37.9764 108.703 40.2835 111.857C40.6281 112.329 40.2207 112.993 39.6385 112.895L20.985 109.823C20.4572 109.741 20.2844 110.537 20.8017 110.683L49.9915 118.808C50.7674 119.027 50.4787 119.739 49.8665 119.669L40.2514 118.57C37.2828 121.312 30.0576 121.899 22.2985 119.714C20.4925 119.205 18.7894 118.584 17.2253 117.88L19.5609 113.132L15.21 116.888C9.8461 114.002 6.65981 110.163 7.55011 107.002L7.555 107.011Z" fill="#7000FF"/>
<path d="M20.8017 110.683L49.9915 118.808M20.8017 110.683C20.2844 110.537 20.4572 109.741 20.985 109.823M20.8017 110.683L20.9022 110.326L21.0028 109.96L20.9133 110.282L20.985 109.823M20.8017 110.683L20.9039 110.316L20.985 109.823M49.9915 118.808L40.2835 111.857C40.6281 112.329 40.2207 112.993 39.6385 112.895L20.985 109.823M49.9915 118.808C50.7674 119.027 50.4787 119.739 49.8665 119.669L49.9915 118.808ZM39.5155 113.635C39.5151 113.635 39.5147 113.635 39.5142 113.635L26.5112 111.494L50.1926 118.086L50.1948 118.086C50.4959 118.171 50.7858 118.33 50.9848 118.594C51.193 118.871 51.2599 119.214 51.1749 119.538C51.0084 120.171 50.3745 120.482 49.7818 120.415L49.7813 120.415L40.495 119.353C38.8088 120.747 36.1753 121.528 33.1228 121.738C29.8781 121.961 26.0454 121.548 22.0951 120.436C20.2544 119.917 18.5164 119.283 16.9177 118.564C16.7322 118.481 16.5885 118.326 16.5196 118.134C16.4507 117.943 16.4625 117.732 16.5523 117.549L17.2611 116.108L15.7001 117.456C15.4647 117.659 15.1284 117.696 14.8546 117.549C12.1141 116.074 9.88459 114.333 8.44628 112.513C7.01536 110.702 6.29123 108.705 6.8282 106.798C6.83848 106.762 6.85139 106.727 6.86669 106.693C7.65562 104.126 10.4938 102.636 13.9838 102.065C17.5925 101.474 22.2024 101.798 26.9732 103.142C33.2804 104.919 38.4449 108.073 40.8889 111.415L40.8891 111.415C41.6312 112.431 40.7586 113.843 39.5155 113.635Z" stroke="#7000FF" stroke-width="1.5" stroke-linejoin="round"/>
</g>
<path d="M11.1836 106.364L50.1376 120.642C51.1442 121.415 45.7082 119.923 42.2674 119.894C38.2364 119.861 34.253 124.004 28.4821 121.889C34.3439 118.03 27.2931 115.677 21.7953 113.027C19.6335 111.984 11.1836 106.364 11.1836 106.364Z" fill="#7000FF" style="mix-blend-mode:darken"/>
<path d="M39.3151 109.512L41.5152 113.438C41.5152 113.438 33.3334 114.202 27.5625 112.087C33.4243 108.228 26.3735 105.875 20.8758 103.225C18.7139 102.183 32.9254 102.203 39.3151 109.512Z" fill="#7000FF" style="mix-blend-mode:darken"/>
<path d="M73.8841 78.7836L80.2019 79.0884L65.7125 79.6665L65.7105 79.6666C65.4999 79.6755 65.1227 79.7238 64.8636 80.0269C64.5187 80.4304 64.6671 80.8897 64.8044 81.1071C64.9392 81.3207 65.1376 81.4693 65.3151 81.5642C65.5034 81.6648 65.7285 81.7379 65.9715 81.7588L65.9719 81.7588L74.2868 82.4719C76.0336 83.6422 78.5614 84.5748 81.4231 85.19C84.3917 85.8282 87.7775 86.1373 91.1398 85.9944C95.1847 85.8225 98.5206 85.0255 100.616 83.8052C101.661 83.1962 102.478 82.4347 102.854 81.5134C103.25 80.546 103.111 79.5271 102.487 78.5705L101.782 77.4903L101.703 77.6431C101.144 77.1023 100.443 76.614 99.6505 76.1779C98.4151 75.4978 96.903 74.9144 95.2227 74.4475C91.8624 73.5137 87.7595 73.0263 83.6976 73.199C81.0033 73.3135 78.6411 73.7042 76.7512 74.3037C74.8827 74.8963 73.3881 75.7207 72.5341 76.7667L72.5337 76.7671C72.2867 77.0701 72.2812 77.4257 72.3601 77.6885C72.4329 77.931 72.5794 78.1238 72.7175 78.2606C72.9904 78.5309 73.4132 78.7617 73.8826 78.7836C73.8831 78.7836 73.8836 78.7836 73.8841 78.7836ZM66.0103 80.2339C66.0104 80.2338 66.0121 80.2349 66.0151 80.2373C66.0117 80.2352 66.0102 80.234 66.0103 80.2339Z" fill="#7000FF" stroke="#7000FF" stroke-width="1.5"/>
<g filter="url(#filter4_d_824_6147)">
<path fill-rule="evenodd" clip-rule="evenodd" d="M105.894 77.1888C105.827 72.6426 97.8625 69.0809 88.1199 69.2396C81.6578 69.345 76.0493 71.0559 73.0131 73.5169C72.5594 73.885 72.7837 74.631 73.3716 74.685L92.1911 76.4787C92.7224 76.5337 92.6862 77.3475 92.1488 77.3563L61.8518 77.7582C61.0458 77.7713 61.1431 78.5335 61.7528 78.6226L71.3298 80.0152C73.4998 83.4239 80.3354 85.8372 88.3953 85.7059C90.2713 85.6753 92.0767 85.5092 93.7686 85.2285L92.723 80.0414L95.9704 84.784C101.893 83.3635 105.955 80.4652 105.901 77.1816L105.894 77.1888Z" fill="#7000FF"/>
<path d="M92.1488 77.3563L61.8518 77.7582M92.1488 77.3563C92.6862 77.3475 92.7224 76.5337 92.1911 76.4787M92.1488 77.3563L92.1428 76.9856L92.1389 76.6064L92.1433 76.9404L92.1911 76.4787M92.1488 77.3563L92.1438 76.9752L92.1911 76.4787M61.8518 77.7582L73.0131 73.5169C72.5594 73.885 72.7837 74.631 73.3716 74.685L92.1911 76.4787M61.8518 77.7582C61.0458 77.7713 61.1431 78.5335 61.7528 78.6226L61.8518 77.7582ZM73.3016 75.4318C73.302 75.4318 73.3024 75.4318 73.3029 75.4319L86.4216 76.6822L61.8419 77.0082L61.8396 77.0083C61.5269 77.0134 61.2061 77.0923 60.9461 77.2974C60.6741 77.5119 60.5218 77.8266 60.5214 78.1611C60.5207 78.8154 61.0541 79.2784 61.6444 79.3647L61.6448 79.3648L70.8944 80.7098C72.1685 82.4887 74.5153 83.9159 77.413 84.8984C80.4932 85.9427 84.3041 86.5226 88.4075 86.4558C90.3196 86.4246 92.162 86.2554 93.8913 85.9684C94.092 85.9351 94.2705 85.8218 94.386 85.6543C94.5014 85.4869 94.544 85.2797 94.5038 85.0803L94.1865 83.5061L95.3516 85.2078C95.5273 85.4643 95.843 85.5859 96.1453 85.5133C99.1716 84.7876 101.772 83.6738 103.627 82.2813C105.473 80.896 106.683 79.1498 106.651 77.1694C106.65 77.1315 106.647 77.0941 106.641 77.0574C106.533 74.3746 104.17 72.209 100.942 70.7652C97.6034 69.2723 93.0634 68.409 88.1077 68.4897C81.5559 68.5965 75.7572 70.3272 72.5408 72.9343L72.5405 72.9345C71.5636 73.7271 72.0466 75.3153 73.3016 75.4318Z" stroke="#7000FF" stroke-width="1.5" stroke-linejoin="round"/>
</g>
<path d="M104.627 74.559L106.906 79.9784C105.735 80.469 98.1667 84.6981 101.501 85.5493C105.407 86.5465 75.7439 86.8009 81.8637 86.2297C77.1817 81.002 92.8815 82.9748 98.4163 80.4028C103.885 77.8614 104.74 75.7618 104.627 74.559L104.165 73.4601C104.165 73.4601 104.561 73.8566 104.627 74.559Z" fill="#7000FF" style="mix-blend-mode:darken"/>
<path d="M88.8192 69.2499C90.8404 67.9557 113.065 73.3415 105.021 78.7765C105.021 78.7765 99.7907 77.8305 73.1241 75.1583C102.194 74.0588 88.8192 69.2499 88.8192 69.2499Z" fill="#7000FF" style="mix-blend-mode:darken"/>
<path d="M111.912 106.139L118.139 105.028L104.143 108.821L104.141 108.822C103.938 108.877 103.581 109.008 103.396 109.362C103.15 109.832 103.397 110.247 103.579 110.428C103.758 110.606 103.985 110.707 104.179 110.76C104.385 110.816 104.62 110.837 104.862 110.803L104.862 110.803L113.127 109.645C115.091 110.396 117.763 110.742 120.69 110.704C123.726 110.664 127.095 110.211 130.341 109.322C134.246 108.253 137.32 106.732 139.091 105.076C139.974 104.249 140.6 103.325 140.762 102.342C140.932 101.311 140.569 100.349 139.748 99.5556L138.82 98.6597L138.777 98.8261C138.111 98.4237 137.319 98.1039 136.45 97.8554C135.094 97.4678 133.49 97.2361 131.748 97.1555C128.264 96.9942 124.155 97.4336 120.234 98.5073C117.633 99.2195 115.417 100.127 113.709 101.133C112.019 102.127 110.746 103.264 110.147 104.474L110.146 104.474C109.973 104.825 110.047 105.172 110.183 105.411C110.308 105.631 110.493 105.786 110.658 105.889C110.985 106.092 111.448 106.223 111.911 106.139C111.911 106.139 111.912 106.139 111.912 106.139ZM104.56 109.308C104.56 109.308 104.562 109.308 104.565 109.31C104.562 109.309 104.56 109.308 104.56 109.308Z" fill="#7000FF" stroke="#7000FF" stroke-width="1.5"/>
<g filter="url(#filter5_d_824_6147)">
<path fill-rule="evenodd" clip-rule="evenodd" d="M143.477 98.3101C142.524 93.8646 134.017 91.9269 124.493 93.9855C118.176 95.3509 113.009 98.1243 110.512 101.131C110.139 101.581 110.505 102.268 111.092 102.207L129.899 100.29C130.431 100.24 130.555 101.045 130.029 101.159L100.394 107.47C99.6065 107.641 99.8508 108.369 100.466 108.338L110.131 107.833C112.925 110.752 120.1 111.784 127.979 110.081C129.813 109.684 131.551 109.169 133.155 108.563L131.117 103.68L135.228 107.697C140.76 105.147 144.176 101.512 143.483 98.3017L143.477 98.3101Z" fill="#7000FF"/>
<path d="M130.029 101.159L100.394 107.47M130.029 101.159C130.555 101.045 130.431 100.24 129.899 100.29M130.029 101.159L129.951 100.797L129.873 100.425L129.943 100.752L129.899 100.29M130.029 101.159L129.95 100.786L129.899 100.29M100.394 107.47L110.512 101.131C110.139 101.581 110.505 102.268 111.092 102.207L129.899 100.29M100.394 107.47C99.6065 107.641 99.8508 108.369 100.466 108.338L100.394 107.47ZM111.169 102.953C111.17 102.953 111.17 102.952 111.171 102.952L124.281 101.616L100.238 106.737L100.236 106.737C99.9302 106.803 99.631 106.944 99.4161 107.195C99.1912 107.459 99.1033 107.797 99.1683 108.125C99.2954 108.767 99.9089 109.117 100.505 109.087L100.505 109.086L109.839 108.599C111.436 110.095 114.017 111.036 117.05 111.434C120.275 111.856 124.126 111.681 128.137 110.814C130.007 110.41 131.78 109.884 133.42 109.265C133.611 109.193 133.764 109.047 133.844 108.86C133.925 108.673 133.926 108.462 133.848 108.274L133.229 106.792L134.704 108.234C134.926 108.451 135.26 108.509 135.542 108.378C138.368 107.075 140.701 105.475 142.249 103.747C143.788 102.028 144.634 100.079 144.216 98.1433C144.208 98.1062 144.197 98.0702 144.184 98.0354C143.555 95.4253 140.814 93.7629 137.365 92.9775C133.8 92.1653 129.179 92.2053 124.334 93.2524C117.93 94.6368 112.581 97.4666 109.935 100.652L109.935 100.652C109.132 101.62 109.916 103.083 111.169 102.953Z" stroke="#7000FF" stroke-width="1.5" stroke-linejoin="round"/>
</g>
<path d="M139.898 97.4415L100.138 109.291C99.0861 110.001 104.604 108.846 108.04 109.03C112.065 109.245 115.786 113.626 121.676 111.87C116.063 107.658 123.245 105.744 128.896 103.437C131.118 102.53 139.898 97.4415 139.898 97.4415Z" fill="#7000FF" style="mix-blend-mode:darken"/>
<path d="M111.624 98.851L109.186 102.634C109.186 102.634 117.305 103.901 123.196 102.145C117.583 97.9328 124.765 96.0187 130.416 93.7121C132.638 92.8051 118.452 91.9496 111.624 98.851Z" fill="#7000FF" style="mix-blend-mode:darken"/>
</g>
<defs>
<filter id="filter0_d_824_6147" x="5.89844" y="101.031" width="46.0625" height="23.5156" filterUnits="userSpaceOnUse" color-interpolation-filters="sRGB">
<feFlood flood-opacity="0" result="BackgroundImageFix"/>
<feColorMatrix in="SourceAlpha" type="matrix" values="0 0 0 0 0 0 0 0 0 0 0 0 0 0 0 0 0 0 127 0" result="hardAlpha"/>
<feOffset dy="2"/>
<feComposite in2="hardAlpha" operator="out"/>
<feColorMatrix type="matrix" values="0 0 0 0 0.0980392 0 0 0 0 0.172549 0 0 0 0 0.25098 0 0 0 1 0"/>
<feBlend mode="normal" in2="BackgroundImageFix" result="effect1_dropShadow_824_6147"/>
<feBlend mode="normal" in="SourceGraphic" in2="effect1_dropShadow_824_6147" result="shape"/>
</filter>
<filter id="filter1_d_824_6147" x="59.7695" y="67.7344" width="47.6328" height="21.4766" filterUnits="userSpaceOnUse" color-interpolation-filters="sRGB">
<feFlood flood-opacity="0" result="BackgroundImageFix"/>
<feColorMatrix in="SourceAlpha" type="matrix" values="0 0 0 0 0 0 0 0 0 0 0 0 0 0 0 0 0 0 127 0" result="hardAlpha"/>
<feOffset dy="2"/>
<feComposite in2="hardAlpha" operator="out"/>
<feColorMatrix type="matrix" values="0 0 0 0 0.0980392 0 0 0 0 0.172549 0 0 0 0 0.25098 0 0 0 1 0"/>
<feBlend mode="normal" in2="BackgroundImageFix" result="effect1_dropShadow_824_6147"/>
<feBlend mode="normal" in="SourceGraphic" in2="effect1_dropShadow_824_6147" result="shape"/>
</filter>
<filter id="filter2_d_824_6147" x="98.3984" y="91.6621" width="46.6758" height="22.7422" filterUnits="userSpaceOnUse" color-interpolation-filters="sRGB">
<feFlood flood-opacity="0" result="BackgroundImageFix"/>
<feColorMatrix in="SourceAlpha" type="matrix" values="0 0 0 0 0 0 0 0 0 0 0 0 0 0 0 0 0 0 127 0" result="hardAlpha"/>
<feOffset dy="2"/>
<feComposite in2="hardAlpha" operator="out"/>
<feColorMatrix type="matrix" values="0 0 0 0 0.0980392 0 0 0 0 0.172549 0 0 0 0 0.25098 0 0 0 1 0"/>
<feBlend mode="normal" in2="BackgroundImageFix" result="effect1_dropShadow_824_6147"/>
<feBlend mode="normal" in="SourceGraphic" in2="effect1_dropShadow_824_6147" result="shape"/>
</filter>
<filter id="filter3_d_824_6147" x="5.89844" y="101.031" width="46.0625" height="23.5156" filterUnits="userSpaceOnUse" color-interpolation-filters="sRGB">
<feFlood flood-opacity="0" result="BackgroundImageFix"/>
<feColorMatrix in="SourceAlpha" type="matrix" values="0 0 0 0 0 0 0 0 0 0 0 0 0 0 0 0 0 0 127 0" result="hardAlpha"/>
<feOffset dy="2"/>
<feComposite in2="hardAlpha" operator="out"/>
<feColorMatrix type="matrix" values="0 0 0 0 0.439216 0 0 0 0 0 0 0 0 0 1 0 0 0 1 0"/>
<feBlend mode="normal" in2="BackgroundImageFix" result="effect1_dropShadow_824_6147"/>
<feBlend mode="normal" in="SourceGraphic" in2="effect1_dropShadow_824_6147" result="shape"/>
</filter>
<filter id="filter4_d_824_6147" x="59.7695" y="67.7344" width="47.6328" height="21.4766" filterUnits="userSpaceOnUse" color-interpolation-filters="sRGB">
<feFlood flood-opacity="0" result="BackgroundImageFix"/>
<feColorMatrix in="SourceAlpha" type="matrix" values="0 0 0 0 0 0 0 0 0 0 0 0 0 0 0 0 0 0 127 0" result="hardAlpha"/>
<feOffset dy="2"/>
<feComposite in2="hardAlpha" operator="out"/>
<feColorMatrix type="matrix" values="0 0 0 0 0.439216 0 0 0 0 0 0 0 0 0 1 0 0 0 1 0"/>
<feBlend mode="normal" in2="BackgroundImageFix" result="effect1_dropShadow_824_6147"/>
<feBlend mode="normal" in="SourceGraphic" in2="effect1_dropShadow_824_6147" result="shape"/>
</filter>
<filter id="filter5_d_824_6147" x="98.3984" y="91.6621" width="46.6758" height="22.7422" filterUnits="userSpaceOnUse" color-interpolation-filters="sRGB">
<feFlood flood-opacity="0" result="BackgroundImageFix"/>
<feColorMatrix in="SourceAlpha" type="matrix" values="0 0 0 0 0 0 0 0 0 0 0 0 0 0 0 0 0 0 127 0" result="hardAlpha"/>
<feOffset dy="2"/>
<feComposite in2="hardAlpha" operator="out"/>
<feColorMatrix type="matrix" values="0 0 0 0 0.439216 0 0 0 0 0 0 0 0 0 1 0 0 0 1 0"/>
<feBlend mode="normal" in2="BackgroundImageFix" result="effect1_dropShadow_824_6147"/>
<feBlend mode="normal" in="SourceGraphic" in2="effect1_dropShadow_824_6147" result="shape"/>
</filter>
</defs>
</svg>
