<svg width="108" height="95" viewBox="0 0 108 95" fill="none" xmlns="http://www.w3.org/2000/svg">
<path fill-rule="evenodd" clip-rule="evenodd" d="M31.3158 78.6464C23.6705 74.4108 16.9872 67.2073 7.49822 55.4996C-3.94683 41.3784 -0.0926018 42.1218 9.36415 43.9458C15.1525 45.0622 23.0397 46.5834 30.8024 45.3487C45.3128 43.0406 70.0659 40.6693 86.9571 39.0512C93.8654 38.3894 99.4586 37.8536 102.498 37.4996C109.478 36.6867 107.816 39.4265 105.045 43.9927C103.659 46.2767 101.996 49.0177 100.998 51.9996C98.0063 60.9428 95.4835 68.341 89.9983 71.9996C88.7536 72.8298 87.9527 73.7336 87.1204 74.673C86.9913 74.8186 86.8615 74.9651 86.7292 75.1123L91.8719 79.9693L98.4982 74.9996C99.6028 74.1712 101.169 74.395 101.998 75.4996C102.826 76.6042 102.602 78.1712 101.498 78.9996L100.557 79.7053L101.587 79.5336C102.949 79.3066 104.237 80.2267 104.464 81.5886C104.691 82.9505 103.771 84.2386 102.409 84.4656L99.2602 84.9904L100.986 85.6764C102.269 86.1863 102.896 87.6398 102.386 88.9229C101.876 90.206 100.422 90.8328 99.1394 90.3228L90.8129 87.0136L89.4982 87.9996C88.3936 88.828 86.8266 88.6042 85.9982 87.4996C85.1698 86.395 85.3936 84.828 86.4982 83.9996L87.8131 83.0135L82.8526 78.3286C79.2712 80.4028 72.787 82.4184 58.7245 83.9996C49.2324 83.9996 42.2173 83.1683 36.1508 80.8826L30.0899 86.9434L31.4982 87.9996C32.6028 88.828 32.8266 90.395 31.9982 91.4996C31.1698 92.6042 29.6028 92.828 28.4982 91.9996L27.1835 91.0136L18.857 94.3228C17.5739 94.8328 16.1204 94.206 15.6104 92.9229C15.1005 91.6398 15.7273 90.1863 17.0103 89.6764L18.7362 88.9904L15.5872 88.4656C14.2253 88.2386 13.3052 86.9505 13.5322 85.5886C13.7592 84.2267 15.0473 83.3066 16.4092 83.5336L17.4391 83.7053L16.4982 82.9996C15.3936 82.1712 15.1698 80.6042 15.9982 79.4996C16.8266 78.395 18.3936 78.1712 19.4982 78.9996L26.0493 83.9129L31.3158 78.6464Z" fill="#171c4c"/>
<path fill-rule="evenodd" clip-rule="evenodd" d="M8.09628 33.1465C6.11537 32.9154 4.61489 32.7404 3.99025 33.1488C1.34281 33.5331 2.09932 36.0525 3.50984 38.1241C5.32491 40.7988 6.50632 42.0699 7.62717 43.2757C9.21792 44.9871 10.6867 46.5673 13.6718 51.8427C17.2861 58.2335 20.5383 62.5155 21.901 64.2141C23.943 67.5121 26.735 70.4198 30.0791 72.8379L26.5257 75.2691L19.5001 70.0001C18.3956 69.1717 16.8286 69.3955 16.0001 70.5001C15.1717 71.6047 15.3956 73.1717 16.5001 74.0001L17.441 74.7058L16.4111 74.534C15.0492 74.307 13.7611 75.2272 13.5341 76.5891C13.3072 77.951 14.2272 79.2391 15.5891 79.4661L18.7382 79.9909L17.0123 80.6769C15.7292 81.1868 15.1024 82.6403 15.6124 83.9234C16.1223 85.2065 17.5759 85.8332 18.8589 85.3232L27.1854 82.0141L28.5001 83.0001C29.6047 83.8285 31.1717 83.6047 32.0001 82.5001C32.8286 81.3955 32.6047 79.8285 31.5001 79.0001L30.7498 78.4374L34.7399 75.7073C43.0334 80.0292 53.5619 81.7956 64.2461 79.9635C71.7623 78.6747 78.332 75.7806 83.471 71.8514L87.2504 74.4374L86.5001 75.0001C85.3956 75.8285 85.1717 77.3955 86.0001 78.5001C86.8286 79.6047 88.3956 79.8285 89.5001 79.0001L90.8148 78.0141L99.1413 81.3232C100.424 81.8332 101.878 81.2065 102.388 79.9234C102.898 78.6403 102.271 77.1868 100.988 76.6769L99.2621 75.9909L102.411 75.4661C103.773 75.2391 104.693 73.951 104.466 72.5891C104.239 71.2272 102.951 70.307 101.589 70.534L100.559 70.7058L101.5 70.0001C102.605 69.1717 102.829 67.6047 102 66.5001C101.172 65.3955 99.6047 65.1717 98.5001 66.0001L91.4746 71.2691L87.3305 68.4338C92.1021 63.5269 94.9736 57.5493 95.2954 51.266C95.7469 49.4501 96.2042 47.3843 96.6234 45.098C97.6946 39.2629 98.5635 37.3601 99.5044 35.2994C100.167 33.8473 100.866 32.3168 101.697 29.277C102.345 26.9213 102.218 24.315 99.5647 24.6622C98.8316 24.4413 97.4597 25.0127 95.6486 25.767C95.1316 25.9823 94.5784 26.2128 93.9944 26.4437C93.9944 26.4437 93.9906 26.3862 93.9729 26.2959C93.9632 26.0288 93.8293 25.727 93.4907 25.3965L93.4923 25.4064C93.5134 25.4345 93.5328 25.4622 93.5505 25.4896C93.2118 25.1814 92.6172 25.0244 91.5754 25.4873C89.789 26.2805 87.0004 27.2171 83.3058 27.6759C78.764 24.4567 72.936 22.1914 66.4637 21.1872C56.5924 15.9632 54.4751 14.794 53.2403 11.2104C52.8934 10.2027 52.3567 9.90875 51.8751 9.88747C51.9094 9.88104 51.9451 9.87551 51.9822 9.87093L51.9913 9.86537C51.4918 9.85894 51.1566 9.97059 50.9351 10.1426C50.8504 10.1909 50.8015 10.2267 50.8015 10.2267C50.5843 9.68106 50.3879 9.15681 50.2042 8.66648C49.5607 6.94842 49.0729 5.64617 48.3893 5.30202C46.8366 3.29042 44.6536 4.94551 43.2066 6.95256C41.3357 9.53886 40.5874 11.0292 39.8775 12.4431C38.8699 14.4498 37.9396 16.3026 33.9871 20.9162C31.4888 23.831 29.5202 26.4293 28.0531 28.5057C20.5303 31.0086 14.8219 32.1911 11.8862 31.7817C10.7368 31.6212 10.2226 31.9313 10.0035 32.3166C10.0112 32.2857 10.0204 32.2539 10.0311 32.2214L10.0292 32.2115C9.81749 32.6181 9.79139 32.9422 9.87226 33.1996C9.88575 33.2902 9.90141 33.3459 9.90141 33.3459C9.26676 33.2831 8.66182 33.2124 8.09628 33.1465Z" fill="#171c4c"/>
<mask id="mask0_816_7752" style="mask-type:luminance" maskUnits="userSpaceOnUse" x="0" y="3" width="108" height="88">
<path d="M107.227 3.38867H0.226562V90.3887H107.227V3.38867Z" fill="white"/>
<path fill-rule="evenodd" clip-rule="evenodd" d="M8.09628 35.1465C6.11537 34.9154 4.61489 34.7404 3.99025 35.1488C1.34281 35.5331 2.09932 38.0525 3.50984 40.1241C5.32491 42.7988 6.50632 44.0699 7.62717 45.2757C9.21792 46.9871 10.6867 48.5673 13.6718 53.8427C17.2861 60.2335 20.5383 64.5155 21.901 66.2141C23.943 69.5121 26.735 72.4198 30.0791 74.8379L26.5257 77.2691L19.5001 72.0001C18.3956 71.1717 16.8286 71.3955 16.0001 72.5001C15.1717 73.6047 15.3956 75.1717 16.5001 76.0001L17.441 76.7058L16.4111 76.534C15.0492 76.307 13.7611 77.2272 13.5341 78.5891C13.3072 79.951 14.2272 81.2391 15.5891 81.4661L18.7382 81.9909L17.0123 82.6769C15.7292 83.1868 15.1024 84.6403 15.6124 85.9234C16.1223 87.2065 17.5759 87.8332 18.8589 87.3232L27.1854 84.0141L28.5001 85.0001C29.6047 85.8285 31.1717 85.6047 32.0001 84.5001C32.8286 83.3955 32.6047 81.8285 31.5001 81.0001L30.7498 80.4374L34.7399 77.7073C43.0334 82.0292 53.5619 83.7956 64.2461 81.9635C71.7623 80.6747 78.332 77.7806 83.471 73.8514L87.2504 76.4374L86.5001 77.0001C85.3956 77.8285 85.1717 79.3955 86.0001 80.5001C86.8286 81.6047 88.3956 81.8285 89.5001 81.0001L90.8148 80.0141L99.1413 83.3232C100.424 83.8332 101.878 83.2065 102.388 81.9234C102.898 80.6403 102.271 79.1868 100.988 78.6769L99.2621 77.9909L102.411 77.4661C103.773 77.2391 104.693 75.951 104.466 74.5891C104.239 73.2272 102.951 72.307 101.589 72.534L100.559 72.7058L101.5 72.0001C102.605 71.1717 102.829 69.6047 102 68.5001C101.172 67.3955 99.6047 67.1717 98.5001 68.0001L91.4746 73.2691L87.3305 70.4338C92.1021 65.5269 94.9736 59.5493 95.2954 53.266C95.7469 51.4501 96.2042 49.3843 96.6234 47.098C97.6946 41.2629 98.5635 39.3601 99.5044 37.2994C100.167 35.8473 100.866 34.3168 101.697 31.277C102.345 28.9213 102.218 26.315 99.5647 26.6622C98.8316 26.4413 97.4597 27.0127 95.6486 27.767C95.1316 27.9823 94.5784 28.2128 93.9944 28.4437C93.9944 28.4437 93.9906 28.3862 93.9729 28.2959C93.9632 28.0288 93.8293 27.727 93.4907 27.3965L93.4923 27.4064C93.5134 27.4345 93.5328 27.4622 93.5505 27.4896C93.2118 27.1814 92.6172 27.0244 91.5754 27.4873C89.789 28.2805 87.0004 29.2171 83.3058 29.6759C78.764 26.4567 72.936 24.1914 66.4637 23.1872C56.5924 17.9632 54.4751 16.794 53.2403 13.2104C52.8934 12.2027 52.3567 11.9088 51.8751 11.8875C51.9094 11.881 51.9451 11.8755 51.9822 11.8709L51.9913 11.8654C51.4918 11.8589 51.1566 11.9706 50.9351 12.1426C50.8504 12.1909 50.8015 12.2267 50.8015 12.2267C50.5843 11.6811 50.3879 11.1568 50.2042 10.6665C49.5607 8.94842 49.0729 7.64617 48.3893 7.30202C46.8366 5.29042 44.6536 6.94551 43.2066 8.95256C41.3357 11.5389 40.5874 13.0292 39.8775 14.4431C38.8699 16.4498 37.9396 18.3026 33.9871 22.9162C31.4888 25.831 29.5202 28.4293 28.0531 30.5057C20.5303 33.0086 14.8219 34.1911 11.8862 33.7817C10.7368 33.6212 10.2226 33.9313 10.0035 34.3166C10.0112 34.2857 10.0204 34.2539 10.0311 34.2214L10.0292 34.2115C9.81749 34.6181 9.79139 34.9422 9.87226 35.1996C9.88575 35.2902 9.90141 35.3459 9.90141 35.3459C9.26676 35.2831 8.66182 35.2124 8.09628 35.1465Z" fill="#171c4c"/>
</mask>
<g mask="url(#mask0_816_7752)">
<path d="M3.99018 35.149L4.27754 37.1282C4.56556 37.0864 4.84098 36.9822 5.08458 36.823L3.99018 35.149ZM8.09621 35.1467L8.40033 33.17C8.37626 33.1663 8.35213 33.163 8.32794 33.1602L8.09621 35.1467ZM3.50977 40.1243L5.1647 39.0013L5.16295 38.9987L3.50977 40.1243ZM21.9009 66.2143L23.6014 65.1614C23.5586 65.0924 23.5117 65.026 23.4609 64.9627L21.9009 66.2143ZM30.079 74.8381L31.2084 76.4887C31.7456 76.1211 32.0704 75.5151 32.0788 74.8641C32.0873 74.2132 31.7784 73.5989 31.2509 73.2174L30.079 74.8381ZM26.5256 77.2694L25.3256 78.8694C26.011 79.3835 26.9478 79.4039 27.6549 78.92L26.5256 77.2694ZM17.4409 76.706L17.1121 78.6787C18.0216 78.8303 18.9169 78.3405 19.2797 77.4927C19.6424 76.645 19.3786 75.6592 18.6409 75.1059L17.4409 76.706ZM18.7381 81.9911L19.4767 83.8497C20.3111 83.5181 20.8222 82.6711 20.7267 81.7784C20.6312 80.8856 19.9525 80.1659 19.0669 80.0183L18.7381 81.9911ZM27.1853 84.0143L28.3853 82.4143C27.8282 81.9964 27.0938 81.8985 26.4467 82.1557L27.1853 84.0143ZM30.7497 80.4376L29.6204 78.787C29.0882 79.1511 28.7642 79.7494 28.7502 80.3941C28.7362 81.0388 29.0339 81.6507 29.5497 82.0376L30.7497 80.4376ZM34.7398 77.7075L35.6641 75.9339C35.0093 75.5927 34.2198 75.64 33.6104 76.0569L34.7398 77.7075ZM83.4709 73.8516L84.6003 72.201C83.8875 71.7133 82.9422 71.7383 82.2561 72.2628L83.4709 73.8516ZM87.2503 76.4376L88.4503 78.0375C88.9662 77.6507 89.2639 77.0388 89.2498 76.3941C89.2358 75.7494 88.9119 75.1511 88.3797 74.7869L87.2503 76.4376ZM90.8147 80.0143L91.5534 78.1557C90.9062 77.8985 90.1718 77.9964 89.6147 78.4143L90.8147 80.0143ZM99.262 77.9911L98.9332 76.0183C98.0476 76.1659 97.3688 76.8856 97.2733 77.7784C97.1778 78.6711 97.6889 79.5181 98.5233 79.8497L99.262 77.9911ZM100.559 72.706L99.3591 71.1059C98.6215 71.6592 98.3576 72.645 98.7204 73.4927C99.0831 74.3405 99.9784 74.8303 100.888 74.6787L100.559 72.706ZM91.4745 73.2694L90.3451 74.92C91.0523 75.4039 91.989 75.3835 92.6745 74.8694L91.4745 73.2694ZM87.3304 70.434L85.8965 69.0397C85.4852 69.4627 85.2816 70.0458 85.3403 70.633C85.399 71.2201 85.714 71.7514 86.201 72.0846L87.3304 70.434ZM95.2953 53.2662L93.3544 52.7835C93.3234 52.9082 93.3045 53.0356 93.2979 53.1639L95.2953 53.2662ZM101.697 31.2772L99.7685 30.7469L99.7677 30.75L101.697 31.2772ZM99.5646 26.6624L98.9874 28.5773C99.2583 28.659 99.5434 28.6822 99.824 28.6455L99.5646 26.6624ZM95.6485 27.7672L96.4083 29.6173L96.4174 29.6135L95.6485 27.7672ZM95.6485 27.7672L94.8883 25.9173L94.8792 25.9211L95.6485 27.7672ZM93.9943 28.4439L91.9987 28.5763C92.041 29.2138 92.3853 29.7927 92.9252 30.1342C93.4652 30.4757 94.1358 30.5387 94.7299 30.3037L93.9943 28.4439ZM93.9728 28.2961L91.9741 28.3682C91.9779 28.4733 91.9899 28.5779 92.0102 28.681L93.9728 28.2961ZM93.4906 27.3967L94.8877 25.9655C94.2709 25.3635 93.3379 25.2243 92.5723 25.62C91.8066 26.0158 91.3806 26.8575 91.5151 27.7088L93.4906 27.3967ZM93.4922 27.4066L91.5167 27.7187C91.5677 28.0417 91.6972 28.3474 91.8938 28.6088L93.4922 27.4066ZM93.5504 27.4898L92.204 28.9688C92.947 29.6452 94.0764 29.6653 94.8431 29.0159C95.6097 28.3665 95.7756 27.2491 95.2306 26.405L93.5504 27.4898ZM83.3057 29.6761L82.1491 31.3078C82.5563 31.5964 83.0568 31.7223 83.5521 31.6608L83.3057 29.6761ZM66.4636 23.1874L65.5281 24.9551C65.7247 25.0591 65.9372 25.1296 66.157 25.1637L66.4636 23.1874ZM51.875 11.8877L51.5062 9.92203C50.5077 10.1094 49.8083 11.0155 49.88 12.0289C49.9517 13.0423 50.7718 13.8409 51.7867 13.8858L51.875 11.8877ZM51.9821 11.8712L52.2268 13.8562C52.5117 13.821 52.7857 13.725 53.0302 13.5746L51.9821 11.8712ZM51.9912 11.8656L53.0392 13.569C53.7973 13.1026 54.1559 12.1914 53.919 11.3334C53.6822 10.4755 52.9069 9.87725 52.0169 9.8658L51.9912 11.8656ZM50.935 12.1428L51.9263 13.8798C52.0083 13.833 52.0868 13.7805 52.1614 13.7226L50.935 12.1428ZM50.8014 12.2269L48.9433 12.9669C49.1723 13.5418 49.6546 13.9784 50.2494 14.1492C50.8443 14.3201 51.4847 14.2058 51.9839 13.8399L50.8014 12.2269ZM50.2041 10.6667L52.077 9.96519L52.0764 9.96353L50.2041 10.6667ZM50.2041 10.6667L48.3175 11.3305C48.322 11.3435 48.3267 11.3565 48.3316 11.3693L50.2041 10.6667ZM50.2041 10.6667L52.0902 10.0015C52.0858 9.98908 52.0816 9.97752 52.077 9.96519L50.2041 10.6667ZM48.3892 7.30228L46.8059 8.5243C46.9888 8.76123 47.2225 8.9541 47.4899 9.08869L48.3892 7.30228ZM43.2065 8.95282L44.827 10.125L44.8288 10.1225L43.2065 8.95282ZM28.053 30.5059L28.6844 32.4036C29.0892 32.2689 29.4403 32.0084 29.6865 31.66L28.053 30.5059ZM10.0034 34.3168L8.06204 33.8364C7.82207 34.806 8.3343 35.804 9.262 36.1743C10.1897 36.5446 11.2484 36.1737 11.7421 35.3054L10.0034 34.3168ZM10.031 34.2216L11.9307 34.847C12.036 34.5271 12.0588 34.1857 11.997 33.8546L10.031 34.2216ZM10.0291 34.2117L11.9952 33.8447C11.8386 33.0061 11.1674 32.3591 10.3236 32.2335C9.47986 32.1079 8.64928 32.5313 8.25527 33.288L10.0291 34.2117ZM9.87219 35.1998L11.8504 34.9054C11.835 34.8021 11.8115 34.7 11.7802 34.6003L9.87219 35.1998ZM9.90134 35.3461L9.70429 37.3364C10.362 37.4015 11.0094 37.1374 11.434 36.6309C11.8586 36.1244 12.0055 35.4408 11.8266 34.8046L9.90134 35.3461ZM8.09621 35.1467L8.32794 33.1602C8.32188 33.1595 8.31607 33.1588 8.31 33.1582L8.09621 35.1467ZM8.09621 35.1467L7.79213 37.1235C7.82223 37.1281 7.85243 37.132 7.88271 37.1353L8.09621 35.1467ZM5.08458 36.823C4.89809 36.9449 4.7863 36.9401 4.90208 36.9234C5.00075 36.9092 5.18053 36.8981 5.47299 36.9071C6.06942 36.9255 6.84344 37.0141 7.86448 37.1333L8.32794 33.1602C7.36807 33.0482 6.4014 32.9338 5.5962 32.909C5.18784 32.8964 4.75158 32.9037 4.33132 32.9643C3.92818 33.0224 3.3946 33.1489 2.89579 33.475L5.08458 36.823ZM5.16295 38.9987C4.86548 38.5618 4.62271 38.13 4.45669 37.7413C4.28443 37.3381 4.23195 37.0679 4.22688 36.9303C4.22265 36.8153 4.25185 36.9447 4.11186 37.1064C3.98119 37.2573 3.92347 37.1796 4.27754 37.1282L3.70283 33.1697C2.73318 33.3105 1.77723 33.6919 1.08789 34.488C0.389232 35.2949 0.199322 36.2557 0.229597 37.0775C0.285461 38.594 1.09451 40.1307 1.85659 41.2499L5.16295 38.9987ZM9.09202 43.9143C8.00551 42.7454 6.89961 41.5579 5.1647 39.0013L1.85485 41.2474C3.75008 44.0402 5.00699 45.3947 6.16219 46.6376L9.09202 43.9143ZM15.4126 52.8583C12.3436 47.4346 10.7788 45.7291 9.09202 43.9143L6.16219 46.6376C7.65684 48.2456 9.02991 49.7008 11.931 54.8278L15.4126 52.8583ZM23.4609 64.9627C22.1512 63.3302 18.9636 59.1373 15.4126 52.8583L11.931 54.8278C15.6085 61.3305 18.9252 65.7013 20.3409 67.4658L23.4609 64.9627ZM31.2509 73.2174C28.0938 70.9345 25.4908 68.213 23.6014 65.1614L20.2005 67.2671C22.3951 70.8116 25.3761 73.9056 28.9071 76.4588L31.2509 73.2174ZM27.6549 78.92L31.2084 76.4887L28.9496 73.1875L25.3962 75.6188L27.6549 78.92ZM18.3 73.6003L25.3256 78.8694L27.7256 75.6694L20.7 70.4003L18.3 73.6003ZM17.6 73.7003C17.7657 73.4794 18.0791 73.4346 18.3 73.6003L20.7 70.4003C18.7118 68.9091 15.8912 69.3121 14.4 71.3003L17.6 73.7003ZM17.7 74.4003C17.4791 74.2346 17.4343 73.9212 17.6 73.7003L14.4 71.3003C12.9089 73.2885 13.3118 76.1091 15.3 77.6003L17.7 74.4003ZM18.6409 75.1059L17.7 74.4003L15.3 77.6003L16.2409 78.306L18.6409 75.1059ZM16.0822 78.5071L17.1121 78.6787L17.7697 74.7332L16.7398 74.5615L16.0822 78.5071ZM15.5068 78.9181C15.5522 78.6457 15.8098 78.4617 16.0822 78.5071L16.7398 74.5615C14.2884 74.1529 11.9698 75.809 11.5613 78.2605L15.5068 78.9181ZM15.9178 79.4935C15.6454 79.4481 15.4614 79.1905 15.5068 78.9181L11.5613 78.2605C11.1527 80.712 12.8088 83.0305 15.2602 83.4391L15.9178 79.4935ZM19.0669 80.0183L15.9178 79.4935L15.2602 83.4391L18.4093 83.9639L19.0669 80.0183ZM17.7508 84.5356L19.4767 83.8497L17.9994 80.1325L16.2735 80.8185L17.7508 84.5356ZM17.4709 85.185C17.3689 84.9283 17.4942 84.6376 17.7508 84.5356L16.2735 80.8185C13.9639 81.7364 12.8358 84.3527 13.7537 86.6623L17.4709 85.185ZM18.1202 85.4649C17.8636 85.5669 17.5729 85.4416 17.4709 85.185L13.7537 86.6623C14.6716 88.9719 17.288 90.1 19.5975 89.1821L18.1202 85.4649ZM26.4467 82.1557L18.1202 85.4649L19.5975 89.1821L27.924 85.8729L26.4467 82.1557ZM29.7 83.4003L28.3853 82.4143L25.9853 85.6143L27.3 86.6003L29.7 83.4003ZM30.4 83.3003C30.2343 83.5212 29.9209 83.566 29.7 83.4003L27.3 86.6003C29.2882 88.0915 32.1089 87.6885 33.6 85.7003L30.4 83.3003ZM30.3 82.6003C30.5209 82.766 30.5657 83.0794 30.4 83.3003L33.6 85.7003C35.0912 83.7121 34.6882 80.8915 32.7 79.4003L30.3 82.6003ZM29.5497 82.0376L30.3 82.6003L32.7 79.4003L31.9497 78.8376L29.5497 82.0376ZM33.6104 76.0569L29.6204 78.787L31.8791 82.0882L35.8692 79.3581L33.6104 76.0569ZM63.908 79.9925C53.6381 81.7535 43.555 80.0459 35.6641 75.9339L33.8156 79.4811C42.5117 84.0128 53.4854 85.838 64.584 83.9349L63.908 79.9925ZM82.2561 72.2628C77.3913 75.9823 71.1273 78.7546 63.908 79.9925L64.584 83.9349C72.3971 82.5952 79.2725 79.5792 84.6857 75.4404L82.2561 72.2628ZM88.3797 74.7869L84.6003 72.201L82.3415 75.5022L86.121 78.0882L88.3797 74.7869ZM87.7 78.6003L88.4503 78.0375L86.0503 74.8376L85.3 75.4003L87.7 78.6003ZM87.6 79.3003C87.4343 79.0794 87.4791 78.766 87.7 78.6003L85.3 75.4003C83.3118 76.8915 82.9089 79.7121 84.4 81.7003L87.6 79.3003ZM88.3 79.4003C88.0791 79.566 87.7657 79.5212 87.6 79.3003L84.4 81.7003C85.8912 83.6885 88.7118 84.0915 90.7 82.6003L88.3 79.4003ZM89.6147 78.4143L88.3 79.4003L90.7 82.6003L92.0147 81.6143L89.6147 78.4143ZM99.8799 81.4649L91.5534 78.1557L90.076 81.8729L98.4025 85.1821L99.8799 81.4649ZM100.529 81.1849C100.427 81.4415 100.137 81.5669 99.8799 81.4649L98.4025 85.1821C100.712 86.1 103.329 84.9719 104.246 82.6623L100.529 81.1849ZM100.249 80.5356C100.506 80.6376 100.631 80.9283 100.529 81.1849L104.246 82.6623C105.164 80.3527 104.036 77.7364 101.727 76.8185L100.249 80.5356ZM98.5233 79.8497L100.249 80.5356L101.727 76.8185L100.001 76.1325L98.5233 79.8497ZM102.082 75.4935L98.9332 76.0183L99.5908 79.9639L102.74 79.4391L102.082 75.4935ZM102.493 74.9181C102.539 75.1905 102.355 75.4481 102.082 75.4935L102.74 79.4391C105.191 79.0305 106.847 76.712 106.439 74.2605L102.493 74.9181ZM101.918 74.5071C102.19 74.4617 102.448 74.6457 102.493 74.9181L106.439 74.2605C106.03 71.809 103.712 70.1529 101.26 70.5615L101.918 74.5071ZM100.888 74.6787L101.918 74.5071L101.26 70.5615L100.23 70.7332L100.888 74.6787ZM100.3 70.4003L99.3591 71.1059L101.759 74.306L102.7 73.6003L100.3 70.4003ZM100.4 69.7003C100.566 69.9212 100.521 70.2346 100.3 70.4003L102.7 73.6003C104.688 72.1091 105.091 69.2885 103.6 67.3003L100.4 69.7003ZM99.7 69.6003C99.9209 69.4346 100.234 69.4794 100.4 69.7003L103.6 67.3003C102.109 65.3121 99.2882 64.9091 97.3 66.4003L99.7 69.6003ZM92.6745 74.8694L99.7 69.6003L97.3 66.4003L90.2745 71.6694L92.6745 74.8694ZM86.201 72.0846L90.3451 74.92L92.6039 71.6188L88.4598 68.7834L86.201 72.0846ZM93.2979 53.1639C93.0047 58.8894 90.3844 64.4246 85.8965 69.0397L88.7642 71.8283C93.8196 66.6296 96.9423 60.2095 97.2927 53.3685L93.2979 53.1639ZM94.6561 46.737C94.245 48.9799 93.7965 51.0054 93.3544 52.7835L97.2362 53.7488C97.6971 51.8952 98.1633 49.7887 98.5905 47.4588L94.6561 46.737ZM97.685 36.4688C96.6815 38.6666 95.7596 40.7266 94.6561 46.737L98.5905 47.4588C99.6296 41.7992 100.445 40.0541 101.324 38.1303L97.685 36.4688ZM99.7677 30.75C98.9767 33.6444 98.3256 35.066 97.685 36.4688L101.324 38.1303C102.009 36.6291 102.756 34.9896 103.626 31.8045L99.7677 30.75ZM99.824 28.6455C100.172 28.6 100.178 28.6823 100.055 28.6058C99.9238 28.5245 99.9238 28.4372 99.9601 28.5533C100.003 28.6911 100.043 28.9603 100.015 29.3813C99.9876 29.7889 99.903 30.2579 99.7685 30.7469L103.625 31.8076C103.981 30.5154 104.234 28.8179 103.778 27.3592C103.532 26.5726 103.043 25.7516 102.162 25.2057C101.289 24.6646 100.284 24.5513 99.3051 24.6793L99.824 28.6455ZM96.4174 29.6135C97.3519 29.2243 98.0564 28.9327 98.6151 28.7556C98.8883 28.669 99.0614 28.6315 99.1596 28.6186C99.2709 28.6039 99.1797 28.6353 98.9874 28.5773L100.142 24.7475C99.5829 24.5791 99.0453 24.599 98.6367 24.6529C98.2148 24.7085 97.7943 24.8196 97.4065 24.9426C96.6432 25.1845 95.7558 25.5559 94.8792 25.9211L96.4174 29.6135ZM94.7299 30.3037C95.3331 30.0652 95.9023 29.8281 96.4174 29.6135L94.8792 25.9211C94.3602 26.1372 93.8234 26.3608 93.2587 26.5841L94.7299 30.3037ZM92.0102 28.681C92.0089 28.6746 92.0072 28.6645 92.0052 28.6489C92.0043 28.6409 92.0032 28.6311 92.0021 28.6193C92.0015 28.6133 92.001 28.6068 92.0004 28.5996C92.0001 28.5961 91.9998 28.5923 91.9995 28.5885C91.9994 28.5865 91.9993 28.5845 91.9991 28.5825C91.999 28.5815 91.999 28.5805 91.9989 28.5794C91.9989 28.5789 91.9988 28.5784 91.9988 28.5779C91.9989 28.5782 91.9988 28.5776 91.9988 28.5779C91.9988 28.5778 91.9987 28.5764 91.9987 28.5763C91.9987 28.5761 91.9987 28.5763 93.9943 28.4439C95.9899 28.3116 95.9899 28.3114 95.9899 28.3112C95.9899 28.3113 95.9899 28.3111 95.9899 28.3112C95.9899 28.3109 95.9898 28.3102 95.9898 28.31C95.9898 28.3094 95.9897 28.3089 95.9897 28.3084C95.9896 28.3073 95.9896 28.3062 95.9895 28.305C95.9893 28.3028 95.9892 28.3005 95.989 28.2981C95.9886 28.2933 95.9882 28.2883 95.9878 28.283C95.987 28.2723 95.986 28.2606 95.9848 28.2478C95.9824 28.2224 95.9793 28.1925 95.9751 28.1589C95.9669 28.092 95.9544 28.008 95.9354 27.9112L92.0102 28.681ZM92.0936 28.8279C92.1423 28.8755 92.1168 28.8634 92.0755 28.783C92.0303 28.6948 91.9807 28.5518 91.9741 28.3682L95.9715 28.224C95.9378 27.291 95.468 26.5321 94.8877 25.9655L92.0936 28.8279ZM95.4677 27.0946L95.4661 27.0847L91.5151 27.7088L91.5167 27.7187L95.4677 27.0946ZM95.2306 26.405C95.1855 26.3352 95.1386 26.2684 95.0906 26.2045L91.8938 28.6088C91.888 28.601 91.8798 28.5897 91.8702 28.5747L95.2306 26.405ZM92.387 29.3154C92.7168 29.1689 92.7985 29.2016 92.7028 29.1956C92.6493 29.1923 92.564 29.1779 92.4633 29.1351C92.3628 29.0923 92.2749 29.0333 92.204 28.9688L94.8967 26.0109C93.7578 24.9741 92.223 25.0112 90.7633 25.6597L92.387 29.3154ZM83.5521 31.6608C87.4543 31.1763 90.4327 30.1831 92.387 29.3154L90.7633 25.6597C89.1447 26.3784 86.5463 27.2583 83.0592 27.6913L83.5521 31.6608ZM66.157 25.1637C72.3701 26.1277 77.8963 28.2933 82.1491 31.3078L84.4622 28.0444C79.6316 24.6204 73.5017 22.2554 66.7703 21.211L66.157 25.1637ZM51.3492 13.8617C52.1101 16.0698 53.2133 17.5858 55.4376 19.2019C57.4993 20.6998 60.6553 22.3764 65.5281 24.9551L67.3991 21.4196C62.4006 18.7744 59.5624 17.2544 57.7888 15.9659C56.178 14.7955 55.6051 13.9346 55.1311 12.5591L51.3492 13.8617ZM51.7867 13.8858C51.7191 13.8828 51.6334 13.8692 51.5405 13.8344C51.4456 13.7988 51.3684 13.7504 51.3127 13.7031C51.2034 13.6102 51.2562 13.5918 51.3492 13.8617L55.1311 12.5591C54.8771 11.8214 54.4883 11.1526 53.9035 10.6555C53.2945 10.1377 52.603 9.91794 51.9633 9.88968L51.7867 13.8858ZM51.7374 9.88622C51.6609 9.89566 51.5837 9.90748 51.5062 9.92203L52.2438 13.8534C52.2348 13.8551 52.229 13.8559 52.2268 13.8562L51.7374 9.88622ZM50.9431 10.1622L50.934 10.1678L53.0302 13.5746L53.0392 13.569L50.9431 10.1622ZM52.1614 13.7226C52.0465 13.8118 51.9461 13.8498 51.8971 13.8635C51.8534 13.8757 51.8672 13.8642 51.9654 13.8655L52.0169 9.8658C51.2194 9.85553 50.3936 10.0312 49.7087 10.5629L52.1614 13.7226ZM50.8014 12.2269C51.9839 13.8399 51.984 13.8398 51.9839 13.8399C51.984 13.8398 51.9839 13.84 51.9839 13.8399C51.9837 13.84 51.9829 13.8406 51.9827 13.8408C51.9824 13.8411 51.982 13.8413 51.9816 13.8416C51.9808 13.8422 51.9801 13.8427 51.9794 13.8432C51.9779 13.8443 51.9765 13.8453 51.9751 13.8464C51.9723 13.8484 51.9696 13.8503 51.9671 13.8521C51.9621 13.8557 51.9576 13.8589 51.9536 13.8616C51.9456 13.8672 51.9396 13.8712 51.9353 13.874C51.927 13.8795 51.9244 13.8809 51.9263 13.8798L49.9438 10.4057C49.8609 10.453 49.7915 10.4965 49.7376 10.5319C49.7105 10.5497 49.6869 10.5658 49.6672 10.5795C49.6573 10.5864 49.6483 10.5928 49.6403 10.5985C49.6363 10.6014 49.6325 10.6041 49.6289 10.6067C49.6271 10.608 49.6254 10.6092 49.6238 10.6104C49.6229 10.611 49.6221 10.6116 49.6213 10.6122C49.6209 10.6125 49.6205 10.6128 49.6201 10.6131C49.6202 10.6129 49.6199 10.6132 49.6201 10.6131C49.62 10.6131 49.6193 10.6137 49.6193 10.6137C49.6191 10.6138 49.619 10.6139 50.8014 12.2269ZM48.3312 11.3683C48.514 11.8565 48.7173 12.3993 48.9433 12.9669L52.6595 11.487C52.451 10.9633 52.2615 10.4577 52.077 9.96519L48.3312 11.3683ZM47.4899 9.08869C47.3008 8.99351 47.2418 8.89429 47.286 8.95166C47.3266 9.00435 47.4049 9.12467 47.518 9.35393C47.7516 9.82737 47.9969 10.4759 48.3312 11.3683L52.077 9.96519C51.7677 9.13947 51.4469 8.27664 51.105 7.58382C50.8095 6.98499 50.2733 6.01164 49.2885 5.51587L47.4899 9.08869ZM44.8288 10.1225C45.4742 9.22731 46.1301 8.64583 46.5771 8.44523C46.7654 8.36073 46.7869 8.40179 46.7051 8.38411C46.6015 8.3617 46.6457 8.31675 46.8059 8.5243L49.9724 6.08026C49.3563 5.28201 48.5454 4.6896 47.5506 4.47447C46.5776 4.26408 45.6718 4.46718 44.9393 4.79589C43.5449 5.42169 42.3858 6.67127 41.5842 7.78317L44.8288 10.1225ZM41.6647 15.3408C42.3493 13.9774 43.043 12.5911 44.827 10.125L41.586 7.7806C39.6282 10.4871 38.8254 12.0814 38.09 13.5459L41.6647 15.3408ZM35.5055 24.218C39.5689 19.4749 40.5882 17.4849 41.6647 15.3408L38.09 13.5459C37.1515 15.4152 36.3098 17.1311 32.4682 21.6152L35.5055 24.218ZM29.6865 31.66C31.1209 29.6298 33.0514 27.0813 35.5055 24.218L32.4682 21.6152C29.9256 24.5815 27.9194 27.2292 26.4196 29.3518L29.6865 31.66ZM11.6094 35.7627C13.4262 36.0161 15.862 35.7637 18.6488 35.1957C21.4868 34.6173 24.8759 33.6707 28.6844 32.4036L27.4217 28.6082C23.7073 29.844 20.4808 30.7401 17.8499 31.2763C15.1679 31.8229 13.2813 31.9571 12.1623 31.8011L11.6094 35.7627ZM11.7421 35.3054C11.6855 35.4048 11.6071 35.5027 11.5083 35.585C11.4097 35.667 11.3187 35.7105 11.2609 35.7309C11.1606 35.7662 11.2294 35.7096 11.6094 35.7627L12.1623 31.8011C10.6119 31.5846 9.06091 31.9282 8.26484 33.3283L11.7421 35.3054ZM8.13132 33.5961C8.10573 33.6739 8.08243 33.754 8.06204 33.8364L11.9449 34.7973C11.9398 34.8177 11.9348 34.8343 11.9307 34.847L8.13132 33.5961ZM8.06313 34.5787L8.06497 34.5886L11.997 33.8546L11.9952 33.8447L8.06313 34.5787ZM11.7802 34.6003C11.8335 34.77 11.8375 34.9249 11.8217 35.0381C11.8071 35.1425 11.7808 35.1782 11.803 35.1354L8.25527 33.288C7.87065 34.0266 7.68325 34.9051 7.96414 35.7992L11.7802 34.6003ZM9.90134 35.3461C11.8266 34.8046 11.8265 34.8045 11.8266 34.8046C11.8266 34.8045 11.8266 34.8047 11.8266 34.8046C11.8267 34.8049 11.8269 34.8058 11.827 34.8061C11.8272 34.8066 11.8273 34.8071 11.8274 34.8076C11.8277 34.8085 11.828 34.8095 11.8282 34.8105C11.8288 34.8124 11.8293 34.8143 11.8298 34.8161C11.8308 34.8198 11.8318 34.8234 11.8327 34.8268C11.8345 34.8335 11.8361 34.8398 11.8376 34.8454C11.8404 34.8568 11.8426 34.8661 11.8443 34.8738C11.8476 34.8888 11.8494 34.8987 11.8504 34.9054L7.89397 35.4941C7.90845 35.5914 7.92476 35.6746 7.93928 35.74C7.94658 35.7729 7.95354 35.8019 7.95977 35.8265C7.96288 35.8388 7.96583 35.8501 7.96855 35.8603C7.96992 35.8654 7.97122 35.8702 7.97247 35.8748C7.9731 35.877 7.97371 35.8793 7.9743 35.8814C7.9746 35.8825 7.9749 35.8835 7.97519 35.8846C7.97533 35.8851 7.97547 35.8856 7.97562 35.8861C7.97555 35.8858 7.97569 35.8863 7.97562 35.8861C7.97566 35.8862 7.97592 35.8872 7.97594 35.8872C7.97599 35.8874 7.97604 35.8876 9.90134 35.3461ZM7.86448 37.1333C8.42804 37.199 9.0497 37.2716 9.70429 37.3364L10.0983 33.3558C9.48368 33.295 8.89546 33.2264 8.32794 33.1602L7.86448 37.1333Z" fill="#171c4c"/>
</g>
<mask id="mask1_816_7752" style="mask-type:luminance" maskUnits="userSpaceOnUse" x="0" y="1" width="108" height="88">
<path d="M107.227 1.38867H0.226562V88.3887H107.227V1.38867Z" fill="white"/>
<path fill-rule="evenodd" clip-rule="evenodd" d="M8.09628 33.1465C6.11537 32.9154 4.61489 32.7404 3.99025 33.1488C1.34281 33.5331 2.09932 36.0525 3.50984 38.1241C5.32491 40.7988 6.50632 42.0699 7.62717 43.2757C9.21792 44.9871 10.6867 46.5673 13.6718 51.8427C17.2861 58.2335 20.5383 62.5155 21.901 64.2141C23.943 67.5121 26.735 70.4198 30.0791 72.8379L26.5257 75.2691L19.5001 70.0001C18.3956 69.1717 16.8286 69.3955 16.0001 70.5001C15.1717 71.6047 15.3956 73.1717 16.5001 74.0001L17.441 74.7058L16.4111 74.534C15.0492 74.307 13.7611 75.2272 13.5341 76.5891C13.3072 77.951 14.2272 79.2391 15.5891 79.4661L18.7382 79.9909L17.0123 80.6769C15.7292 81.1868 15.1024 82.6403 15.6124 83.9234C16.1223 85.2065 17.5759 85.8332 18.8589 85.3232L27.1854 82.0141L28.5001 83.0001C29.6047 83.8285 31.1717 83.6047 32.0001 82.5001C32.8286 81.3955 32.6047 79.8285 31.5001 79.0001L30.7498 78.4374L34.7399 75.7073C43.0334 80.0292 53.5619 81.7956 64.2461 79.9635C71.7623 78.6747 78.332 75.7806 83.471 71.8514L87.2504 74.4374L86.5001 75.0001C85.3956 75.8285 85.1717 77.3955 86.0001 78.5001C86.8286 79.6047 88.3956 79.8285 89.5001 79.0001L90.8148 78.0141L99.1413 81.3232C100.424 81.8332 101.878 81.2065 102.388 79.9234C102.898 78.6403 102.271 77.1868 100.988 76.6769L99.2621 75.9909L102.411 75.4661C103.773 75.2391 104.693 73.951 104.466 72.5891C104.239 71.2272 102.951 70.307 101.589 70.534L100.559 70.7058L101.5 70.0001C102.605 69.1717 102.829 67.6047 102 66.5001C101.172 65.3955 99.6047 65.1717 98.5001 66.0001L91.4746 71.2691L87.3305 68.4338C92.1021 63.5269 94.9736 57.5493 95.2954 51.266C95.7469 49.4501 96.2042 47.3843 96.6234 45.098C97.6946 39.2629 98.5635 37.3601 99.5044 35.2994C100.167 33.8473 100.866 32.3168 101.697 29.277C102.345 26.9213 102.218 24.315 99.5647 24.6622C98.8316 24.4413 97.4597 25.0127 95.6486 25.767C95.1316 25.9823 94.5784 26.2128 93.9944 26.4437C93.9944 26.4437 93.9906 26.3862 93.9729 26.2959C93.9632 26.0288 93.8293 25.727 93.4907 25.3965L93.4923 25.4064C93.5134 25.4345 93.5328 25.4622 93.5505 25.4896C93.2118 25.1814 92.6172 25.0244 91.5754 25.4873C89.789 26.2805 87.0004 27.2171 83.3058 27.6759C78.764 24.4567 72.936 22.1914 66.4637 21.1872C56.5924 15.9632 54.4751 14.794 53.2403 11.2104C52.8934 10.2027 52.3567 9.90875 51.8751 9.88747C51.9094 9.88104 51.9451 9.87551 51.9822 9.87093L51.9913 9.86537C51.4918 9.85894 51.1566 9.97059 50.9351 10.1426C50.8504 10.1909 50.8015 10.2267 50.8015 10.2267C50.5843 9.68106 50.3879 9.15681 50.2042 8.66648C49.5607 6.94842 49.0729 5.64617 48.3893 5.30202C46.8366 3.29042 44.6536 4.94551 43.2066 6.95256C41.3357 9.53886 40.5874 11.0292 39.8775 12.4431C38.8699 14.4498 37.9396 16.3026 33.9871 20.9162C31.4888 23.831 29.5202 26.4293 28.0531 28.5057C20.5303 31.0086 14.8219 32.1911 11.8862 31.7817C10.7368 31.6212 10.2226 31.9313 10.0035 32.3166C10.0112 32.2857 10.0204 32.2539 10.0311 32.2214L10.0292 32.2115C9.81749 32.6181 9.79139 32.9422 9.87226 33.1996C9.88575 33.2902 9.90141 33.3459 9.90141 33.3459C9.26676 33.2831 8.66182 33.2124 8.09628 33.1465Z" fill="#171c4c"/>
</mask>
<g mask="url(#mask1_816_7752)">
<path d="M3.99018 33.149L4.27754 35.1282C4.56556 35.0864 4.84098 34.9822 5.08458 34.823L3.99018 33.149ZM8.09621 33.1467L8.40033 31.17C8.37626 31.1663 8.35213 31.163 8.32794 31.1602L8.09621 33.1467ZM3.50977 38.1243L5.1647 37.0013L5.16295 36.9987L3.50977 38.1243ZM21.9009 64.2143L23.6014 63.1614C23.5586 63.0924 23.5117 63.026 23.4609 62.9627L21.9009 64.2143ZM30.079 72.8381L31.2084 74.4887C31.7456 74.1211 32.0704 73.5151 32.0788 72.8641C32.0873 72.2132 31.7784 71.5989 31.2509 71.2174L30.079 72.8381ZM26.5256 75.2694L25.3256 76.8694C26.011 77.3835 26.9478 77.4039 27.6549 76.92L26.5256 75.2694ZM17.4409 74.706L17.1121 76.6787C18.0216 76.8303 18.9169 76.3405 19.2797 75.4927C19.6424 74.645 19.3786 73.6592 18.6409 73.1059L17.4409 74.706ZM18.7381 79.9911L19.4767 81.8497C20.3111 81.5181 20.8222 80.6711 20.7267 79.7784C20.6312 78.8856 19.9525 78.1659 19.0669 78.0183L18.7381 79.9911ZM27.1853 82.0143L28.3853 80.4143C27.8282 79.9964 27.0938 79.8985 26.4467 80.1557L27.1853 82.0143ZM30.7497 78.4376L29.6204 76.787C29.0882 77.1511 28.7642 77.7494 28.7502 78.3941C28.7362 79.0388 29.0339 79.6507 29.5497 80.0376L30.7497 78.4376ZM34.7398 75.7075L35.6641 73.9339C35.0093 73.5927 34.2198 73.64 33.6104 74.0569L34.7398 75.7075ZM83.4709 71.8516L84.6003 70.201C83.8875 69.7133 82.9422 69.7383 82.2561 70.2628L83.4709 71.8516ZM87.2503 74.4376L88.4503 76.0375C88.9662 75.6507 89.2639 75.0388 89.2498 74.3941C89.2358 73.7494 88.9119 73.1511 88.3797 72.7869L87.2503 74.4376ZM90.8147 78.0143L91.5534 76.1557C90.9062 75.8985 90.1718 75.9964 89.6147 76.4143L90.8147 78.0143ZM99.262 75.9911L98.9332 74.0183C98.0476 74.1659 97.3688 74.8856 97.2733 75.7784C97.1778 76.6711 97.6889 77.5181 98.5233 77.8497L99.262 75.9911ZM100.559 70.706L99.3591 69.1059C98.6215 69.6592 98.3576 70.645 98.7204 71.4927C99.0831 72.3405 99.9784 72.8303 100.888 72.6787L100.559 70.706ZM91.4745 71.2694L90.3451 72.92C91.0523 73.4039 91.989 73.3835 92.6745 72.8694L91.4745 71.2694ZM87.3304 68.434L85.8965 67.0397C85.4852 67.4627 85.2816 68.0458 85.3403 68.633C85.399 69.2201 85.714 69.7514 86.201 70.0846L87.3304 68.434ZM95.2953 51.2662L93.3544 50.7835C93.3234 50.9082 93.3045 51.0356 93.2979 51.1639L95.2953 51.2662ZM101.697 29.2772L99.7685 28.7469L99.7677 28.75L101.697 29.2772ZM99.5646 24.6624L98.9874 26.5773C99.2583 26.659 99.5434 26.6822 99.824 26.6455L99.5646 24.6624ZM95.6485 25.7672L96.4083 27.6173L96.4174 27.6135L95.6485 25.7672ZM95.6485 25.7672L94.8883 23.9173L94.8792 23.9211L95.6485 25.7672ZM93.9943 26.4439L91.9987 26.5763C92.041 27.2138 92.3853 27.7927 92.9252 28.1342C93.4652 28.4757 94.1358 28.5387 94.7299 28.3037L93.9943 26.4439ZM93.9728 26.2961L91.9741 26.3682C91.9779 26.4733 91.9899 26.5779 92.0102 26.681L93.9728 26.2961ZM93.4906 25.3967L94.8877 23.9655C94.2709 23.3635 93.3379 23.2243 92.5723 23.62C91.8066 24.0158 91.3806 24.8575 91.5151 25.7088L93.4906 25.3967ZM93.4922 25.4066L91.5167 25.7187C91.5677 26.0417 91.6972 26.3474 91.8938 26.6088L93.4922 25.4066ZM93.5504 25.4898L92.204 26.9688C92.947 27.6452 94.0764 27.6653 94.8431 27.0159C95.6097 26.3665 95.7756 25.2491 95.2306 24.405L93.5504 25.4898ZM83.3057 27.6761L82.1491 29.3078C82.5563 29.5964 83.0568 29.7223 83.5521 29.6608L83.3057 27.6761ZM66.4636 21.1874L65.5281 22.9551C65.7247 23.0591 65.9372 23.1296 66.157 23.1637L66.4636 21.1874ZM51.875 9.88773L51.5062 7.92203C50.5077 8.10937 49.8083 9.01553 49.88 10.0289C49.9517 11.0423 50.7718 11.8409 51.7867 11.8858L51.875 9.88773ZM51.9821 9.87119L52.2268 11.8562C52.5117 11.821 52.7857 11.725 53.0302 11.5746L51.9821 9.87119ZM51.9912 9.86563L53.0392 11.569C53.7973 11.1026 54.1559 10.1914 53.919 9.33341C53.6822 8.47545 52.9069 7.87725 52.0169 7.8658L51.9912 9.86563ZM50.935 10.1428L51.9263 11.8798C52.0083 11.833 52.0868 11.7805 52.1614 11.7226L50.935 10.1428ZM50.8014 10.2269L48.9433 10.9669C49.1723 11.5418 49.6546 11.9784 50.2494 12.1492C50.8443 12.3201 51.4847 12.2058 51.9839 11.8399L50.8014 10.2269ZM50.2041 8.66674L52.077 7.96519L52.0764 7.96353L50.2041 8.66674ZM50.2041 8.66674L48.3175 9.33053C48.322 9.34352 48.3267 9.35645 48.3316 9.36934L50.2041 8.66674ZM50.2041 8.66674L52.0902 8.0015C52.0858 7.98908 52.0816 7.97752 52.077 7.96519L50.2041 8.66674ZM48.3892 5.30228L46.8059 6.5243C46.9888 6.76123 47.2225 6.9541 47.4899 7.08869L48.3892 5.30228ZM43.2065 6.95282L44.827 8.12503L44.8288 8.12246L43.2065 6.95282ZM28.053 28.5059L28.6844 30.4036C29.0892 30.2689 29.4403 30.0084 29.6865 29.66L28.053 28.5059ZM10.0034 32.3168L8.06204 31.8364C7.82207 32.806 8.3343 33.804 9.262 34.1743C10.1897 34.5446 11.2484 34.1737 11.7421 33.3054L10.0034 32.3168ZM10.031 32.2216L11.9307 32.847C12.036 32.5271 12.0588 32.1857 11.997 31.8546L10.031 32.2216ZM10.0291 32.2117L11.9952 31.8447C11.8386 31.0061 11.1674 30.3591 10.3236 30.2335C9.47986 30.1079 8.64928 30.5313 8.25527 31.288L10.0291 32.2117ZM9.87219 33.1998L11.8504 32.9054C11.835 32.8021 11.8115 32.7 11.7802 32.6003L9.87219 33.1998ZM9.90134 33.3461L9.70429 35.3364C10.362 35.4015 11.0094 35.1374 11.434 34.6309C11.8586 34.1244 12.0055 33.4408 11.8266 32.8046L9.90134 33.3461ZM8.09621 33.1467L8.32794 31.1602C8.32188 31.1595 8.31607 31.1588 8.31 31.1582L8.09621 33.1467ZM8.09621 33.1467L7.79213 35.1235C7.82223 35.1281 7.85243 35.132 7.88271 35.1353L8.09621 33.1467ZM5.08458 34.823C4.89809 34.9449 4.7863 34.9401 4.90208 34.9234C5.00075 34.9092 5.18053 34.8981 5.47299 34.9071C6.06942 34.9255 6.84344 35.0141 7.86448 35.1333L8.32794 31.1602C7.36807 31.0482 6.4014 30.9338 5.5962 30.909C5.18784 30.8964 4.75158 30.9037 4.33132 30.9643C3.92818 31.0224 3.3946 31.1489 2.89579 31.475L5.08458 34.823ZM5.16295 36.9987C4.86548 36.5618 4.62271 36.13 4.45669 35.7413C4.28443 35.3381 4.23195 35.0679 4.22688 34.9303C4.22265 34.8153 4.25185 34.9447 4.11186 35.1064C3.98119 35.2573 3.92347 35.1796 4.27754 35.1282L3.70283 31.1697C2.73318 31.3105 1.77723 31.6919 1.08789 32.488C0.389232 33.2949 0.199322 34.2557 0.229597 35.0775C0.285461 36.594 1.09451 38.1307 1.85659 39.2499L5.16295 36.9987ZM9.09202 41.9143C8.00551 40.7454 6.89961 39.5579 5.1647 37.0013L1.85485 39.2474C3.75008 42.0402 5.00699 43.3947 6.16219 44.6376L9.09202 41.9143ZM15.4126 50.8583C12.3436 45.4346 10.7788 43.7291 9.09202 41.9143L6.16219 44.6376C7.65684 46.2456 9.02991 47.7008 11.931 52.8278L15.4126 50.8583ZM23.4609 62.9627C22.1512 61.3302 18.9636 57.1373 15.4126 50.8583L11.931 52.8278C15.6085 59.3305 18.9252 63.7013 20.3409 65.4658L23.4609 62.9627ZM31.2509 71.2174C28.0938 68.9345 25.4908 66.213 23.6014 63.1614L20.2005 65.2671C22.3951 68.8116 25.3761 71.9056 28.9071 74.4588L31.2509 71.2174ZM27.6549 76.92L31.2084 74.4887L28.9496 71.1875L25.3962 73.6188L27.6549 76.92ZM18.3 71.6003L25.3256 76.8694L27.7256 73.6694L20.7 68.4003L18.3 71.6003ZM17.6 71.7003C17.7657 71.4794 18.0791 71.4346 18.3 71.6003L20.7 68.4003C18.7118 66.9091 15.8912 67.3121 14.4 69.3003L17.6 71.7003ZM17.7 72.4003C17.4791 72.2346 17.4343 71.9212 17.6 71.7003L14.4 69.3003C12.9089 71.2885 13.3118 74.1091 15.3 75.6003L17.7 72.4003ZM18.6409 73.1059L17.7 72.4003L15.3 75.6003L16.2409 76.306L18.6409 73.1059ZM16.0822 76.5071L17.1121 76.6787L17.7697 72.7332L16.7398 72.5615L16.0822 76.5071ZM15.5068 76.9181C15.5522 76.6457 15.8098 76.4617 16.0822 76.5071L16.7398 72.5615C14.2884 72.1529 11.9698 73.809 11.5613 76.2605L15.5068 76.9181ZM15.9178 77.4935C15.6454 77.4481 15.4614 77.1905 15.5068 76.9181L11.5613 76.2605C11.1527 78.712 12.8088 81.0305 15.2602 81.4391L15.9178 77.4935ZM19.0669 78.0183L15.9178 77.4935L15.2602 81.4391L18.4093 81.9639L19.0669 78.0183ZM17.7508 82.5356L19.4767 81.8497L17.9994 78.1325L16.2735 78.8185L17.7508 82.5356ZM17.4709 83.185C17.3689 82.9283 17.4942 82.6376 17.7508 82.5356L16.2735 78.8185C13.9639 79.7364 12.8358 82.3527 13.7537 84.6623L17.4709 83.185ZM18.1202 83.4649C17.8636 83.5669 17.5729 83.4416 17.4709 83.185L13.7537 84.6623C14.6716 86.9719 17.288 88.1 19.5975 87.1821L18.1202 83.4649ZM26.4467 80.1557L18.1202 83.4649L19.5975 87.1821L27.924 83.8729L26.4467 80.1557ZM29.7 81.4003L28.3853 80.4143L25.9853 83.6143L27.3 84.6003L29.7 81.4003ZM30.4 81.3003C30.2343 81.5212 29.9209 81.566 29.7 81.4003L27.3 84.6003C29.2882 86.0915 32.1089 85.6885 33.6 83.7003L30.4 81.3003ZM30.3 80.6003C30.5209 80.766 30.5657 81.0794 30.4 81.3003L33.6 83.7003C35.0912 81.7121 34.6882 78.8915 32.7 77.4003L30.3 80.6003ZM29.5497 80.0376L30.3 80.6003L32.7 77.4003L31.9497 76.8376L29.5497 80.0376ZM33.6104 74.0569L29.6204 76.787L31.8791 80.0882L35.8692 77.3581L33.6104 74.0569ZM63.908 77.9925C53.6381 79.7535 43.555 78.0459 35.6641 73.9339L33.8156 77.4811C42.5117 82.0128 53.4854 83.838 64.584 81.9349L63.908 77.9925ZM82.2561 70.2628C77.3913 73.9823 71.1273 76.7546 63.908 77.9925L64.584 81.9349C72.3971 80.5952 79.2725 77.5792 84.6857 73.4404L82.2561 70.2628ZM88.3797 72.7869L84.6003 70.201L82.3415 73.5022L86.121 76.0882L88.3797 72.7869ZM87.7 76.6003L88.4503 76.0375L86.0503 72.8376L85.3 73.4003L87.7 76.6003ZM87.6 77.3003C87.4343 77.0794 87.4791 76.766 87.7 76.6003L85.3 73.4003C83.3118 74.8915 82.9089 77.7121 84.4 79.7003L87.6 77.3003ZM88.3 77.4003C88.0791 77.566 87.7657 77.5212 87.6 77.3003L84.4 79.7003C85.8912 81.6885 88.7118 82.0915 90.7 80.6003L88.3 77.4003ZM89.6147 76.4143L88.3 77.4003L90.7 80.6003L92.0147 79.6143L89.6147 76.4143ZM99.8799 79.4649L91.5534 76.1557L90.076 79.8729L98.4025 83.1821L99.8799 79.4649ZM100.529 79.1849C100.427 79.4415 100.137 79.5669 99.8799 79.4649L98.4025 83.1821C100.712 84.1 103.329 82.9719 104.246 80.6623L100.529 79.1849ZM100.249 78.5356C100.506 78.6376 100.631 78.9283 100.529 79.1849L104.246 80.6623C105.164 78.3527 104.036 75.7364 101.727 74.8185L100.249 78.5356ZM98.5233 77.8497L100.249 78.5356L101.727 74.8185L100.001 74.1325L98.5233 77.8497ZM102.082 73.4935L98.9332 74.0183L99.5908 77.9639L102.74 77.4391L102.082 73.4935ZM102.493 72.9181C102.539 73.1905 102.355 73.4481 102.082 73.4935L102.74 77.4391C105.191 77.0305 106.847 74.712 106.439 72.2605L102.493 72.9181ZM101.918 72.5071C102.19 72.4617 102.448 72.6457 102.493 72.9181L106.439 72.2605C106.03 69.809 103.712 68.1529 101.26 68.5615L101.918 72.5071ZM100.888 72.6787L101.918 72.5071L101.26 68.5615L100.23 68.7332L100.888 72.6787ZM100.3 68.4003L99.3591 69.1059L101.759 72.306L102.7 71.6003L100.3 68.4003ZM100.4 67.7003C100.566 67.9212 100.521 68.2346 100.3 68.4003L102.7 71.6003C104.688 70.1091 105.091 67.2885 103.6 65.3003L100.4 67.7003ZM99.7 67.6003C99.9209 67.4346 100.234 67.4794 100.4 67.7003L103.6 65.3003C102.109 63.3121 99.2882 62.9091 97.3 64.4003L99.7 67.6003ZM92.6745 72.8694L99.7 67.6003L97.3 64.4003L90.2745 69.6694L92.6745 72.8694ZM86.201 70.0846L90.3451 72.92L92.6039 69.6188L88.4598 66.7834L86.201 70.0846ZM93.2979 51.1639C93.0047 56.8894 90.3844 62.4246 85.8965 67.0397L88.7642 69.8283C93.8196 64.6296 96.9423 58.2095 97.2927 51.3685L93.2979 51.1639ZM94.6561 44.737C94.245 46.9799 93.7965 49.0054 93.3544 50.7835L97.2362 51.7488C97.6971 49.8952 98.1633 47.7887 98.5905 45.4588L94.6561 44.737ZM97.685 34.4688C96.6815 36.6666 95.7596 38.7266 94.6561 44.737L98.5905 45.4588C99.6296 39.7992 100.445 38.0541 101.324 36.1303L97.685 34.4688ZM99.7677 28.75C98.9767 31.6444 98.3256 33.066 97.685 34.4688L101.324 36.1303C102.009 34.6291 102.756 32.9896 103.626 29.8045L99.7677 28.75ZM99.824 26.6455C100.172 26.6 100.178 26.6823 100.055 26.6058C99.9238 26.5245 99.9238 26.4372 99.9601 26.5533C100.003 26.6911 100.043 26.9603 100.015 27.3813C99.9876 27.7889 99.903 28.2579 99.7685 28.7469L103.625 29.8076C103.981 28.5154 104.234 26.8179 103.778 25.3592C103.532 24.5726 103.043 23.7516 102.162 23.2057C101.289 22.6646 100.284 22.5513 99.3051 22.6793L99.824 26.6455ZM96.4174 27.6135C97.3519 27.2243 98.0564 26.9327 98.6151 26.7556C98.8883 26.669 99.0614 26.6315 99.1596 26.6186C99.2709 26.6039 99.1797 26.6353 98.9874 26.5773L100.142 22.7475C99.5829 22.5791 99.0453 22.599 98.6367 22.6529C98.2148 22.7085 97.7943 22.8196 97.4065 22.9426C96.6432 23.1845 95.7558 23.5559 94.8792 23.9211L96.4174 27.6135ZM94.7299 28.3037C95.3331 28.0652 95.9023 27.8281 96.4174 27.6135L94.8792 23.9211C94.3602 24.1372 93.8234 24.3608 93.2587 24.5841L94.7299 28.3037ZM92.0102 26.681C92.0089 26.6746 92.0072 26.6645 92.0052 26.6489C92.0043 26.6409 92.0032 26.6311 92.0021 26.6193C92.0015 26.6133 92.001 26.6068 92.0004 26.5996C92.0001 26.5961 91.9998 26.5923 91.9995 26.5885C91.9994 26.5865 91.9993 26.5845 91.9991 26.5825C91.999 26.5815 91.999 26.5805 91.9989 26.5794C91.9989 26.5789 91.9988 26.5784 91.9988 26.5779C91.9989 26.5782 91.9988 26.5776 91.9988 26.5779C91.9988 26.5778 91.9987 26.5764 91.9987 26.5763C91.9987 26.5761 91.9987 26.5763 93.9943 26.4439C95.9899 26.3116 95.9899 26.3114 95.9899 26.3112C95.9899 26.3113 95.9899 26.3111 95.9899 26.3112C95.9899 26.3109 95.9898 26.3102 95.9898 26.31C95.9898 26.3094 95.9897 26.3089 95.9897 26.3084C95.9896 26.3073 95.9896 26.3062 95.9895 26.305C95.9893 26.3028 95.9892 26.3005 95.989 26.2981C95.9886 26.2933 95.9882 26.2883 95.9878 26.283C95.987 26.2723 95.986 26.2606 95.9848 26.2478C95.9824 26.2224 95.9793 26.1925 95.9751 26.1589C95.9669 26.092 95.9544 26.008 95.9354 25.9112L92.0102 26.681ZM92.0936 26.8279C92.1423 26.8755 92.1168 26.8634 92.0755 26.783C92.0303 26.6948 91.9807 26.5518 91.9741 26.3682L95.9715 26.224C95.9378 25.291 95.468 24.5321 94.8877 23.9655L92.0936 26.8279ZM95.4677 25.0946L95.4661 25.0847L91.5151 25.7088L91.5167 25.7187L95.4677 25.0946ZM95.2306 24.405C95.1855 24.3352 95.1386 24.2684 95.0906 24.2045L91.8938 26.6088C91.888 26.601 91.8798 26.5897 91.8702 26.5747L95.2306 24.405ZM92.387 27.3154C92.7168 27.1689 92.7985 27.2016 92.7028 27.1956C92.6493 27.1923 92.564 27.1779 92.4633 27.1351C92.3628 27.0923 92.2749 27.0333 92.204 26.9688L94.8967 24.0109C93.7578 22.9741 92.223 23.0112 90.7633 23.6597L92.387 27.3154ZM83.5521 29.6608C87.4543 29.1763 90.4327 28.1831 92.387 27.3154L90.7633 23.6597C89.1447 24.3784 86.5463 25.2583 83.0592 25.6913L83.5521 29.6608ZM66.157 23.1637C72.3701 24.1277 77.8963 26.2933 82.1491 29.3078L84.4622 26.0444C79.6316 22.6204 73.5017 20.2554 66.7703 19.211L66.157 23.1637ZM51.3492 11.8617C52.1101 14.0698 53.2133 15.5858 55.4376 17.2019C57.4993 18.6998 60.6553 20.3764 65.5281 22.9551L67.3991 19.4196C62.4006 16.7744 59.5624 15.2544 57.7888 13.9659C56.178 12.7955 55.6051 11.9346 55.1311 10.5591L51.3492 11.8617ZM51.7867 11.8858C51.7191 11.8828 51.6334 11.8692 51.5405 11.8344C51.4456 11.7988 51.3684 11.7504 51.3127 11.7031C51.2034 11.6102 51.2562 11.5918 51.3492 11.8617L55.1311 10.5591C54.8771 9.82141 54.4883 9.15261 53.9035 8.65549C53.2945 8.13774 52.603 7.91794 51.9633 7.88968L51.7867 11.8858ZM51.7374 7.88622C51.6609 7.89566 51.5837 7.90748 51.5062 7.92203L52.2438 11.8534C52.2348 11.8551 52.229 11.8559 52.2268 11.8562L51.7374 7.88622ZM50.9431 8.16224L50.934 8.16781L53.0302 11.5746L53.0392 11.569L50.9431 8.16224ZM52.1614 11.7226C52.0465 11.8118 51.9461 11.8498 51.8971 11.8635C51.8534 11.8757 51.8672 11.8642 51.9654 11.8655L52.0169 7.8658C51.2194 7.85553 50.3936 8.03121 49.7087 8.56288L52.1614 11.7226ZM50.8014 10.2269C51.9839 11.8399 51.984 11.8398 51.9839 11.8399C51.984 11.8398 51.9839 11.84 51.9839 11.8399C51.9837 11.84 51.9829 11.8406 51.9827 11.8408C51.9824 11.8411 51.982 11.8413 51.9816 11.8416C51.9808 11.8422 51.9801 11.8427 51.9794 11.8432C51.9779 11.8443 51.9765 11.8453 51.9751 11.8464C51.9723 11.8484 51.9696 11.8503 51.9671 11.8521C51.9621 11.8557 51.9576 11.8589 51.9536 11.8616C51.9456 11.8672 51.9396 11.8712 51.9353 11.874C51.927 11.8795 51.9244 11.8809 51.9263 11.8798L49.9438 8.40569C49.8609 8.45301 49.7915 8.49646 49.7376 8.53192C49.7105 8.54973 49.6869 8.56576 49.6672 8.57952C49.6573 8.58641 49.6483 8.59276 49.6403 8.5985C49.6363 8.60138 49.6325 8.60411 49.6289 8.60668C49.6271 8.60796 49.6254 8.60921 49.6238 8.61042C49.6229 8.61102 49.6221 8.61162 49.6213 8.6122C49.6209 8.6125 49.6205 8.61279 49.6201 8.61307C49.6202 8.61293 49.6199 8.61322 49.6201 8.61307C49.62 8.61314 49.6193 8.61368 49.6193 8.61372C49.6191 8.61382 49.619 8.61393 50.8014 10.2269ZM48.3312 9.36829C48.514 9.85645 48.7173 10.3993 48.9433 10.9669L52.6595 9.48701C52.451 8.96334 52.2615 8.45769 52.077 7.96519L48.3312 9.36829ZM47.4899 7.08869C47.3008 6.99351 47.2418 6.89429 47.286 6.95166C47.3266 7.00435 47.4049 7.12467 47.518 7.35393C47.7516 7.82737 47.9969 8.47594 48.3312 9.36829L52.077 7.96519C51.7677 7.13947 51.4469 6.27664 51.105 5.58382C50.8095 4.98499 50.2733 4.01164 49.2885 3.51587L47.4899 7.08869ZM44.8288 8.12246C45.4742 7.22731 46.1301 6.64583 46.5771 6.44523C46.7654 6.36073 46.7869 6.40179 46.7051 6.38411C46.6015 6.3617 46.6457 6.31675 46.8059 6.5243L49.9724 4.08026C49.3563 3.28201 48.5454 2.6896 47.5506 2.47447C46.5776 2.26408 45.6718 2.46718 44.9393 2.79589C43.5449 3.42169 42.3858 4.67127 41.5842 5.78317L44.8288 8.12246ZM41.6647 13.3408C42.3493 11.9774 43.043 10.5911 44.827 8.12503L41.586 5.7806C39.6282 8.48709 38.8254 10.0814 38.09 11.5459L41.6647 13.3408ZM35.5055 22.218C39.5689 17.4749 40.5882 15.4849 41.6647 13.3408L38.09 11.5459C37.1515 13.4152 36.3098 15.1311 32.4682 19.6152L35.5055 22.218ZM29.6865 29.66C31.1209 27.6298 33.0514 25.0813 35.5055 22.218L32.4682 19.6152C29.9256 22.5815 27.9194 25.2292 26.4196 27.3518L29.6865 29.66ZM11.6094 33.7627C13.4262 34.0161 15.862 33.7637 18.6488 33.1957C21.4868 32.6173 24.8759 31.6707 28.6844 30.4036L27.4217 26.6082C23.7073 27.844 20.4808 28.7401 17.8499 29.2763C15.1679 29.8229 13.2813 29.9571 12.1623 29.8011L11.6094 33.7627ZM11.7421 33.3054C11.6855 33.4048 11.6071 33.5027 11.5083 33.585C11.4097 33.667 11.3187 33.7105 11.2609 33.7309C11.1606 33.7662 11.2294 33.7096 11.6094 33.7627L12.1623 29.8011C10.6119 29.5846 9.06091 29.9282 8.26484 31.3283L11.7421 33.3054ZM8.13132 31.5961C8.10573 31.6739 8.08243 31.754 8.06204 31.8364L11.9449 32.7973C11.9398 32.8177 11.9348 32.8343 11.9307 32.847L8.13132 31.5961ZM8.06313 32.5787L8.06497 32.5886L11.997 31.8546L11.9952 31.8447L8.06313 32.5787ZM11.7802 32.6003C11.8335 32.77 11.8375 32.9249 11.8217 33.0381C11.8071 33.1425 11.7808 33.1782 11.803 33.1354L8.25527 31.288C7.87065 32.0266 7.68325 32.9051 7.96414 33.7992L11.7802 32.6003ZM9.90134 33.3461C11.8266 32.8046 11.8265 32.8045 11.8266 32.8046C11.8266 32.8045 11.8266 32.8047 11.8266 32.8046C11.8267 32.8049 11.8269 32.8058 11.827 32.8061C11.8272 32.8066 11.8273 32.8071 11.8274 32.8076C11.8277 32.8085 11.828 32.8095 11.8282 32.8105C11.8288 32.8124 11.8293 32.8143 11.8298 32.8161C11.8308 32.8198 11.8318 32.8234 11.8327 32.8268C11.8345 32.8335 11.8361 32.8398 11.8376 32.8454C11.8404 32.8568 11.8426 32.8661 11.8443 32.8738C11.8476 32.8888 11.8494 32.8987 11.8504 32.9054L7.89397 33.4941C7.90845 33.5914 7.92476 33.6746 7.93928 33.74C7.94658 33.7729 7.95354 33.8019 7.95977 33.8265C7.96288 33.8388 7.96583 33.8501 7.96855 33.8603C7.96992 33.8654 7.97122 33.8702 7.97247 33.8748C7.9731 33.877 7.97371 33.8793 7.9743 33.8814C7.9746 33.8825 7.9749 33.8835 7.97519 33.8846C7.97533 33.8851 7.97547 33.8856 7.97562 33.8861C7.97555 33.8858 7.97569 33.8863 7.97562 33.8861C7.97566 33.8862 7.97592 33.8872 7.97594 33.8872C7.97599 33.8874 7.97604 33.8876 9.90134 33.3461ZM7.86448 35.1333C8.42804 35.199 9.0497 35.2716 9.70429 35.3364L10.0983 31.3558C9.48368 31.295 8.89546 31.2264 8.32794 31.1602L7.86448 35.1333Z" fill="#171c4c"/>
</g>
<path d="M64.2452 79.964C85.1445 76.3804 98.7258 60.3853 94.58 44.238C90.4342 28.0906 70.1312 17.9057 49.2319 21.4893C28.3326 25.073 14.7513 41.0681 18.8971 57.2154C23.0429 73.3628 43.346 83.5477 64.2452 79.964Z" fill="#D2DCE4"/>
<path d="M62.1258 70.9877C81.9628 68.135 95.6411 54.6637 92.6772 40.8987C89.7133 27.1337 71.2295 18.2875 51.3925 21.1401C31.5555 23.9928 17.8772 37.4641 20.8411 51.2291C23.8051 64.9941 42.2888 73.8403 62.1258 70.9877Z" fill="white"/>
<path d="M24.7383 33.6354C24.7383 33.6354 27.6679 28.2881 33.9866 20.9162C40.7241 13.0518 38.68 13.2094 43.2061 6.95256C44.9993 4.46539 47.9227 2.51872 49.3761 7.42051C50.6508 11.7154 52.4872 13.5393 52.4872 13.5393L40.4995 26.5L24.7383 33.6354Z" fill="#D2DCE4"/>
<path d="M39.8683 29.545C39.8683 29.545 76.8841 24.4899 68.4596 22.2452C56.8661 16.1042 54.5528 15.0247 53.2387 11.2112C52.4768 8.9983 50.7999 10.2275 50.7999 10.2275C49.7801 7.66659 49.2207 5.57619 48.2753 5.25565C45.7736 4.39717 43.4055 16.1851 43.4055 16.1851C40.514 13.2308 39.8531 18.2345 31.9492 27.9657L39.8658 29.5589L39.8683 29.545Z" fill="white"/>
<path d="M51.9807 9.87107C49.8452 10.1344 52.5067 13.5144 52.5067 13.5144C52.5067 13.5144 51.4512 11.9888 50.132 12.9733C48.8127 13.9578 50.5922 17.5963 50.5922 17.5963C50.5922 17.5963 47.9476 13.6373 48.8465 12.1822C49.7545 10.7216 50.6421 11.7573 50.6421 11.7573C50.6421 11.7573 49.963 9.83942 51.9898 9.8655L51.9807 9.87107Z" fill="#D2DCE4"/>
<path d="M22.5787 65.0345C22.5787 65.0345 18.4403 60.2735 13.6718 51.8417C8.58337 42.8493 7.90092 44.5939 3.50984 38.1231C1.76186 35.5559 1.01828 32.3011 6.51249 33.2739C11.327 34.1253 13.9037 33.4256 13.9037 33.4256L21.0864 50.9991L22.5787 65.0345Z" fill="#D2DCE4"/>
<path d="M24.7082 50.8306C24.7082 50.8306 41.1968 27 40.0797 24C26.6726 29.5 16.2357 32.3882 11.886 31.7816C9.36207 31.4291 9.90114 33.3458 9.90114 33.3458C6.92362 33.051 4.60541 32.5866 3.89672 33.2198C2.01115 34.8909 12.8147 42.0348 12.8147 42.0348C8.67514 43.1001 15.5258 43.7277 22 54.5L24.7211 50.8388L24.7082 50.8306Z" fill="white"/>
<path d="M10.0293 32.2208C9.41482 34.0869 13.8852 33.3981 13.8852 33.3981C13.8852 33.3981 11.9273 33.5895 12.3688 35.1051C12.8104 36.6207 17.1764 36.7686 17.1764 36.7686C17.1764 36.7686 12.1347 37.1881 11.0504 35.8092C9.96417 34.4205 11.3637 34.1503 11.3637 34.1503C11.3637 34.1503 9.16859 33.8602 10.0274 32.2109L10.0293 32.2208Z" fill="#D2DCE4"/>
<path d="M92.5676 60.0792C92.5676 60.0792 94.9116 54.4237 96.6214 45.0979C98.4475 35.1514 99.6853 36.6309 101.695 29.2769C102.498 26.3577 102.112 23.0536 97.2 25.4623C92.8955 27.5721 90.2031 27.5995 90.2031 27.5995L93.2905 46.0847L92.5676 60.0792Z" fill="#D2DCE4"/>
<path d="M85.7585 47.1073C85.7585 47.1073 58.6981 22.0516 66.1267 26.1517C78.8039 29.6876 87.6316 27.2373 91.5752 25.4863C93.8633 24.4698 93.9942 26.4428 93.9942 26.4428C96.7343 25.359 98.7886 24.2912 99.6774 24.704C102.038 25.7891 94.1399 35.5137 94.1399 35.5137C98.4457 35.4136 95.0485 36.4818 92.5 48.4991L85.749 47.1186L85.7585 47.1073Z" fill="white"/>
<path d="M93.4919 25.4064C94.7058 27.0203 90.2112 27.5685 90.2112 27.5685C90.2112 27.5685 92.1426 27.2233 92.2316 28.7875C92.3205 30.3518 88.207 31.6698 88.207 31.6698C88.207 31.6698 93.1558 30.7107 93.7258 29.1035C94.2942 27.4864 92.8688 27.6061 92.8688 27.6061C92.8688 27.6061 94.8643 26.7377 93.4903 25.3965L93.4919 25.4064Z" fill="#D2DCE4"/>
<path d="M43.916 66.7573C42.2495 68.2286 39.9621 68.5634 38.7941 67.51C38.1324 66.9073 37.9938 65.9806 38.2891 65.0234C37.3224 66.3536 37.0344 68.0622 38.1683 68.7274C44.8757 72.6895 45.6567 72.0315 44.1782 70.4099C42.4919 68.5706 44.4752 66.6024 44.699 65.88C44.4802 66.1861 44.2308 66.4797 43.9206 66.7483L43.916 66.7573Z" fill="#D2DCE4"/>
<path d="M37.5799 65.9297C35.9134 67.401 32.4906 65.9253 31.3226 64.8719C30.6609 64.2691 30.8498 66.7246 31.1451 65.7674C30.1784 67.0976 38.0418 70.1268 38.9926 70.9807C40.1606 72.0341 39.8 70.2234 38.1711 68.727C37.064 67.6987 38.129 65.7706 38.3629 65.0524C38.1441 65.3585 37.8947 65.6521 37.5845 65.9206L37.5799 65.9297Z" fill="#D2DCE4"/>
<path d="M49.9265 68.4409C48.26 69.9122 45.9726 70.247 44.8046 69.1936C44.1429 68.5909 44.0043 67.6642 44.2996 66.707C43.333 68.0371 43.2327 69.548 44.1788 70.4109C45.3468 71.4643 46.1 74.0421 47.7665 72.5709C48.2559 72.145 53.3927 70.8371 53.6495 70.3374C49.3584 70.8378 50.6427 67.7892 50.7095 67.5636C50.4907 67.8697 50.2414 68.1633 49.9311 68.4318L49.9265 68.4409Z" fill="#D2DCE4"/>
<path d="M31.2441 57.9509C28.7526 58.6209 26.317 57.8809 25.7807 56.3009C25.4791 55.4009 25.8813 54.4309 26.7304 53.6309C25.0098 54.4809 24.0266 55.9209 24.4624 57.2009C24.9875 58.7809 27.4343 59.5109 29.9258 58.8509C30.9983 58.5609 31.881 58.0609 32.5178 57.4509C32.1268 57.6409 31.7134 57.8209 31.2441 57.9409V57.9509Z" fill="#D2DCE4"/>
<path d="M29.9346 53.91C28.0799 54.01 26.5158 53.14 26.4264 51.97C26.3817 51.3 26.8398 50.68 27.566 50.25C26.2141 50.59 25.2645 51.45 25.3315 52.41C25.4097 53.59 26.985 54.45 28.8285 54.35C29.6218 54.31 30.3368 54.08 30.8954 53.76C30.5826 53.84 30.2698 53.9 29.9234 53.92L29.9346 53.91Z" fill="#D2DCE4"/>
<path d="M63.4481 79.1091C73.8697 79.1091 82.3181 70.6607 82.3181 60.2391C82.3181 49.8175 73.8697 41.3691 63.4481 41.3691C53.0265 41.3691 44.5781 49.8175 44.5781 60.2391C44.5781 70.6607 53.0265 79.1091 63.4481 79.1091Z" fill="#D2DCE4"/>
<path d="M64.3042 73.7206C74.9077 72.2228 82.467 63.67 81.1883 54.6174C79.9096 45.5648 70.2771 39.4405 59.6736 40.9383C49.0701 42.436 41.5108 50.9888 42.7895 60.0414C44.0682 69.094 53.7007 75.2183 64.3042 73.7206Z" fill="white"/>
<path d="M72.6287 62.3609C72.2487 64.5609 68.1287 67.1709 65.5887 66.5509C63.0487 65.9309 61.5587 63.0809 62.2587 60.2109C62.9687 57.3309 65.5987 55.5109 68.1487 56.1309C70.6987 56.7509 72.9087 60.7309 72.6287 62.3609Z" fill="#F09800"/>
<path d="M72.5316 62.3701C72.1516 64.5701 68.6416 62.0101 66.0916 61.3901C63.5416 60.7701 62.5316 59.0801 62.8216 58.5901C63.9416 56.6901 66.0216 55.6501 68.0516 56.1401C70.5916 56.7701 72.8116 60.7401 72.5316 62.3701Z" fill="#FFCC48"/>
<path d="M53.6903 42.8401C53.6903 42.8401 49.6103 38.6401 50.0303 36.0001C50.4503 33.3601 53.7303 32.7801 55.4003 35.1701C55.4003 35.1701 58.6803 33.3001 60.1003 37.0501C60.1003 37.0501 62.6203 35.6901 63.0903 42.8401C63.0903 42.8401 62.4203 45.7201 58.9603 42.8401C58.9603 42.8401 55.7703 41.1301 53.7003 42.8401H53.6903Z" fill="#FF5F5F"/>
<path d="M58.9503 42.8404C62.0903 45.4504 62.9303 43.3304 63.0603 42.9104C63.0703 42.8704 63.0803 42.8404 63.0803 42.8404C62.0303 44.2304 61.0903 42.5704 59.7303 40.5704C58.3703 38.5704 58.9503 38.0904 58.9503 38.0904C56.5003 38.9304 57.9703 42.9704 56.0903 41.8504C54.2103 40.7304 54.3703 36.8104 54.3703 36.8104C52.6503 37.2104 54.2903 40.4104 52.7703 39.5104C51.2503 38.6104 50.6103 34.6504 50.6103 34.6504C50.3203 35.0104 50.1203 35.4604 50.0303 36.0004C49.6103 38.6404 53.6903 42.8404 53.6903 42.8404C55.7603 41.1304 58.9503 42.8404 58.9503 42.8404Z" fill="#E9462E"/>
<path d="M54.1133 52.4746L59.8086 57.2207" stroke="#171C4C" stroke-width="3" stroke-linecap="round"/>
<path d="M59.5273 52.1133L54.7812 57.8086" stroke="#171C4C" stroke-width="3" stroke-linecap="round"/>
<path d="M69.9688 49.0938L74.5212 52.8875" stroke="#171C4C" stroke-width="3" stroke-linecap="round"/>
<path d="M74.501 48.5L70.5508 53.8572" stroke="#171C4C" stroke-width="3" stroke-linecap="round"/>
<path d="M83 68.5L92.5 75" stroke="#F09800" stroke-width="5" stroke-linecap="round"/>
<path d="M100 68L88 77" stroke="#F09800" stroke-width="5" stroke-linecap="round"/>
<path d="M100.064 79L91.667 75.6628C91.1965 75.4758 91.2701 74.7882 91.7695 74.705L101.999 73" stroke="#F09800" stroke-width="5" stroke-linecap="round"/>
<path d="M83 67.5L92.5 74" stroke="#FFCC48" stroke-width="2.5" stroke-linecap="round"/>
<path d="M100 67L88 76" stroke="#FFCC48" stroke-width="2.5" stroke-linecap="round"/>
<path d="M100.064 78L91.667 74.6628C91.1965 74.4758 91.2701 73.7882 91.7695 73.705L101.999 72" stroke="#FFCC48" stroke-width="2.5" stroke-linecap="round"/>
<path d="M35 72.5L25.5 79" stroke="#F09800" stroke-width="5" stroke-linecap="round"/>
<path d="M18 72L30 81" stroke="#F09800" stroke-width="5" stroke-linecap="round"/>
<path d="M17.9355 83L26.3323 79.6628C26.8028 79.4758 26.7292 78.7882 26.2298 78.705L16 77" stroke="#F09800" stroke-width="5" stroke-linecap="round"/>
<path d="M35 71.5L25.5 78" stroke="#FFCC48" stroke-width="2.5" stroke-linecap="round"/>
<path d="M18 71L30 80" stroke="#FFCC48" stroke-width="2.5" stroke-linecap="round"/>
<path d="M17.9355 82L26.3323 78.6628C26.8028 78.4758 26.7292 77.7882 26.2298 77.705L16 76" stroke="#FFCC48" stroke-width="2.5" stroke-linecap="round"/>
</svg>
