<svg width="152" height="132" viewBox="0 0 152 132" fill="none" xmlns="http://www.w3.org/2000/svg">
<path d="M38.7993 114.835L32.48 115.108L46.9664 115.758L46.9683 115.758C47.1789 115.768 47.5558 115.819 47.8134 116.123C48.1564 116.528 48.0056 116.987 47.8673 117.204C47.7314 117.416 47.5322 117.564 47.3543 117.658C47.1655 117.758 46.94 117.83 46.6969 117.849L46.6965 117.849L38.3782 118.521C36.6255 119.683 34.0931 120.603 31.2284 121.204C28.2567 121.827 24.8694 122.119 21.5078 121.96C17.4639 121.768 14.132 120.954 12.043 119.723C11.0005 119.109 10.188 118.344 9.81572 117.42C9.42485 116.451 9.56915 115.433 10.1982 114.479L10.9086 113.403L10.9864 113.556C11.5483 113.018 12.2518 112.533 13.0462 112.101C14.2849 111.427 15.7999 110.851 17.4825 110.393C20.8474 109.475 24.9526 109.009 29.0137 109.201C31.7074 109.329 34.0676 109.732 35.9545 110.341C37.82 110.943 39.3105 111.774 40.1593 112.825L40.1597 112.825C40.4051 113.129 40.4089 113.485 40.3287 113.747C40.2547 113.989 40.1072 114.181 39.9684 114.318C39.6942 114.587 39.2702 114.815 38.8007 114.835C38.8002 114.835 38.7998 114.835 38.7993 114.835ZM46.6657 116.324C46.6656 116.324 46.6639 116.325 46.6609 116.328C46.6643 116.326 46.6658 116.324 46.6657 116.324Z" fill="#171c4c" stroke="#171c4c" stroke-width="1.5"/>
<g filter="url(#filter0_d_824_6186)">
<path fill-rule="evenodd" clip-rule="evenodd" d="M6.78659 82.3335C6.06983 77.8437 13.3022 72.9637 22.9266 71.4426C29.3103 70.4337 35.1297 71.1534 38.5443 73.0549C39.0546 73.3393 38.9621 74.1128 38.3923 74.2673L20.1626 79.2746C19.6487 79.4202 19.8246 80.2157 20.3554 80.1318L50.2691 75.311C51.0653 75.1851 51.1007 75.9527 50.5155 76.1454L41.3214 79.1663C39.7706 82.8977 33.4527 86.452 25.4905 87.7104C23.6372 88.0033 21.8303 88.1506 20.1153 88.1653L20.2521 82.8756L17.8698 88.1066C11.7907 87.7271 7.29117 85.5714 6.77851 82.3277L6.78659 82.3335Z" fill="white"/>
<path d="M20.3554 80.1318L50.2691 75.311M20.3554 80.1318C19.8246 80.2157 19.6487 79.4202 20.1626 79.2746M20.3554 80.1318L20.2975 79.7656L20.2361 79.3913L20.2892 79.7212L20.1626 79.2746M20.3554 80.1318L20.2948 79.7555L20.1626 79.2746M50.2691 75.311L38.5443 73.0549C39.0546 73.3393 38.9621 74.1128 38.3923 74.2673L20.1626 79.2746M50.2691 75.311C51.0653 75.1851 51.1007 75.9527 50.5155 76.1454L50.2691 75.311ZM38.5898 74.9908C38.5894 74.9909 38.589 74.991 38.5885 74.9911L25.881 78.4816L50.1498 74.5705L50.152 74.5702C50.461 74.5214 50.7905 74.5439 51.0819 74.7011C51.3869 74.8657 51.591 75.1494 51.649 75.4788C51.7624 76.1233 51.3167 76.6712 50.7501 76.8578L50.7496 76.8579L41.8698 79.7755C40.921 81.7472 38.855 83.5572 36.1698 85.0239C33.3154 86.583 29.6613 87.8105 25.6076 88.4512C23.7187 88.7497 21.8747 88.9002 20.1218 88.9153C19.9184 88.9171 19.723 88.8361 19.5805 88.6911C19.4379 88.546 19.3603 88.3493 19.3656 88.146L19.4071 86.5406L18.5524 88.4174C18.4235 88.7004 18.1334 88.8745 17.8231 88.8551C14.7171 88.6613 11.9641 88.0119 9.89655 86.9597C7.83967 85.9129 6.3469 84.4011 6.0377 82.4447C6.03178 82.4073 6.02875 82.3698 6.0285 82.3327C5.67231 79.6714 7.62764 77.1312 10.5591 75.1531C13.5904 73.1077 17.9139 71.4756 22.8095 70.7018C29.2818 69.6789 35.2919 70.3853 38.9092 72.3996L38.9095 72.3998C40.0083 73.0123 39.806 74.66 38.5898 74.9908Z" stroke="#171c4c" stroke-width="1.5" stroke-linejoin="round"/>
</g>
<path d="M9.81241 80.23L51.1677 76.9155C52.4054 77.1971 46.8434 78.114 43.7058 79.5265C40.0299 81.1813 38.1433 86.6104 32.0166 87.1014C35.7286 81.1456 28.3398 81.9554 22.2375 81.8461C19.8379 81.803 9.81241 80.23 9.81241 80.23Z" fill="#D2DCE4" style="mix-blend-mode:darken"/>
<path d="M36.6814 71.3304L40.321 73.9767C40.321 73.9767 33.2081 78.0916 27.0814 78.5826C30.7933 72.6269 23.4046 73.4367 17.3023 73.3273C14.9027 73.2843 27.8213 67.3617 36.6814 71.3304Z" fill="#D2DCE4" style="mix-blend-mode:darken"/>
<path d="M73.835 80.0782L80.1424 79.6031L65.8342 81.9601L65.8323 81.9604C65.6243 81.9952 65.256 82.0895 65.0362 82.4222C64.7435 82.8651 64.9473 83.3026 65.1103 83.5015C65.2704 83.6969 65.4856 83.8199 65.6734 83.8922C65.8727 83.9689 66.1051 84.0137 66.3488 84.0046L66.3492 84.0046L74.6886 83.6889C76.5662 84.6353 79.1896 85.2497 82.1052 85.508C85.1298 85.776 88.5279 85.6661 91.8471 85.1105C95.84 84.442 99.0524 83.2406 100.981 81.7716C101.944 81.0386 102.66 80.1825 102.921 79.2218C103.195 78.2131 102.931 77.219 102.194 76.3465L101.361 75.3613L101.302 75.5226C100.681 75.0548 99.9247 74.6565 99.0848 74.3211C97.7752 73.7983 96.2028 73.4054 94.4778 73.1488C91.0281 72.6357 86.8964 72.657 82.8866 73.3283C80.2269 73.7735 77.9308 74.452 76.129 75.2795C74.3476 76.0976 72.9659 77.0996 72.2471 78.2428L72.2468 78.2432C72.0389 78.5743 72.0772 78.9279 72.1878 79.179C72.29 79.4107 72.4591 79.5839 72.613 79.7027C72.917 79.9374 73.3651 80.1144 73.8336 80.0783C73.8341 80.0783 73.8346 80.0783 73.835 80.0782ZM66.1996 82.4865C66.1997 82.4864 66.2015 82.4872 66.2048 82.4892C66.2011 82.4876 66.1995 82.4866 66.1996 82.4865Z" fill="#171c4c" stroke="#171c4c" stroke-width="1.5"/>
<g filter="url(#filter1_d_824_6186)">
<path fill-rule="evenodd" clip-rule="evenodd" d="M102.479 32.6527C100.071 28.7959 91.4117 29.865 83.1544 35.0381C77.6774 38.4693 73.7613 42.8334 72.4348 46.5098C72.2367 47.0594 72.8144 47.582 73.3456 47.3243L90.382 39.1296C90.8652 38.9019 91.2549 39.6173 90.7995 39.9026L65.0739 55.9108C64.3908 56.3387 64.8681 56.9409 65.436 56.7019L74.3537 52.9425C77.9736 54.7383 85.0723 53.2699 91.9035 48.9903C93.4935 47.9942 94.953 46.9186 96.2561 45.8036L92.6793 41.9041L97.911 44.2847C102.247 40.0065 104.224 35.426 102.481 32.643L102.479 32.6527Z" fill="white"/>
<path d="M90.7995 39.9026L65.0739 55.9108M90.7995 39.9026C91.2549 39.6173 90.8652 38.9019 90.382 39.1296M90.7995 39.9026L90.6027 39.5885L90.4033 39.2659L90.5798 39.5495L90.382 39.1296M90.7995 39.9026L90.5982 39.5791L90.382 39.1296M65.0739 55.9108L72.4348 46.5098C72.2367 47.0594 72.8144 47.582 73.3456 47.3243L90.382 39.1296M65.0739 55.9108C64.3908 56.3387 64.8681 56.9409 65.436 56.7019L65.0739 55.9108ZM73.6718 47.9997C73.6721 47.9995 73.6725 47.9993 73.6729 47.9991L85.5486 42.2867L64.6776 55.274L64.6757 55.2752C64.4106 55.4413 64.1769 55.6747 64.0604 55.9846C63.9385 56.309 63.9708 56.657 64.1434 56.9435C64.4811 57.504 65.177 57.6246 65.7269 57.3932L65.7273 57.393L74.3401 53.7621C76.3505 54.6261 79.0971 54.6343 82.0855 53.9772C85.2619 53.2786 88.8238 51.8047 92.3017 49.6259C93.9223 48.6106 95.4118 47.5132 96.7437 46.3735C96.8982 46.2412 96.9924 46.0519 97.0047 45.8489C97.017 45.6459 96.9463 45.4466 96.8088 45.2967L95.7233 44.1132L97.6004 44.9674C97.8834 45.0961 98.2165 45.037 98.4378 44.8186C100.653 42.6327 102.303 40.3351 103.171 38.1838C104.035 36.0436 104.168 33.9233 103.116 32.2448C103.096 32.2127 103.074 32.1824 103.05 32.1542C101.571 29.9133 98.4279 29.2816 94.9181 29.7148C91.2889 30.1629 86.9564 31.7711 82.7562 34.4025C77.2033 37.8813 73.1345 42.3607 71.7293 46.2553L71.7292 46.2556C71.3027 47.4391 72.5373 48.5488 73.6718 47.9997Z" stroke="#171c4c" stroke-width="1.5" stroke-linejoin="round"/>
</g>
<path d="M100.036 31.0572L104.788 34.518C104.04 35.5432 99.7482 43.0762 103.042 42.0811C106.901 40.9152 81.6421 56.4692 86.5851 52.8162C79.8746 50.7621 94.3333 44.3337 97.7411 39.2704C101.108 34.2676 100.755 32.0283 100.036 31.0572L99.0724 30.3555C99.0724 30.3555 99.6165 30.4901 100.036 31.0572Z" fill="#D2DCE4" style="mix-blend-mode:darken"/>
<path d="M83.7573 34.6859C84.8182 32.5331 106.627 25.6525 102.551 34.4638C102.551 34.4638 97.5849 36.3582 73.3774 47.858C97.6917 31.8873 83.7573 34.6859 83.7573 34.6859Z" fill="#D2DCE4" style="mix-blend-mode:darken"/>
<path d="M111.941 103.301L118.238 103.898L103.737 103.804L103.735 103.804C103.524 103.803 103.145 103.833 102.872 104.124C102.509 104.511 102.636 104.977 102.763 105.201C102.888 105.42 103.079 105.578 103.252 105.681C103.435 105.79 103.657 105.873 103.899 105.906L103.899 105.906L112.172 107.004C113.863 108.254 116.344 109.303 119.174 110.05C122.11 110.825 125.478 111.291 128.843 111.304C132.892 111.32 136.261 110.678 138.411 109.557C139.483 108.997 140.334 108.274 140.753 107.371C141.193 106.423 141.101 105.399 140.522 104.414L139.868 103.303L139.782 103.452C139.249 102.885 138.571 102.365 137.8 101.893C136.598 101.156 135.114 100.503 133.457 99.9589C130.144 98.8702 126.068 98.1931 122.003 98.1772C119.306 98.1666 116.928 98.4474 115.012 98.9585C113.118 99.4639 111.587 100.218 110.686 101.223L110.685 101.224C110.424 101.515 110.402 101.87 110.469 102.136C110.531 102.382 110.668 102.581 110.8 102.724C111.06 103.007 111.471 103.257 111.939 103.301C111.94 103.301 111.94 103.301 111.941 103.301ZM104.008 104.384C104.008 104.384 104.01 104.385 104.013 104.388C104.009 104.386 104.008 104.384 104.008 104.384Z" fill="#171c4c" stroke="#171c4c" stroke-width="1.5"/>
<g filter="url(#filter2_d_824_6186)">
<path fill-rule="evenodd" clip-rule="evenodd" d="M142.021 77.6914C144.05 73.6226 138.613 66.7998 129.886 62.4646C124.098 59.5892 118.331 58.532 114.503 59.323C113.931 59.4414 113.787 60.2071 114.285 60.5252L130.176 70.7649C130.623 71.0578 130.217 71.764 129.736 71.525L102.641 57.9621C101.919 57.6034 101.655 58.3251 102.156 58.6843L110.022 64.3214C110.384 68.3461 115.346 73.6301 122.565 77.2166C124.246 78.0513 125.926 78.7333 127.557 79.2613L129.012 74.1737L129.717 79.8781C135.631 81.3377 140.569 80.6293 142.031 77.6882L142.021 77.6914Z" fill="white"/>
<path d="M129.736 71.525L102.641 57.9621M129.736 71.525C130.217 71.764 130.623 71.0578 130.176 70.7649M129.736 71.525L129.9 71.1929L130.071 70.8543L129.922 71.153L130.176 70.7649M129.736 71.525L129.906 71.1842L130.176 70.7649M102.641 57.9621L114.503 59.323C113.931 59.4414 113.787 60.2071 114.285 60.5252L130.176 70.7649M102.641 57.9621C101.919 57.6034 101.655 58.3251 102.156 58.6843L102.641 57.9621ZM113.88 61.1563C113.88 61.1565 113.88 61.1568 113.881 61.157L124.958 68.2949L102.977 57.2914L102.975 57.2904C102.694 57.1512 102.373 57.074 102.048 57.1367C101.708 57.2023 101.428 57.4118 101.274 57.7087C100.973 58.2896 101.234 58.9459 101.719 59.2937L101.719 59.294L109.316 64.7383C109.631 66.9037 111.06 69.2496 113.182 71.4536C115.438 73.7963 118.556 76.0623 122.232 77.8882C123.944 78.7391 125.659 79.4352 127.326 79.9749C127.52 80.0375 127.731 80.0188 127.91 79.9232C128.09 79.8275 128.223 79.663 128.278 79.4675L128.72 77.9235L128.973 79.9702C129.011 80.2787 129.236 80.5318 129.538 80.6063C132.559 81.352 135.38 81.5574 137.668 81.1731C139.944 80.7907 141.821 79.7957 142.702 78.0219C142.719 77.9879 142.733 77.9531 142.745 77.9177C143.882 75.4855 142.778 72.4761 140.574 69.7105C138.294 66.8508 134.659 63.9981 130.22 61.7929C124.351 58.8776 118.406 57.7506 114.351 58.5885L114.351 58.5885C113.119 58.8437 112.818 60.4762 113.88 61.1563Z" stroke="#171c4c" stroke-width="1.5" stroke-linejoin="round"/>
</g>
<path d="M139.766 74.7792L101.304 59.2249C100.039 59.1227 105.071 61.6641 107.641 63.9519C110.652 66.6321 110.825 72.377 116.523 74.6814C114.766 67.887 121.573 70.8736 127.428 72.5978C129.73 73.2758 139.766 74.7792 139.766 74.7792Z" fill="#D2DCE4" style="mix-blend-mode:darken"/>
<path d="M116.795 58.2348L112.53 59.669C112.53 59.669 118.083 65.7261 123.781 68.0305C122.024 61.2361 128.831 64.2227 134.685 65.9469C136.988 66.6249 126.437 57.1035 116.795 58.2348Z" fill="#D2DCE4" style="mix-blend-mode:darken"/>
<g style="mix-blend-mode:soft-light" opacity="0.15">
<path d="M38.7993 114.835L32.48 115.108L46.9664 115.758L46.9683 115.758C47.1789 115.768 47.5558 115.819 47.8134 116.123C48.1564 116.528 48.0056 116.987 47.8673 117.204C47.7314 117.416 47.5322 117.564 47.3543 117.658C47.1655 117.758 46.94 117.83 46.6969 117.849L46.6965 117.849L38.3782 118.521C36.6255 119.683 34.0931 120.603 31.2284 121.204C28.2567 121.827 24.8694 122.119 21.5078 121.96C17.4639 121.768 14.132 120.954 12.043 119.723C11.0005 119.109 10.188 118.344 9.81572 117.42C9.42485 116.451 9.56915 115.433 10.1982 114.479L10.9086 113.403L10.9864 113.556C11.5483 113.018 12.2518 112.533 13.0462 112.101C14.2849 111.427 15.7999 110.851 17.4825 110.393C20.8474 109.475 24.9526 109.009 29.0137 109.201C31.7074 109.329 34.0676 109.732 35.9545 110.341C37.82 110.943 39.3105 111.774 40.1593 112.825L40.1597 112.825C40.4051 113.129 40.4089 113.485 40.3287 113.747C40.2547 113.989 40.1072 114.181 39.9684 114.318C39.6942 114.587 39.2702 114.815 38.8007 114.835C38.8002 114.835 38.7998 114.835 38.7993 114.835ZM46.6657 116.324C46.6656 116.324 46.6639 116.325 46.6609 116.328C46.6643 116.326 46.6658 116.324 46.6657 116.324Z" fill="#7000FF" stroke="#7000FF" stroke-width="1.5"/>
<g filter="url(#filter3_d_824_6186)">
<path fill-rule="evenodd" clip-rule="evenodd" d="M6.78659 82.3335C6.06983 77.8437 13.3022 72.9637 22.9266 71.4426C29.3103 70.4337 35.1297 71.1534 38.5443 73.0549C39.0546 73.3393 38.9621 74.1128 38.3923 74.2673L20.1626 79.2746C19.6487 79.4202 19.8246 80.2157 20.3554 80.1318L50.2691 75.311C51.0653 75.1851 51.1007 75.9527 50.5155 76.1454L41.3214 79.1663C39.7706 82.8977 33.4527 86.452 25.4905 87.7104C23.6372 88.0033 21.8303 88.1506 20.1153 88.1653L20.2521 82.8756L17.8698 88.1066C11.7907 87.7271 7.29117 85.5714 6.77851 82.3277L6.78659 82.3335Z" fill="#7000FF"/>
<path d="M20.3554 80.1318L50.2691 75.311M20.3554 80.1318C19.8246 80.2157 19.6487 79.4202 20.1626 79.2746M20.3554 80.1318L20.2975 79.7656L20.2361 79.3913L20.2892 79.7212L20.1626 79.2746M20.3554 80.1318L20.2948 79.7555L20.1626 79.2746M50.2691 75.311L38.5443 73.0549C39.0546 73.3393 38.9621 74.1128 38.3923 74.2673L20.1626 79.2746M50.2691 75.311C51.0653 75.1851 51.1007 75.9527 50.5155 76.1454L50.2691 75.311ZM38.5898 74.9908C38.5894 74.9909 38.589 74.991 38.5885 74.9911L25.881 78.4816L50.1498 74.5705L50.152 74.5702C50.461 74.5214 50.7905 74.5439 51.0819 74.7011C51.3869 74.8657 51.591 75.1494 51.649 75.4788C51.7624 76.1233 51.3167 76.6712 50.7501 76.8578L50.7496 76.8579L41.8698 79.7755C40.921 81.7472 38.855 83.5572 36.1698 85.0239C33.3154 86.583 29.6613 87.8105 25.6076 88.4512C23.7187 88.7497 21.8747 88.9002 20.1218 88.9153C19.9184 88.9171 19.723 88.8361 19.5805 88.6911C19.4379 88.546 19.3603 88.3493 19.3656 88.146L19.4071 86.5406L18.5524 88.4174C18.4235 88.7004 18.1334 88.8745 17.8231 88.8551C14.7171 88.6613 11.9641 88.0119 9.89655 86.9597C7.83967 85.9129 6.3469 84.4011 6.0377 82.4447C6.03178 82.4073 6.02875 82.3698 6.0285 82.3327C5.67231 79.6714 7.62764 77.1312 10.5591 75.1531C13.5904 73.1077 17.9139 71.4756 22.8095 70.7018C29.2818 69.6789 35.2919 70.3853 38.9092 72.3996L38.9095 72.3998C40.0083 73.0123 39.806 74.66 38.5898 74.9908Z" stroke="#7000FF" stroke-width="1.5" stroke-linejoin="round"/>
</g>
<path d="M9.81241 80.23L51.1677 76.9155C52.4054 77.1971 46.8434 78.114 43.7058 79.5265C40.0299 81.1813 38.1433 86.6104 32.0166 87.1014C35.7286 81.1456 28.3398 81.9554 22.2375 81.8461C19.8379 81.803 9.81241 80.23 9.81241 80.23Z" fill="#7000FF" style="mix-blend-mode:darken"/>
<path d="M36.6814 71.3304L40.321 73.9767C40.321 73.9767 33.2081 78.0916 27.0814 78.5826C30.7933 72.6269 23.4046 73.4367 17.3023 73.3273C14.9027 73.2843 27.8213 67.3617 36.6814 71.3304Z" fill="#7000FF" style="mix-blend-mode:darken"/>
<path d="M73.835 80.0782L80.1424 79.6031L65.8342 81.9601L65.8323 81.9604C65.6243 81.9952 65.256 82.0895 65.0362 82.4222C64.7435 82.8651 64.9473 83.3026 65.1103 83.5015C65.2704 83.6969 65.4856 83.8199 65.6734 83.8922C65.8727 83.9689 66.1051 84.0137 66.3488 84.0046L66.3492 84.0046L74.6886 83.6889C76.5662 84.6353 79.1896 85.2497 82.1052 85.508C85.1298 85.776 88.5279 85.6661 91.8471 85.1105C95.84 84.442 99.0524 83.2406 100.981 81.7716C101.944 81.0386 102.66 80.1825 102.921 79.2218C103.195 78.2131 102.931 77.219 102.194 76.3465L101.361 75.3613L101.302 75.5226C100.681 75.0548 99.9247 74.6565 99.0848 74.3211C97.7752 73.7983 96.2028 73.4054 94.4778 73.1488C91.0281 72.6357 86.8964 72.657 82.8866 73.3283C80.2269 73.7735 77.9308 74.452 76.129 75.2795C74.3476 76.0976 72.9659 77.0996 72.2471 78.2428L72.2468 78.2432C72.0389 78.5743 72.0772 78.9279 72.1878 79.179C72.29 79.4107 72.4591 79.5839 72.613 79.7027C72.917 79.9374 73.3651 80.1144 73.8336 80.0783C73.8341 80.0783 73.8346 80.0783 73.835 80.0782ZM66.1996 82.4865C66.1997 82.4864 66.2015 82.4872 66.2048 82.4892C66.2011 82.4876 66.1995 82.4866 66.1996 82.4865Z" fill="#7000FF" stroke="#7000FF" stroke-width="1.5"/>
<g filter="url(#filter4_d_824_6186)">
<path fill-rule="evenodd" clip-rule="evenodd" d="M102.479 32.6527C100.071 28.7959 91.4117 29.865 83.1544 35.0381C77.6774 38.4693 73.7613 42.8334 72.4348 46.5098C72.2367 47.0594 72.8144 47.582 73.3456 47.3243L90.382 39.1296C90.8652 38.9019 91.2549 39.6173 90.7995 39.9026L65.0739 55.9108C64.3908 56.3387 64.8681 56.9409 65.436 56.7019L74.3537 52.9425C77.9736 54.7383 85.0723 53.2699 91.9035 48.9903C93.4935 47.9942 94.953 46.9186 96.2561 45.8036L92.6793 41.9041L97.911 44.2847C102.247 40.0065 104.224 35.426 102.481 32.643L102.479 32.6527Z" fill="#7000FF"/>
<path d="M90.7995 39.9026L65.0739 55.9108M90.7995 39.9026C91.2549 39.6173 90.8652 38.9019 90.382 39.1296M90.7995 39.9026L90.6027 39.5885L90.4033 39.2659L90.5798 39.5495L90.382 39.1296M90.7995 39.9026L90.5982 39.5791L90.382 39.1296M65.0739 55.9108L72.4348 46.5098C72.2367 47.0594 72.8144 47.582 73.3456 47.3243L90.382 39.1296M65.0739 55.9108C64.3908 56.3387 64.8681 56.9409 65.436 56.7019L65.0739 55.9108ZM73.6718 47.9997C73.6721 47.9995 73.6725 47.9993 73.6729 47.9991L85.5486 42.2867L64.6776 55.274L64.6757 55.2752C64.4106 55.4413 64.1769 55.6747 64.0604 55.9846C63.9385 56.309 63.9708 56.657 64.1434 56.9435C64.4811 57.504 65.177 57.6246 65.7269 57.3932L65.7273 57.393L74.3401 53.7621C76.3505 54.6261 79.0971 54.6343 82.0855 53.9772C85.2619 53.2786 88.8238 51.8047 92.3017 49.6259C93.9223 48.6106 95.4118 47.5132 96.7437 46.3735C96.8982 46.2412 96.9924 46.0519 97.0047 45.8489C97.017 45.6459 96.9463 45.4466 96.8088 45.2967L95.7233 44.1132L97.6004 44.9674C97.8834 45.0961 98.2165 45.037 98.4378 44.8186C100.653 42.6327 102.303 40.3351 103.171 38.1838C104.035 36.0436 104.168 33.9233 103.116 32.2448C103.096 32.2127 103.074 32.1824 103.05 32.1542C101.571 29.9133 98.4279 29.2816 94.9181 29.7148C91.2889 30.1629 86.9564 31.7711 82.7562 34.4025C77.2033 37.8813 73.1345 42.3607 71.7293 46.2553L71.7292 46.2556C71.3027 47.4391 72.5373 48.5488 73.6718 47.9997Z" stroke="#7000FF" stroke-width="1.5" stroke-linejoin="round"/>
</g>
<path d="M100.036 31.0572L104.788 34.518C104.04 35.5432 99.7482 43.0762 103.042 42.0811C106.901 40.9152 81.6421 56.4692 86.5851 52.8162C79.8746 50.7621 94.3333 44.3337 97.7411 39.2704C101.108 34.2676 100.755 32.0283 100.036 31.0572L99.0724 30.3555C99.0724 30.3555 99.6165 30.4901 100.036 31.0572Z" fill="#7000FF" style="mix-blend-mode:darken"/>
<path d="M83.7573 34.6859C84.8182 32.5331 106.627 25.6525 102.551 34.4638C102.551 34.4638 97.5849 36.3582 73.3774 47.858C97.6917 31.8873 83.7573 34.6859 83.7573 34.6859Z" fill="#7000FF" style="mix-blend-mode:darken"/>
<path d="M111.941 103.301L118.238 103.898L103.737 103.804L103.735 103.804C103.524 103.803 103.145 103.833 102.872 104.124C102.509 104.511 102.636 104.977 102.763 105.201C102.888 105.42 103.079 105.578 103.252 105.681C103.435 105.79 103.657 105.873 103.899 105.906L103.899 105.906L112.172 107.004C113.863 108.254 116.344 109.303 119.174 110.05C122.11 110.825 125.478 111.291 128.843 111.304C132.892 111.32 136.261 110.678 138.411 109.557C139.483 108.997 140.334 108.274 140.753 107.371C141.193 106.423 141.101 105.399 140.522 104.414L139.868 103.303L139.782 103.452C139.249 102.885 138.571 102.365 137.8 101.893C136.598 101.156 135.114 100.503 133.457 99.9589C130.144 98.8702 126.068 98.1931 122.003 98.1772C119.306 98.1666 116.928 98.4474 115.012 98.9585C113.118 99.4639 111.587 100.218 110.686 101.223L110.685 101.224C110.424 101.515 110.402 101.87 110.469 102.136C110.531 102.382 110.668 102.581 110.8 102.724C111.06 103.007 111.471 103.257 111.939 103.301C111.94 103.301 111.94 103.301 111.941 103.301ZM104.008 104.384C104.008 104.384 104.01 104.385 104.013 104.388C104.009 104.386 104.008 104.384 104.008 104.384Z" fill="#7000FF" stroke="#7000FF" stroke-width="1.5"/>
<g filter="url(#filter5_d_824_6186)">
<path fill-rule="evenodd" clip-rule="evenodd" d="M142.021 77.6914C144.05 73.6226 138.613 66.7998 129.886 62.4646C124.098 59.5892 118.331 58.532 114.503 59.323C113.931 59.4414 113.787 60.2071 114.285 60.5252L130.176 70.7649C130.623 71.0578 130.217 71.764 129.736 71.525L102.641 57.9621C101.919 57.6034 101.655 58.3251 102.156 58.6843L110.022 64.3214C110.384 68.3461 115.346 73.6301 122.565 77.2166C124.246 78.0513 125.926 78.7333 127.557 79.2613L129.012 74.1737L129.717 79.8781C135.631 81.3377 140.569 80.6293 142.031 77.6882L142.021 77.6914Z" fill="#7000FF"/>
<path d="M129.736 71.525L102.641 57.9621M129.736 71.525C130.217 71.764 130.623 71.0578 130.176 70.7649M129.736 71.525L129.9 71.1929L130.071 70.8543L129.922 71.153L130.176 70.7649M129.736 71.525L129.906 71.1842L130.176 70.7649M102.641 57.9621L114.503 59.323C113.931 59.4414 113.787 60.2071 114.285 60.5252L130.176 70.7649M102.641 57.9621C101.919 57.6034 101.655 58.3251 102.156 58.6843L102.641 57.9621ZM113.88 61.1563C113.88 61.1565 113.88 61.1568 113.881 61.157L124.958 68.2949L102.977 57.2914L102.975 57.2904C102.694 57.1512 102.373 57.074 102.048 57.1367C101.708 57.2023 101.428 57.4118 101.274 57.7087C100.973 58.2896 101.234 58.9459 101.719 59.2937L101.719 59.294L109.316 64.7383C109.631 66.9037 111.06 69.2496 113.182 71.4536C115.438 73.7963 118.556 76.0623 122.232 77.8882C123.944 78.7391 125.659 79.4352 127.326 79.9749C127.52 80.0375 127.731 80.0188 127.91 79.9232C128.09 79.8275 128.223 79.663 128.278 79.4675L128.72 77.9235L128.973 79.9702C129.011 80.2787 129.236 80.5318 129.538 80.6063C132.559 81.352 135.38 81.5574 137.668 81.1731C139.944 80.7907 141.821 79.7957 142.702 78.0219C142.719 77.9879 142.733 77.9531 142.745 77.9177C143.882 75.4855 142.778 72.4761 140.574 69.7105C138.294 66.8508 134.659 63.9981 130.22 61.7929C124.351 58.8776 118.406 57.7506 114.351 58.5885L114.351 58.5885C113.119 58.8437 112.818 60.4762 113.88 61.1563Z" stroke="#7000FF" stroke-width="1.5" stroke-linejoin="round"/>
</g>
<path d="M139.766 74.7792L101.304 59.2249C100.039 59.1227 105.071 61.6641 107.641 63.9519C110.652 66.6321 110.825 72.377 116.523 74.6814C114.766 67.887 121.573 70.8736 127.428 72.5978C129.73 73.2758 139.766 74.7792 139.766 74.7792Z" fill="#7000FF" style="mix-blend-mode:darken"/>
<path d="M116.795 58.2348L112.53 59.669C112.53 59.669 118.083 65.7261 123.781 68.0305C122.024 61.2361 128.831 64.2227 134.685 65.9469C136.988 66.6249 126.437 57.1035 116.795 58.2348Z" fill="#7000FF" style="mix-blend-mode:darken"/>
</g>
<defs>
<filter id="filter0_d_824_6186" x="5.23438" y="69.4863" width="47.1836" height="22.1797" filterUnits="userSpaceOnUse" color-interpolation-filters="sRGB">
<feFlood flood-opacity="0" result="BackgroundImageFix"/>
<feColorMatrix in="SourceAlpha" type="matrix" values="0 0 0 0 0 0 0 0 0 0 0 0 0 0 0 0 0 0 127 0" result="hardAlpha"/>
<feOffset dy="2"/>
<feComposite in2="hardAlpha" operator="out"/>
<feColorMatrix type="matrix" values="0 0 0 0 0.0980392 0 0 0 0 0.172549 0 0 0 0 0.25098 0 0 0 1 0"/>
<feBlend mode="normal" in2="BackgroundImageFix" result="effect1_dropShadow_824_6186"/>
<feBlend mode="normal" in="SourceGraphic" in2="effect1_dropShadow_824_6186" result="shape"/>
</filter>
<filter id="filter1_d_824_6186" x="63.2383" y="28.8379" width="41.375" height="31.4141" filterUnits="userSpaceOnUse" color-interpolation-filters="sRGB">
<feFlood flood-opacity="0" result="BackgroundImageFix"/>
<feColorMatrix in="SourceAlpha" type="matrix" values="0 0 0 0 0 0 0 0 0 0 0 0 0 0 0 0 0 0 127 0" result="hardAlpha"/>
<feOffset dy="2"/>
<feComposite in2="hardAlpha" operator="out"/>
<feColorMatrix type="matrix" values="0 0 0 0 0.0980392 0 0 0 0 0.172549 0 0 0 0 0.25098 0 0 0 1 0"/>
<feBlend mode="normal" in2="BackgroundImageFix" result="effect1_dropShadow_824_6186"/>
<feBlend mode="normal" in="SourceGraphic" in2="effect1_dropShadow_824_6186" result="shape"/>
</filter>
<filter id="filter2_d_824_6186" x="100.395" y="56.3652" width="43.5547" height="27.748" filterUnits="userSpaceOnUse" color-interpolation-filters="sRGB">
<feFlood flood-opacity="0" result="BackgroundImageFix"/>
<feColorMatrix in="SourceAlpha" type="matrix" values="0 0 0 0 0 0 0 0 0 0 0 0 0 0 0 0 0 0 127 0" result="hardAlpha"/>
<feOffset dy="2"/>
<feComposite in2="hardAlpha" operator="out"/>
<feColorMatrix type="matrix" values="0 0 0 0 0.0980392 0 0 0 0 0.172549 0 0 0 0 0.25098 0 0 0 1 0"/>
<feBlend mode="normal" in2="BackgroundImageFix" result="effect1_dropShadow_824_6186"/>
<feBlend mode="normal" in="SourceGraphic" in2="effect1_dropShadow_824_6186" result="shape"/>
</filter>
<filter id="filter3_d_824_6186" x="5.23438" y="69.4863" width="47.1836" height="22.1797" filterUnits="userSpaceOnUse" color-interpolation-filters="sRGB">
<feFlood flood-opacity="0" result="BackgroundImageFix"/>
<feColorMatrix in="SourceAlpha" type="matrix" values="0 0 0 0 0 0 0 0 0 0 0 0 0 0 0 0 0 0 127 0" result="hardAlpha"/>
<feOffset dy="2"/>
<feComposite in2="hardAlpha" operator="out"/>
<feColorMatrix type="matrix" values="0 0 0 0 0.439216 0 0 0 0 0 0 0 0 0 1 0 0 0 1 0"/>
<feBlend mode="normal" in2="BackgroundImageFix" result="effect1_dropShadow_824_6186"/>
<feBlend mode="normal" in="SourceGraphic" in2="effect1_dropShadow_824_6186" result="shape"/>
</filter>
<filter id="filter4_d_824_6186" x="63.2383" y="28.8379" width="41.375" height="31.4141" filterUnits="userSpaceOnUse" color-interpolation-filters="sRGB">
<feFlood flood-opacity="0" result="BackgroundImageFix"/>
<feColorMatrix in="SourceAlpha" type="matrix" values="0 0 0 0 0 0 0 0 0 0 0 0 0 0 0 0 0 0 127 0" result="hardAlpha"/>
<feOffset dy="2"/>
<feComposite in2="hardAlpha" operator="out"/>
<feColorMatrix type="matrix" values="0 0 0 0 0.439216 0 0 0 0 0 0 0 0 0 1 0 0 0 1 0"/>
<feBlend mode="normal" in2="BackgroundImageFix" result="effect1_dropShadow_824_6186"/>
<feBlend mode="normal" in="SourceGraphic" in2="effect1_dropShadow_824_6186" result="shape"/>
</filter>
<filter id="filter5_d_824_6186" x="100.395" y="56.3652" width="43.5547" height="27.748" filterUnits="userSpaceOnUse" color-interpolation-filters="sRGB">
<feFlood flood-opacity="0" result="BackgroundImageFix"/>
<feColorMatrix in="SourceAlpha" type="matrix" values="0 0 0 0 0 0 0 0 0 0 0 0 0 0 0 0 0 0 127 0" result="hardAlpha"/>
<feOffset dy="2"/>
<feComposite in2="hardAlpha" operator="out"/>
<feColorMatrix type="matrix" values="0 0 0 0 0.439216 0 0 0 0 0 0 0 0 0 1 0 0 0 1 0"/>
<feBlend mode="normal" in2="BackgroundImageFix" result="effect1_dropShadow_824_6186"/>
<feBlend mode="normal" in="SourceGraphic" in2="effect1_dropShadow_824_6186" result="shape"/>
</filter>
</defs>
</svg>
