<svg width="152" height="132" viewBox="0 0 152 132" fill="none" xmlns="http://www.w3.org/2000/svg">
<path d="M38.7596 117.139L32.5327 116.028L46.5288 119.821L46.5307 119.822C46.734 119.877 47.0909 120.008 47.2759 120.362C47.5223 120.832 47.2752 121.247 47.0929 121.428C46.9139 121.606 46.6873 121.707 46.4932 121.76C46.2872 121.816 46.0514 121.837 45.8098 121.803L45.8095 121.803L37.5448 120.645C35.5811 121.396 32.909 121.742 29.9822 121.704C26.946 121.664 23.5765 121.211 20.3306 120.322C16.4259 119.253 13.3516 117.732 11.5812 116.076C10.6977 115.249 10.0717 114.325 9.90965 113.342C9.73954 112.311 10.1024 111.349 10.9242 110.556L11.8522 109.66L11.8948 109.826C12.5605 109.424 13.3528 109.104 14.2223 108.855C15.5781 108.468 17.1822 108.236 18.9243 108.155C22.4082 107.994 26.5165 108.434 30.4378 109.507C33.0388 110.22 35.2544 111.127 36.9632 112.133C38.6526 113.127 39.9258 114.264 40.5252 115.474L40.5254 115.474C40.6987 115.825 40.6248 116.172 40.4893 116.411C40.3643 116.631 40.1785 116.786 40.0134 116.889C39.6871 117.092 39.2235 117.223 38.761 117.139C38.7605 117.139 38.76 117.139 38.7596 117.139ZM46.112 120.308C46.1119 120.308 46.11 120.308 46.1065 120.31C46.1103 120.309 46.1121 120.308 46.112 120.308Z" fill="#171c4c" stroke="#171c4c" stroke-width="1.5"/>
<g filter="url(#filter0_d_824_6225)">
<path fill-rule="evenodd" clip-rule="evenodd" d="M13.3582 33.612C16.5682 30.392 24.7682 33.372 31.6582 40.262C36.2282 44.832 39.0682 49.962 39.5382 53.842C39.6082 54.422 38.9282 54.802 38.4682 54.432L23.6982 42.632C23.2782 42.302 22.7382 42.912 23.1182 43.292L44.6082 64.652C45.1782 65.222 44.5782 65.702 44.0782 65.342L36.2282 59.682C32.2982 60.622 25.7082 57.602 20.0082 51.902C18.6814 50.5753 17.4997 49.2003 16.4793 47.822L20.8381 44.822L15.2063 45.9712C11.9383 40.8311 11.036 35.9241 13.3582 33.602V33.612Z" fill="white"/>
<path d="M23.1182 43.292L44.6082 64.652M23.1182 43.292C22.7382 42.912 23.2782 42.302 23.6982 42.632M23.1182 43.292L23.3803 43.0298L23.6469 42.7601L23.4114 42.997L23.6982 42.632M23.1182 43.292L23.3868 43.0217L23.6982 42.632M44.6082 64.652L39.5382 53.842C39.6082 54.422 38.9282 54.802 38.4682 54.432L23.6982 42.632M44.6082 64.652C45.1782 65.222 44.5782 65.702 44.0782 65.342L44.6082 64.652ZM37.9991 55.0172C37.9988 55.0169 37.9984 55.0167 37.9981 55.0164L27.7022 46.7909L45.1369 64.1201L45.1385 64.1217C45.3597 64.3428 45.5352 64.6227 45.5794 64.9508C45.6257 65.2942 45.5163 65.6262 45.2839 65.8668C44.8293 66.3375 44.124 66.2992 43.6399 65.9506L43.6395 65.9503L36.0579 60.4839C33.9052 60.8759 31.2264 60.2692 28.461 58.9598C25.5214 57.568 22.3798 55.3343 19.4778 52.4323C18.1256 51.0801 16.9195 49.6772 15.8765 48.2682C15.7555 48.1048 15.706 47.8992 15.7395 47.6985C15.773 47.4979 15.8865 47.3195 16.0541 47.2042L17.3769 46.2937L15.3562 46.7061C15.0516 46.7682 14.7402 46.636 14.5734 46.3736C12.9037 43.7474 11.81 41.1388 11.4453 38.8478C11.0824 36.5686 11.4273 34.4722 12.8278 33.0717C12.8546 33.0448 12.8832 33.0204 12.9131 32.9983C14.8561 31.1453 18.0605 31.233 21.3843 32.4408C24.8212 33.6898 28.6838 36.227 32.1885 39.7317C36.8219 44.3651 39.7848 49.6415 40.2827 53.7518L40.2828 53.7521C40.4335 55.0011 38.9818 55.8063 37.9991 55.0172Z" stroke="#171c4c" stroke-width="1.5" stroke-linejoin="round"/>
</g>
<path d="M16.8364 34.8223L43.8364 66.3223C44.3364 67.4889 40.324 63.5294 37.3365 61.8223C33.8364 59.8223 28.3359 61.4889 24.3359 56.8223C31.3359 56.3223 26.3359 50.8223 22.8359 45.8223C21.4596 43.8561 16.8364 34.8223 16.8364 34.8223Z" fill="#D2DCE4" style="mix-blend-mode:darken"/>
<path d="M39.8398 51.322L39.8397 55.8219C39.8397 55.8219 32.3288 52.4886 28.3288 47.8219C35.3288 47.3219 30.3288 41.8219 26.8288 36.8219C25.4524 34.8558 37.8396 41.8219 39.8398 51.322Z" fill="#D2DCE4" style="mix-blend-mode:darken"/>
<path d="M73.8841 78.7836L80.2019 79.0884L65.7125 79.6665L65.7105 79.6666C65.4999 79.6755 65.1227 79.7238 64.8636 80.0269C64.5187 80.4304 64.6671 80.8897 64.8044 81.1071C64.9392 81.3207 65.1376 81.4693 65.3151 81.5642C65.5034 81.6648 65.7285 81.7379 65.9715 81.7588L65.9719 81.7588L74.2868 82.4719C76.0336 83.6422 78.5614 84.5748 81.4231 85.19C84.3917 85.8282 87.7775 86.1373 91.1398 85.9944C95.1847 85.8225 98.5206 85.0255 100.616 83.8052C101.661 83.1962 102.478 82.4347 102.854 81.5134C103.25 80.546 103.111 79.5271 102.487 78.5705L101.782 77.4903L101.703 77.6431C101.144 77.1023 100.443 76.614 99.6505 76.1779C98.4151 75.4978 96.903 74.9144 95.2227 74.4475C91.8624 73.5137 87.7595 73.0263 83.6976 73.199C81.0033 73.3135 78.6411 73.7042 76.7512 74.3037C74.8827 74.8963 73.3881 75.7207 72.5341 76.7667L72.5337 76.7671C72.2867 77.0701 72.2812 77.4257 72.3601 77.6885C72.4329 77.931 72.5794 78.1238 72.7175 78.2606C72.9904 78.5309 73.4132 78.7617 73.8826 78.7836C73.8831 78.7836 73.8836 78.7836 73.8841 78.7836ZM66.0103 80.2339C66.0104 80.2338 66.0121 80.2349 66.0151 80.2373C66.0117 80.2352 66.0102 80.234 66.0103 80.2339Z" fill="#171c4c" stroke="#171c4c" stroke-width="1.5"/>
<g filter="url(#filter1_d_824_6225)">
<path fill-rule="evenodd" clip-rule="evenodd" d="M103.406 23.9108C105.686 19.9768 100.685 12.8275 92.2467 7.95552C86.6496 4.72404 80.9593 3.30856 77.0899 3.85879C76.5115 3.94129 76.3205 4.69647 76.7969 5.04503L92.0176 16.2577C92.4451 16.578 91.9956 17.2574 91.5302 16.9887L65.336 1.75938C64.6379 1.35633 64.3296 2.06012 64.8067 2.4499L72.3056 8.56751C72.4148 12.6069 77.0375 18.1907 84.0185 22.2212C85.6434 23.1593 87.2773 23.945 88.8728 24.5739L90.6425 19.5871L90.99 25.3245C96.8008 27.1507 101.774 26.7523 103.416 23.9082L103.406 23.9108Z" fill="white"/>
<path d="M91.5302 16.9887L65.336 1.75938M91.5302 16.9887C91.9956 17.2574 92.4451 16.578 92.0176 16.2577M91.5302 16.9887L91.7156 16.6677L91.9072 16.3404L91.7393 16.6292L92.0176 16.2577M91.5302 16.9887L91.7218 16.6593L92.0176 16.2577M65.336 1.75938L77.0899 3.85879C76.5115 3.94129 76.3205 4.69647 76.7969 5.04503L92.0176 16.2577M65.336 1.75938C64.6379 1.35633 64.3296 2.06012 64.8067 2.4499L65.336 1.75938ZM76.3531 5.64958C76.3534 5.64983 76.3538 5.65009 76.3541 5.65034L86.9641 13.4665L65.713 1.111L65.711 1.10986C65.4401 0.953467 65.1244 0.856298 64.796 0.898555C64.4524 0.942769 64.16 1.13435 63.9877 1.42109C63.6508 1.98201 63.8702 2.65334 64.3322 3.03073L64.3326 3.03105L71.5751 8.93949C71.7536 11.1203 73.0329 13.5508 75.0134 15.8831C77.1186 18.3623 80.0894 20.8187 83.6435 22.8707C85.2997 23.8269 86.9669 24.6288 88.5978 25.2716C88.787 25.3462 88.9984 25.3407 89.1836 25.2565C89.3687 25.1722 89.5116 25.0164 89.5797 24.8247L90.1167 23.3113L90.2414 25.3698C90.2602 25.6802 90.4685 25.9467 90.7652 26.0399C93.734 26.973 96.5368 27.3543 98.8442 27.1137C101.14 26.8742 103.075 25.9986 104.066 24.2832C104.085 24.2504 104.101 24.2165 104.114 24.1819C105.401 21.8255 104.487 18.7529 102.46 15.855C100.364 12.8585 96.914 9.7842 92.6217 7.306C86.9469 4.0297 81.0834 2.53337 76.9843 3.11626L76.984 3.11631C75.7386 3.29396 75.3365 4.90456 76.3531 5.64958Z" stroke="#171c4c" stroke-width="1.5" stroke-linejoin="round"/>
</g>
<path d="M103.67 21.0023L102.839 26.8221C101.583 26.6411 92.9167 26.3782 95.3389 28.8221C98.1766 31.6853 72.6024 16.6555 78.1453 19.3114C76.8165 12.4205 89.2691 22.1832 95.3388 22.8221C101.336 23.4535 103.149 22.092 103.67 21.0023L103.839 19.8221C103.839 19.8221 103.975 20.3659 103.67 21.0023Z" fill="#D2DCE4" style="mix-blend-mode:darken"/>
<path d="M92.8386 8.32368C95.2375 8.25252 111.533 24.297 101.839 24.8237C101.839 24.8237 97.8386 21.3237 76.3386 5.32368C101.839 19.3237 92.8386 8.32368 92.8386 8.32368Z" fill="#D2DCE4" style="mix-blend-mode:darken"/>
<path d="M111.916 106.139L118.143 105.028L104.147 108.821L104.145 108.822C103.942 108.877 103.585 109.008 103.4 109.362C103.154 109.832 103.401 110.247 103.583 110.428C103.762 110.606 103.988 110.707 104.183 110.76C104.389 110.816 104.624 110.837 104.866 110.803L104.866 110.803L113.131 109.645C115.095 110.396 117.767 110.742 120.694 110.704C123.73 110.664 127.099 110.211 130.345 109.322C134.25 108.253 137.324 106.732 139.095 105.076C139.978 104.249 140.604 103.325 140.766 102.342C140.936 101.311 140.573 100.349 139.752 99.5556L138.824 98.6597L138.781 98.8261C138.115 98.4237 137.323 98.1039 136.454 97.8554C135.098 97.4678 133.494 97.2361 131.751 97.1555C128.268 96.9942 124.159 97.4336 120.238 98.5073C117.637 99.2195 115.421 100.127 113.713 101.133C112.023 102.127 110.75 103.264 110.151 104.474L110.15 104.474C109.977 104.825 110.051 105.172 110.186 105.411C110.311 105.631 110.497 105.786 110.662 105.889C110.989 106.092 111.452 106.223 111.915 106.139C111.915 106.139 111.916 106.139 111.916 106.139ZM104.564 109.308C104.564 109.308 104.566 109.308 104.569 109.31C104.565 109.309 104.564 109.308 104.564 109.308Z" fill="#171c4c" stroke="#171c4c" stroke-width="1.5"/>
<g filter="url(#filter2_d_824_6225)">
<path fill-rule="evenodd" clip-rule="evenodd" d="M137.318 22.612C134.108 19.392 125.908 22.372 119.018 29.262C114.448 33.832 111.608 38.962 111.138 42.842C111.068 43.422 111.748 43.802 112.208 43.432L126.978 31.632C127.398 31.302 127.938 31.912 127.558 32.292L106.068 53.652C105.498 54.222 106.098 54.702 106.598 54.342L114.448 48.682C118.378 49.622 124.968 46.602 130.668 40.902C131.994 39.5753 133.176 38.2003 134.197 36.822L129.838 33.822L135.469 34.9712C138.737 29.8311 139.64 24.9241 137.318 22.602V22.612Z" fill="white"/>
<path d="M127.558 32.292L106.068 53.652M127.558 32.292C127.938 31.912 127.398 31.302 126.978 31.632M127.558 32.292L127.295 32.0298L127.029 31.7601L127.264 31.997L126.978 31.632M127.558 32.292L127.289 32.0217L126.978 31.632M106.068 53.652L111.138 42.842C111.068 43.422 111.748 43.802 112.208 43.432L126.978 31.632M106.068 53.652C105.498 54.222 106.098 54.702 106.598 54.342L106.068 53.652ZM112.677 44.0172C112.677 44.0169 112.677 44.0167 112.678 44.0164L122.974 35.7909L105.539 53.1201L105.537 53.1217C105.316 53.3428 105.141 53.6227 105.096 53.9508C105.05 54.2942 105.16 54.6262 105.392 54.8668C105.846 55.3375 106.552 55.2992 107.036 54.9506L107.036 54.9503L114.618 49.4839C116.771 49.8759 119.449 49.2692 122.215 47.9598C125.154 46.568 128.296 44.3343 131.198 41.4323C132.55 40.0801 133.756 38.6772 134.799 37.2682C134.92 37.1048 134.97 36.8992 134.936 36.6985C134.903 36.4979 134.789 36.3195 134.622 36.2042L133.299 35.2937L135.32 35.7061C135.624 35.7682 135.936 35.636 136.102 35.3736C137.772 32.7474 138.866 30.1388 139.231 27.8478C139.593 25.5686 139.249 23.4722 137.848 22.0717C137.821 22.0448 137.793 22.0204 137.763 21.9983C135.82 20.1453 132.615 20.233 129.291 21.4408C125.855 22.6898 121.992 25.227 118.487 28.7317C113.854 33.3651 110.891 38.6415 110.393 42.7518L110.393 42.7521C110.242 44.0011 111.694 44.8063 112.677 44.0172Z" stroke="#171c4c" stroke-width="1.5" stroke-linejoin="round"/>
</g>
<path d="M133.839 23.8223L106.839 55.3223C106.339 56.4889 110.352 52.5294 113.339 50.8223C116.839 48.8223 122.34 50.4889 126.34 45.8223C119.34 45.3223 124.34 39.8223 127.84 34.8223C129.216 32.8561 133.839 23.8223 133.839 23.8223Z" fill="#D2DCE4" style="mix-blend-mode:darken"/>
<path d="M110.836 40.322L110.836 44.8219C110.836 44.8219 118.347 41.4886 122.347 36.8219C115.347 36.3219 120.347 30.8219 123.847 25.8219C125.223 23.8558 112.836 30.8219 110.836 40.322Z" fill="#D2DCE4" style="mix-blend-mode:darken"/>
<g style="mix-blend-mode:soft-light" opacity="0.15">
<path d="M38.7596 117.139L32.5327 116.028L46.5288 119.821L46.5307 119.822C46.734 119.877 47.0909 120.008 47.2759 120.362C47.5223 120.832 47.2752 121.247 47.0929 121.428C46.9139 121.606 46.6873 121.707 46.4932 121.76C46.2872 121.816 46.0514 121.837 45.8098 121.803L45.8095 121.803L37.5448 120.645C35.5811 121.396 32.909 121.742 29.9822 121.704C26.946 121.664 23.5765 121.211 20.3306 120.322C16.4259 119.253 13.3516 117.732 11.5812 116.076C10.6977 115.249 10.0717 114.325 9.90965 113.342C9.73954 112.311 10.1024 111.349 10.9242 110.556L11.8522 109.66L11.8948 109.826C12.5605 109.424 13.3528 109.104 14.2223 108.855C15.5781 108.468 17.1822 108.236 18.9243 108.155C22.4082 107.994 26.5165 108.434 30.4378 109.507C33.0388 110.22 35.2544 111.127 36.9632 112.133C38.6526 113.127 39.9258 114.264 40.5252 115.474L40.5254 115.474C40.6987 115.825 40.6248 116.172 40.4893 116.411C40.3643 116.631 40.1785 116.786 40.0134 116.889C39.6871 117.092 39.2235 117.223 38.761 117.139C38.7605 117.139 38.76 117.139 38.7596 117.139ZM46.112 120.308C46.1119 120.308 46.11 120.308 46.1065 120.31C46.1103 120.309 46.1121 120.308 46.112 120.308Z" fill="#7000FF" stroke="#7000FF" stroke-width="1.5"/>
<g filter="url(#filter3_d_824_6225)">
<path fill-rule="evenodd" clip-rule="evenodd" d="M13.3582 33.612C16.5682 30.392 24.7682 33.372 31.6582 40.262C36.2282 44.832 39.0682 49.962 39.5382 53.842C39.6082 54.422 38.9282 54.802 38.4682 54.432L23.6982 42.632C23.2782 42.302 22.7382 42.912 23.1182 43.292L44.6082 64.652C45.1782 65.222 44.5782 65.702 44.0782 65.342L36.2282 59.682C32.2982 60.622 25.7082 57.602 20.0082 51.902C18.6814 50.5753 17.4997 49.2003 16.4793 47.822L20.8381 44.822L15.2063 45.9712C11.9383 40.8311 11.036 35.9241 13.3582 33.602V33.612Z" fill="#7000FF"/>
<path d="M23.1182 43.292L44.6082 64.652M23.1182 43.292C22.7382 42.912 23.2782 42.302 23.6982 42.632M23.1182 43.292L23.3803 43.0298L23.6469 42.7601L23.4114 42.997L23.6982 42.632M23.1182 43.292L23.3868 43.0217L23.6982 42.632M44.6082 64.652L39.5382 53.842C39.6082 54.422 38.9282 54.802 38.4682 54.432L23.6982 42.632M44.6082 64.652C45.1782 65.222 44.5782 65.702 44.0782 65.342L44.6082 64.652ZM37.9991 55.0172C37.9988 55.0169 37.9984 55.0167 37.9981 55.0164L27.7022 46.7909L45.1369 64.1201L45.1385 64.1217C45.3597 64.3428 45.5352 64.6227 45.5794 64.9508C45.6257 65.2942 45.5163 65.6262 45.2839 65.8668C44.8293 66.3375 44.124 66.2992 43.6399 65.9506L43.6395 65.9503L36.0579 60.4839C33.9052 60.8759 31.2264 60.2692 28.461 58.9598C25.5214 57.568 22.3798 55.3343 19.4778 52.4323C18.1256 51.0801 16.9195 49.6772 15.8765 48.2682C15.7555 48.1048 15.706 47.8992 15.7395 47.6985C15.773 47.4979 15.8865 47.3195 16.0541 47.2042L17.3769 46.2937L15.3562 46.7061C15.0516 46.7682 14.7402 46.636 14.5734 46.3736C12.9037 43.7474 11.81 41.1388 11.4453 38.8478C11.0824 36.5686 11.4273 34.4722 12.8278 33.0717C12.8546 33.0448 12.8832 33.0204 12.9131 32.9983C14.8561 31.1453 18.0605 31.233 21.3843 32.4408C24.8212 33.6898 28.6838 36.227 32.1885 39.7317C36.8219 44.3651 39.7848 49.6415 40.2827 53.7518L40.2828 53.7521C40.4335 55.0011 38.9818 55.8063 37.9991 55.0172Z" stroke="#7000FF" stroke-width="1.5" stroke-linejoin="round"/>
</g>
<path d="M16.8364 34.8223L43.8364 66.3223C44.3364 67.4889 40.324 63.5294 37.3365 61.8223C33.8364 59.8223 28.3359 61.4889 24.3359 56.8223C31.3359 56.3223 26.3359 50.8223 22.8359 45.8223C21.4596 43.8561 16.8364 34.8223 16.8364 34.8223Z" fill="#7000FF" style="mix-blend-mode:darken"/>
<path d="M39.8398 51.322L39.8397 55.8219C39.8397 55.8219 32.3288 52.4886 28.3288 47.8219C35.3288 47.3219 30.3288 41.8219 26.8288 36.8219C25.4524 34.8558 37.8396 41.8219 39.8398 51.322Z" fill="#7000FF" style="mix-blend-mode:darken"/>
<path d="M73.8841 78.7836L80.2019 79.0884L65.7125 79.6665L65.7105 79.6666C65.4999 79.6755 65.1227 79.7238 64.8636 80.0269C64.5187 80.4304 64.6671 80.8897 64.8044 81.1071C64.9392 81.3207 65.1376 81.4693 65.3151 81.5642C65.5034 81.6648 65.7285 81.7379 65.9715 81.7588L65.9719 81.7588L74.2868 82.4719C76.0336 83.6422 78.5614 84.5748 81.4231 85.19C84.3917 85.8282 87.7775 86.1373 91.1398 85.9944C95.1847 85.8225 98.5206 85.0255 100.616 83.8052C101.661 83.1962 102.478 82.4347 102.854 81.5134C103.25 80.546 103.111 79.5271 102.487 78.5705L101.782 77.4903L101.703 77.6431C101.144 77.1023 100.443 76.614 99.6505 76.1779C98.4151 75.4978 96.903 74.9144 95.2227 74.4475C91.8624 73.5137 87.7595 73.0263 83.6976 73.199C81.0033 73.3135 78.6411 73.7042 76.7512 74.3037C74.8827 74.8963 73.3881 75.7207 72.5341 76.7667L72.5337 76.7671C72.2867 77.0701 72.2812 77.4257 72.3601 77.6885C72.4329 77.931 72.5794 78.1238 72.7175 78.2606C72.9904 78.5309 73.4132 78.7617 73.8826 78.7836C73.8831 78.7836 73.8836 78.7836 73.8841 78.7836ZM66.0103 80.2339C66.0104 80.2338 66.0121 80.2349 66.0151 80.2373C66.0117 80.2352 66.0102 80.234 66.0103 80.2339Z" fill="#7000FF" stroke="#7000FF" stroke-width="1.5"/>
<g filter="url(#filter4_d_824_6225)">
<path fill-rule="evenodd" clip-rule="evenodd" d="M103.406 23.9108C105.686 19.9768 100.685 12.8275 92.2467 7.95552C86.6496 4.72404 80.9593 3.30856 77.0899 3.85879C76.5115 3.94129 76.3205 4.69647 76.7969 5.04503L92.0176 16.2577C92.4451 16.578 91.9956 17.2574 91.5302 16.9887L65.336 1.75938C64.6379 1.35633 64.3296 2.06012 64.8067 2.4499L72.3056 8.56751C72.4148 12.6069 77.0375 18.1907 84.0185 22.2212C85.6434 23.1593 87.2773 23.945 88.8728 24.5739L90.6425 19.5871L90.99 25.3245C96.8008 27.1507 101.774 26.7523 103.416 23.9082L103.406 23.9108Z" fill="#7000FF"/>
<path d="M91.5302 16.9887L65.336 1.75938M91.5302 16.9887C91.9956 17.2574 92.4451 16.578 92.0176 16.2577M91.5302 16.9887L91.7156 16.6677L91.9072 16.3404L91.7393 16.6292L92.0176 16.2577M91.5302 16.9887L91.7218 16.6593L92.0176 16.2577M65.336 1.75938L77.0899 3.85879C76.5115 3.94129 76.3205 4.69647 76.7969 5.04503L92.0176 16.2577M65.336 1.75938C64.6379 1.35633 64.3296 2.06012 64.8067 2.4499L65.336 1.75938ZM76.3531 5.64958C76.3534 5.64983 76.3538 5.65009 76.3541 5.65034L86.9641 13.4665L65.713 1.111L65.711 1.10986C65.4401 0.953467 65.1244 0.856298 64.796 0.898555C64.4524 0.942769 64.16 1.13435 63.9877 1.42109C63.6508 1.98201 63.8702 2.65334 64.3322 3.03073L64.3326 3.03105L71.5751 8.93949C71.7536 11.1203 73.0329 13.5508 75.0134 15.8831C77.1186 18.3623 80.0894 20.8187 83.6435 22.8707C85.2997 23.8269 86.9669 24.6288 88.5978 25.2716C88.787 25.3462 88.9984 25.3407 89.1836 25.2565C89.3687 25.1722 89.5116 25.0164 89.5797 24.8247L90.1167 23.3113L90.2414 25.3698C90.2602 25.6802 90.4685 25.9467 90.7652 26.0399C93.734 26.973 96.5368 27.3543 98.8442 27.1137C101.14 26.8742 103.075 25.9986 104.066 24.2832C104.085 24.2504 104.101 24.2165 104.114 24.1819C105.401 21.8255 104.487 18.7529 102.46 15.855C100.364 12.8585 96.914 9.7842 92.6217 7.306C86.9469 4.0297 81.0834 2.53337 76.9843 3.11626L76.984 3.11631C75.7386 3.29396 75.3365 4.90456 76.3531 5.64958Z" stroke="#7000FF" stroke-width="1.5" stroke-linejoin="round"/>
</g>
<path d="M103.67 21.0023L102.839 26.8221C101.583 26.6411 92.9167 26.3782 95.3389 28.8221C98.1766 31.6853 72.6024 16.6555 78.1453 19.3114C76.8165 12.4205 89.2691 22.1832 95.3388 22.8221C101.336 23.4535 103.149 22.092 103.67 21.0023L103.839 19.8221C103.839 19.8221 103.975 20.3659 103.67 21.0023Z" fill="#7000FF" style="mix-blend-mode:darken"/>
<path d="M92.8386 8.32368C95.2375 8.25252 111.533 24.297 101.839 24.8237C101.839 24.8237 97.8386 21.3237 76.3386 5.32368C101.839 19.3237 92.8386 8.32368 92.8386 8.32368Z" fill="#7000FF" style="mix-blend-mode:darken"/>
<path d="M111.916 106.139L118.143 105.028L104.147 108.821L104.145 108.822C103.942 108.877 103.585 109.008 103.4 109.362C103.154 109.832 103.401 110.247 103.583 110.428C103.762 110.606 103.988 110.707 104.183 110.76C104.389 110.816 104.624 110.837 104.866 110.803L104.866 110.803L113.131 109.645C115.095 110.396 117.767 110.742 120.694 110.704C123.73 110.664 127.099 110.211 130.345 109.322C134.25 108.253 137.324 106.732 139.095 105.076C139.978 104.249 140.604 103.325 140.766 102.342C140.936 101.311 140.573 100.349 139.752 99.5556L138.824 98.6597L138.781 98.8261C138.115 98.4237 137.323 98.1039 136.454 97.8554C135.098 97.4678 133.494 97.2361 131.751 97.1555C128.268 96.9942 124.159 97.4336 120.238 98.5073C117.637 99.2195 115.421 100.127 113.713 101.133C112.023 102.127 110.75 103.264 110.151 104.474L110.15 104.474C109.977 104.825 110.051 105.172 110.186 105.411C110.311 105.631 110.497 105.786 110.662 105.889C110.989 106.092 111.452 106.223 111.915 106.139C111.915 106.139 111.916 106.139 111.916 106.139ZM104.564 109.308C104.564 109.308 104.566 109.308 104.569 109.31C104.565 109.309 104.564 109.308 104.564 109.308Z" fill="#7000FF" stroke="#7000FF" stroke-width="1.5"/>
<g filter="url(#filter5_d_824_6225)">
<path fill-rule="evenodd" clip-rule="evenodd" d="M137.318 22.612C134.108 19.392 125.908 22.372 119.018 29.262C114.448 33.832 111.608 38.962 111.138 42.842C111.068 43.422 111.748 43.802 112.208 43.432L126.978 31.632C127.398 31.302 127.938 31.912 127.558 32.292L106.068 53.652C105.498 54.222 106.098 54.702 106.598 54.342L114.448 48.682C118.378 49.622 124.968 46.602 130.668 40.902C131.994 39.5753 133.176 38.2003 134.197 36.822L129.838 33.822L135.469 34.9712C138.737 29.8311 139.64 24.9241 137.318 22.602V22.612Z" fill="#7000FF"/>
<path d="M127.558 32.292L106.068 53.652M127.558 32.292C127.938 31.912 127.398 31.302 126.978 31.632M127.558 32.292L127.295 32.0298L127.029 31.7601L127.264 31.997L126.978 31.632M127.558 32.292L127.289 32.0217L126.978 31.632M106.068 53.652L111.138 42.842C111.068 43.422 111.748 43.802 112.208 43.432L126.978 31.632M106.068 53.652C105.498 54.222 106.098 54.702 106.598 54.342L106.068 53.652ZM112.677 44.0172C112.677 44.0169 112.677 44.0167 112.678 44.0164L122.974 35.7909L105.539 53.1201L105.537 53.1217C105.316 53.3428 105.141 53.6227 105.096 53.9508C105.05 54.2942 105.16 54.6262 105.392 54.8668C105.846 55.3375 106.552 55.2992 107.036 54.9506L107.036 54.9503L114.618 49.4839C116.771 49.8759 119.449 49.2692 122.215 47.9598C125.154 46.568 128.296 44.3343 131.198 41.4323C132.55 40.0801 133.756 38.6772 134.799 37.2682C134.92 37.1048 134.97 36.8992 134.936 36.6985C134.903 36.4979 134.789 36.3195 134.622 36.2042L133.299 35.2937L135.32 35.7061C135.624 35.7682 135.936 35.636 136.102 35.3736C137.772 32.7474 138.866 30.1388 139.231 27.8478C139.593 25.5686 139.249 23.4722 137.848 22.0717C137.821 22.0448 137.793 22.0204 137.763 21.9983C135.82 20.1453 132.615 20.233 129.291 21.4408C125.855 22.6898 121.992 25.227 118.487 28.7317C113.854 33.3651 110.891 38.6415 110.393 42.7518L110.393 42.7521C110.242 44.0011 111.694 44.8063 112.677 44.0172Z" stroke="#7000FF" stroke-width="1.5" stroke-linejoin="round"/>
</g>
<path d="M133.839 23.8223L106.839 55.3223C106.339 56.4889 110.352 52.5294 113.339 50.8223C116.839 48.8223 122.34 50.4889 126.34 45.8223C119.34 45.3223 124.34 39.8223 127.84 34.8223C129.216 32.8561 133.839 23.8223 133.839 23.8223Z" fill="#7000FF" style="mix-blend-mode:darken"/>
<path d="M110.836 40.322L110.836 44.8219C110.836 44.8219 118.347 41.4886 122.347 36.8219C115.347 36.3219 120.347 30.8219 123.847 25.8219C125.223 23.8558 112.836 30.8219 110.836 40.322Z" fill="#7000FF" style="mix-blend-mode:darken"/>
</g>
<defs>
<filter id="filter0_d_824_6225" x="10.5625" y="30.8145" width="35.7773" height="38.1523" filterUnits="userSpaceOnUse" color-interpolation-filters="sRGB">
<feFlood flood-opacity="0" result="BackgroundImageFix"/>
<feColorMatrix in="SourceAlpha" type="matrix" values="0 0 0 0 0 0 0 0 0 0 0 0 0 0 0 0 0 0 127 0" result="hardAlpha"/>
<feOffset dy="2"/>
<feComposite in2="hardAlpha" operator="out"/>
<feColorMatrix type="matrix" values="0 0 0 0 0.0980392 0 0 0 0 0.172549 0 0 0 0 0.25098 0 0 0 1 0"/>
<feBlend mode="normal" in2="BackgroundImageFix" result="effect1_dropShadow_824_6225"/>
<feBlend mode="normal" in="SourceGraphic" in2="effect1_dropShadow_824_6225" result="shape"/>
</filter>
<filter id="filter1_d_824_6225" x="63.0742" y="0.138672" width="42.3867" height="29.7949" filterUnits="userSpaceOnUse" color-interpolation-filters="sRGB">
<feFlood flood-opacity="0" result="BackgroundImageFix"/>
<feColorMatrix in="SourceAlpha" type="matrix" values="0 0 0 0 0 0 0 0 0 0 0 0 0 0 0 0 0 0 127 0" result="hardAlpha"/>
<feOffset dy="2"/>
<feComposite in2="hardAlpha" operator="out"/>
<feColorMatrix type="matrix" values="0 0 0 0 0.0980392 0 0 0 0 0.172549 0 0 0 0 0.25098 0 0 0 1 0"/>
<feBlend mode="normal" in2="BackgroundImageFix" result="effect1_dropShadow_824_6225"/>
<feBlend mode="normal" in="SourceGraphic" in2="effect1_dropShadow_824_6225" result="shape"/>
</filter>
<filter id="filter2_d_824_6225" x="104.336" y="19.8145" width="35.7773" height="38.1523" filterUnits="userSpaceOnUse" color-interpolation-filters="sRGB">
<feFlood flood-opacity="0" result="BackgroundImageFix"/>
<feColorMatrix in="SourceAlpha" type="matrix" values="0 0 0 0 0 0 0 0 0 0 0 0 0 0 0 0 0 0 127 0" result="hardAlpha"/>
<feOffset dy="2"/>
<feComposite in2="hardAlpha" operator="out"/>
<feColorMatrix type="matrix" values="0 0 0 0 0.0980392 0 0 0 0 0.172549 0 0 0 0 0.25098 0 0 0 1 0"/>
<feBlend mode="normal" in2="BackgroundImageFix" result="effect1_dropShadow_824_6225"/>
<feBlend mode="normal" in="SourceGraphic" in2="effect1_dropShadow_824_6225" result="shape"/>
</filter>
<filter id="filter3_d_824_6225" x="10.5625" y="30.8145" width="35.7773" height="38.1523" filterUnits="userSpaceOnUse" color-interpolation-filters="sRGB">
<feFlood flood-opacity="0" result="BackgroundImageFix"/>
<feColorMatrix in="SourceAlpha" type="matrix" values="0 0 0 0 0 0 0 0 0 0 0 0 0 0 0 0 0 0 127 0" result="hardAlpha"/>
<feOffset dy="2"/>
<feComposite in2="hardAlpha" operator="out"/>
<feColorMatrix type="matrix" values="0 0 0 0 0.439216 0 0 0 0 0 0 0 0 0 1 0 0 0 1 0"/>
<feBlend mode="normal" in2="BackgroundImageFix" result="effect1_dropShadow_824_6225"/>
<feBlend mode="normal" in="SourceGraphic" in2="effect1_dropShadow_824_6225" result="shape"/>
</filter>
<filter id="filter4_d_824_6225" x="63.0742" y="0.138672" width="42.3867" height="29.7949" filterUnits="userSpaceOnUse" color-interpolation-filters="sRGB">
<feFlood flood-opacity="0" result="BackgroundImageFix"/>
<feColorMatrix in="SourceAlpha" type="matrix" values="0 0 0 0 0 0 0 0 0 0 0 0 0 0 0 0 0 0 127 0" result="hardAlpha"/>
<feOffset dy="2"/>
<feComposite in2="hardAlpha" operator="out"/>
<feColorMatrix type="matrix" values="0 0 0 0 0.439216 0 0 0 0 0 0 0 0 0 1 0 0 0 1 0"/>
<feBlend mode="normal" in2="BackgroundImageFix" result="effect1_dropShadow_824_6225"/>
<feBlend mode="normal" in="SourceGraphic" in2="effect1_dropShadow_824_6225" result="shape"/>
</filter>
<filter id="filter5_d_824_6225" x="104.336" y="19.8145" width="35.7773" height="38.1523" filterUnits="userSpaceOnUse" color-interpolation-filters="sRGB">
<feFlood flood-opacity="0" result="BackgroundImageFix"/>
<feColorMatrix in="SourceAlpha" type="matrix" values="0 0 0 0 0 0 0 0 0 0 0 0 0 0 0 0 0 0 127 0" result="hardAlpha"/>
<feOffset dy="2"/>
<feComposite in2="hardAlpha" operator="out"/>
<feColorMatrix type="matrix" values="0 0 0 0 0.439216 0 0 0 0 0 0 0 0 0 1 0 0 0 1 0"/>
<feBlend mode="normal" in2="BackgroundImageFix" result="effect1_dropShadow_824_6225"/>
<feBlend mode="normal" in="SourceGraphic" in2="effect1_dropShadow_824_6225" result="shape"/>
</filter>
</defs>
</svg>
