<svg width="180" height="494" viewBox="0 0 180 494" fill="none" xmlns="http://www.w3.org/2000/svg">
<g clip-path="url(#clip0_818_6146)">
<path fill-rule="evenodd" clip-rule="evenodd" d="M129 332.542C123.241 331 119 325.745 119 319.5C119 312.044 125.044 306 132.5 306C136.289 306 139.713 307.561 142.165 310.075C142.958 306.042 146.513 303 150.778 303C152.832 303 154.721 303.705 156.216 304.887C158.487 299.657 163.698 296 169.763 296C176.387 296 181.993 300.363 183.862 306.371C185.469 304.319 187.97 303 190.778 303C193.155 303 195.311 303.945 196.892 305.479C199.594 302.021 203.803 299.798 208.531 299.798C213.049 299.798 217.093 301.827 219.801 305.024C222.321 301.384 226.527 299 231.29 299C237.398 299 242.591 302.922 244.487 308.385C246.091 307.012 248.175 306.182 250.452 306.182C255.52 306.182 259.629 310.291 259.629 315.359C259.629 315.575 259.622 315.788 259.607 316H277V352H129V332.542Z" fill="#005D54"/>
<path fill-rule="evenodd" clip-rule="evenodd" d="M176 312C176 316.971 171.971 321 167 321C163.72 321 160.85 319.246 159.277 316.624C159.278 316.66 159.278 316.695 159.278 316.731C159.278 320.95 155.858 324.37 151.639 324.37C147.42 324.37 144 320.95 144 316.731C144 312.512 147.42 309.092 151.639 309.092C154.303 309.092 156.648 310.455 158.015 312.522C158.005 312.349 158 312.175 158 312C158 307.029 162.029 303 167 303C171.971 303 176 307.029 176 312ZM218 314.5C218 319.747 213.747 324 208.5 324C204.289 324 200.717 321.26 199.472 317.465C198.531 319.549 196.435 321 194 321C190.686 321 188 318.314 188 315C188 311.686 190.686 309 194 309C196.288 309 198.277 310.281 199.289 312.165C200.33 308.047 204.059 305 208.5 305C213.747 305 218 309.253 218 314.5ZM238.627 320.09C238.788 319.914 238.943 319.732 239.09 319.544C239.13 319.774 239.183 319.999 239.247 320.219C239.044 320.167 238.837 320.124 238.627 320.09ZM231.87 322.999C226.959 322.93 223 318.927 223 314C223 309.029 227.029 305 232 305C236.954 305 240.974 309.003 241 313.951C242.27 312.747 244.041 312 246 312C249.866 312 253 314.91 253 318.5C253 322.09 249.866 325 246 325C245.248 325 244.523 324.89 243.844 324.686C243.946 325.109 244 325.549 244 326C244 329.314 241.09 332 237.5 332C233.91 332 231 329.314 231 326C231 324.907 231.317 323.882 231.87 322.999ZM166 327.5C166 329.985 163.761 332 161 332C158.239 332 156 329.985 156 327.5C156 325.015 158.239 323 161 323C163.761 323 166 325.015 166 327.5ZM254 336C256.761 336 259 333.985 259 331.5C259 329.015 256.761 327 254 327C251.239 327 249 329.015 249 331.5C249 333.985 251.239 336 254 336Z" fill="#068070"/>
<path fill-rule="evenodd" clip-rule="evenodd" d="M146.615 145C146.822 145.956 146.93 146.948 146.93 147.965C146.93 155.678 140.678 161.93 132.965 161.93C125.252 161.93 119 155.678 119 147.965C119 142.899 121.698 138.463 125.735 136.015C122.387 134.777 120 131.557 120 127.778C120 126.955 120.113 126.159 120.325 125.403C117.665 122.937 116 119.413 116 115.5C116 111.473 117.763 107.858 120.559 105.385C119.563 103.463 119 101.28 119 98.965C119 93.899 121.698 89.463 125.735 87.015C122.387 85.777 120 82.556 120 78.778C120 77.955 120.113 77.159 120.325 76.403C117.665 73.937 116 70.413 116 66.5C116 62.533 117.711 58.966 120.434 56.497C118.298 54.109 117 50.956 117 47.5C117 40.044 123.044 34 130.5 34C134.289 34 137.713 35.561 140.165 38.075C140.958 34.042 144.513 31 148.778 31C150.832 31 152.721 31.705 154.216 32.887C156.487 27.657 161.698 24 167.763 24C174.387 24 179.992 28.363 181.862 34.371C183.469 32.319 185.969 31 188.778 31C191.155 31 193.311 31.945 194.892 33.479C197.594 30.021 201.803 27.798 206.531 27.798C211.049 27.798 215.093 29.827 217.801 33.024C220.321 29.384 224.527 27 229.29 27C234.831 27 239.619 30.228 241.875 34.905C242.974 34.44 244.183 34.182 245.452 34.182C248.588 34.182 251.357 35.755 253.012 38.156C253.331 30.284 259.813 24 267.763 24C275.917 24 282.526 30.61 282.526 38.763C282.526 44.287 279.492 49.103 275 51.634V145H146.615Z" fill="#005D54"/>
<path fill-rule="evenodd" clip-rule="evenodd" d="M304 31C308.418 31 312 27.642 312 23.5C312 19.358 308.418 16 304 16C299.582 16 296 19.358 296 23.5C296 27.642 299.582 31 304 31ZM290 31.5C290 33.247 289.258 34.832 288.051 36C290.789 36.025 293 38.03 293 40.5C293 42.985 290.761 45 288 45C285.239 45 283 42.985 283 40.5C283 39.553 283.325 38.674 283.88 37.949C283.592 37.983 283.298 38 283 38C281.013 38 279.219 37.231 277.945 35.996C277.981 36.326 278 36.661 278 37C278 41.971 273.971 46 269 46C264.029 46 260 41.971 260 37C260 32.029 264.029 28 269 28C271.828 28 274.352 29.305 276.002 31.345C276.091 27.827 279.19 25 283 25C286.866 25 290 27.91 290 31.5ZM175 40C175 44.971 170.971 49 166 49C162.72 49 159.85 47.246 158.277 44.624C158.278 44.66 158.278 44.695 158.278 44.731C158.278 47.96 156.274 50.721 153.442 51.839C154.247 52.262 154.953 52.828 155.519 53.501C156.337 52.019 158.036 51 160 51C162.761 51 165 53.015 165 55.5C165 57.985 162.761 60 160 60C158.792 60 157.684 59.614 156.82 58.972C156.101 61.853 153.321 64 150 64C146.134 64 143 61.09 143 57.5C143 54.84 144.721 52.553 147.186 51.547C144.702 50.286 143 47.707 143 44.731C143 40.512 146.42 37.092 150.639 37.092C153.303 37.092 155.648 38.455 157.015 40.522C157.005 40.349 157 40.175 157 40C157 35.029 161.029 31 166 31C170.971 31 175 35.029 175 40ZM214 42.5C214 47.747 209.747 52 204.5 52C200.289 52 196.717 49.26 195.472 45.465C194.531 47.549 192.435 49 190 49C186.686 49 184 46.314 184 43C184 39.686 186.686 37 190 37C192.288 37 194.277 38.281 195.289 40.165C196.33 36.047 200.059 33 204.5 33C209.747 33 214 37.253 214 42.5ZM236.964 41.189C238.105 40.44 239.497 40 241 40C244.866 40 248 42.91 248 46.5C248 50.09 244.866 53 241 53C240.624 53 240.255 52.972 239.895 52.919C239.964 53.27 240 53.631 240 54C240 57.314 237.09 60 233.5 60C229.91 60 227 57.314 227 54C227 52.907 227.317 51.882 227.87 50.999C222.959 50.93 219 46.927 219 42C219 37.029 223.029 33 228 33C232.697 33 236.554 36.598 236.964 41.189ZM140 47.5C140 50.844 137.666 53.676 134.443 54.644C137.705 55.921 140 58.957 140 62.5C140 67.194 135.971 71 131 71C126.029 71 122 67.194 122 62.5C122 58.583 124.805 55.285 128.621 54.3C125.891 53.106 124 50.51 124 47.5C124 43.358 127.582 40 132 40C136.418 40 140 43.358 140 47.5ZM179 57C181.761 57 184 54.985 184 52.5C184 50.015 181.761 48 179 48C176.239 48 174 50.015 174 52.5C174 54.985 176.239 57 179 57ZM250 64C252.761 64 255 61.985 255 59.5C255 57.015 252.761 55 250 55C247.239 55 245 57.015 245 59.5C245 61.985 247.239 64 250 64Z" fill="#068070"/>
<path d="M140 254.947H135C131.686 254.947 129 257.634 129 260.947V322.914C129 326.227 131.686 328.914 135 328.914H140C143.314 328.914 146 326.227 146 322.914V260.947C146 257.634 143.314 254.947 140 254.947Z" fill="#FFD2B8"/>
<path d="M146.328 260.377H128.961V265.936H146.328V260.377Z" fill="#E2AA8F"/>
<path d="M137.645 335C142.441 335 146.328 331.111 146.328 326.313C146.328 321.516 142.441 317.627 137.645 317.627C132.849 317.627 128.961 321.516 128.961 326.313C128.961 331.111 132.849 335 137.645 335Z" fill="#FFD2B8"/>
<path d="M265 140H125C120.582 140 117 143.582 117 148V246.093C117 250.511 120.582 254.093 125 254.093H265V140Z" fill="#6431D3"/>
<path d="M117.066 147.508C117.066 143.66 120.637 140.807 124.389 141.655L165.598 150.971C166.032 151.069 166.476 151.118 166.921 151.118H209.367C209.768 151.118 210.169 151.078 210.563 150.998L257.424 141.464C261.143 140.708 264.621 143.549 264.621 147.344V247.964C264.621 251.278 261.934 253.964 258.621 253.964H123.066C119.753 253.964 117.066 251.278 117.066 247.964V147.508Z" fill="#7A41EB"/>
<path d="M123.548 244.671C120.784 248.65 123.631 254.095 128.475 254.095H251.665C256.67 254.095 259.475 248.328 256.385 244.39L210.107 185.423C208.97 183.974 207.229 183.127 205.387 183.127H169.443C167.477 183.127 165.637 184.09 164.515 185.704L123.548 244.671Z" fill="#874CF1"/>
<g style="mix-blend-mode:darken">
<path d="M263 160.102H117" stroke="#7A41EB" stroke-width="3"/>
</g>
<g style="mix-blend-mode:darken">
<path d="M263 180.102H117" stroke="#7A41EB" stroke-width="3"/>
</g>
<g style="mix-blend-mode:darken">
<path d="M263 200.102H117" stroke="#7A41EB" stroke-width="3"/>
</g>
<g style="mix-blend-mode:darken">
<path d="M263 220.102H117" stroke="#7A41EB" stroke-width="3"/>
</g>
<g style="mix-blend-mode:darken">
<path d="M263 240.102H117" stroke="#7A41EB" stroke-width="3"/>
</g>
<path d="M202.518 183.084H172.25C168.936 183.084 166.25 180.398 166.25 177.084V157.813C166.25 154.5 168.936 151.813 172.25 151.813H202.518C205.832 151.813 208.518 154.5 208.518 157.813V177.084C208.518 180.398 205.832 183.084 202.518 183.084Z" fill="#975FFC"/>
<path d="M265 138.5H266.5V140V254.093V255.593H265H125C119.753 255.593 115.5 251.34 115.5 246.093V148C115.5 142.753 119.753 138.5 125 138.5H265Z" stroke="#6431D3" stroke-width="3"/>
<path d="M265 141.5H266.5V143V257.093V258.593H265H125C119.753 258.593 115.5 254.34 115.5 249.093V151C115.5 145.753 119.753 141.5 125 141.5H265Z" stroke="#6431D3" stroke-width="3"/>
<path fill-rule="evenodd" clip-rule="evenodd" d="M122.359 329C127.428 329 131.536 333.109 131.536 338.177C131.536 338.801 131.474 339.411 131.355 340H277V409.03C277.331 409.01 277.664 409 278 409C281.653 409 285.02 410.186 287.714 412.182C289.265 410.249 291.728 409 294.5 409C297.281 409 299.751 410.257 301.301 412.201C302.013 412.069 302.748 412 303.5 412C308.121 412 312.105 414.607 313.933 418.367C316.031 412.768 321.431 408.781 327.763 408.781C333.846 408.781 339.07 412.461 341.331 417.715C343.114 416.629 345.23 416 347.5 416C350.778 416 353.736 417.312 355.831 419.417C357.85 414.025 363.325 410.159 369.763 410.159C373.214 410.159 376.388 411.269 378.901 413.13C380.081 410.924 382.514 409.41 385.324 409.41C388.222 409.41 390.719 411.02 391.854 413.338C392.584 413.217 393.336 413.153 394.103 413.153C398.298 413.153 402.02 415.051 404.348 417.982C406.737 413.352 411.793 410.159 417.644 410.159C424.378 410.159 430.058 414.388 431.833 420.17C433.088 418.209 435.378 416.897 437.993 416.897C441.771 416.897 444.868 419.633 445.154 423.108C447.326 419.406 451.525 416.897 456.348 416.897C460.733 416.897 464.603 418.971 466.901 422.131C467.63 419.134 470.488 416.897 473.904 416.897C474.581 416.897 475.237 416.985 475.858 417.149C477.875 413.024 482.316 410.159 487.47 410.159C493.41 410.159 498.402 413.963 499.829 419.117C501.398 417.74 503.506 416.897 505.825 416.897C508.331 416.897 510.593 417.883 512.192 419.463C512.971 418.34 513.918 417.33 515 416.463V366.738V366.269H515.019C515.274 363.12 518.078 360.64 521.5 360.64C521.616 360.64 521.731 360.643 521.845 360.648C521.805 360.275 521.785 359.896 521.785 359.512C521.785 353.31 527.144 348.282 533.755 348.282C540.366 348.282 545.725 353.31 545.725 359.512C545.725 362.088 544.801 364.46 543.247 366.355C547.628 366.962 551 370.722 551 375.269V426.313V436.752C552.961 434.246 556.123 432.619 559.69 432.619C565.64 432.619 570.464 437.144 570.464 442.726C570.464 448.308 565.64 452.833 559.69 452.833C559.188 452.833 558.694 452.801 558.211 452.739C559.897 454.99 560.887 457.734 560.887 460.695C560.887 468.344 554.278 474.545 546.124 474.545C544.014 474.545 542.007 474.13 540.191 473.381C538.828 476.272 535.745 478.289 532.159 478.289C530.781 478.289 529.476 477.991 528.316 477.459C526.697 481.863 522.241 485.027 516.997 485.027C512.679 485.027 508.896 482.882 506.79 479.667C505.283 480.684 503.434 481.283 501.435 481.283C500.344 481.283 499.298 481.105 498.327 480.777C496.921 487.053 490.987 491.765 483.879 491.765C478.422 491.765 473.657 488.987 471.102 484.857C469.451 486.353 467.203 487.273 464.727 487.273C462.5 487.273 460.459 486.529 458.87 485.291C456.256 489.181 451.636 491.765 446.372 491.765C440.472 491.765 435.38 488.517 433.016 483.823C431.395 484.593 429.561 485.027 427.619 485.027C425.554 485.027 423.612 484.536 421.916 483.673C420.251 485.853 417.528 487.273 414.452 487.273C412.478 487.273 410.649 486.688 409.152 485.693C406.626 488.057 403.14 489.519 399.29 489.519C396.902 489.519 394.654 488.957 392.689 487.966C390.042 490.32 386.467 491.765 382.531 491.765C377.342 491.765 372.778 489.253 370.146 485.455C368.546 487.036 366.285 488.021 363.778 488.021C358.93 488.021 355 484.334 355 479.786C355 479.647 355.004 479.51 355.011 479.373C353.664 480.149 352.102 480.593 350.435 480.593C349.344 480.593 348.298 480.402 347.327 480.053C345.921 486.742 339.987 491.765 332.879 491.765C327.422 491.765 322.657 488.804 320.102 484.401C318.451 485.996 316.203 486.977 313.727 486.977C311.5 486.977 309.459 486.184 307.87 484.865C305.256 489.011 300.636 491.765 295.372 491.765C289.472 491.765 284.38 488.303 282.016 483.3C280.395 484.12 278.561 484.583 276.619 484.583C274.554 484.583 272.612 484.06 270.916 483.14C269.251 485.463 266.528 486.977 263.452 486.977C261.478 486.977 259.649 486.353 258.152 485.293C255.626 487.813 252.14 489.371 248.29 489.371C245.902 489.371 243.654 488.772 241.689 487.715C239.042 490.225 235.467 491.765 231.531 491.765C226.342 491.765 221.778 489.088 219.146 485.039C217.546 486.724 215.285 487.775 212.778 487.775C209.781 487.775 207.135 486.273 205.551 483.981C204.177 484.873 202.538 485.391 200.778 485.391C198.618 485.391 196.641 484.611 195.111 483.317C192.744 488.311 187.657 491.765 181.763 491.765C175.585 491.765 170.292 487.969 168.091 482.582C165.932 483.819 163.43 484.526 160.763 484.526C155.718 484.526 151.265 481.996 148.602 478.135C146.992 480.121 144.534 481.391 141.778 481.391C137.526 481.391 133.98 478.367 133.173 474.353C132.072 477.945 128.73 480.556 124.778 480.556C119.93 480.556 116 476.626 116 471.778C116 469.261 117.059 466.992 118.756 465.391C111.552 464.412 106 458.236 106 450.763C106 446.322 107.961 442.34 111.064 439.633C110.106 438.227 109.546 436.528 109.546 434.699C109.546 431.702 111.048 429.056 113.34 427.472C112.448 426.098 111.93 424.459 111.93 422.699C111.93 419.981 113.166 417.551 115.106 415.941C111.378 413.261 108.95 408.887 108.95 403.945C108.95 401.016 109.804 398.286 111.275 395.99C109.323 393.587 108.152 390.524 108.152 387.187C108.152 381.769 111.238 377.071 115.748 374.756C115.479 373.893 115.334 372.976 115.334 372.025C115.334 370.152 115.896 368.41 116.859 366.958C110.641 365.546 106 359.984 106 353.339C106 347.921 109.086 343.224 113.595 340.908C113.327 340.046 113.182 339.128 113.182 338.177C113.182 333.109 117.291 329 122.359 329Z" fill="#005D54"/>
<path d="M256 372H142V388H256V372Z" fill="#6F7B87"/>
<path d="M199 430C230.48 430 256 410.748 256 387C256 363.252 230.48 344 199 344C167.52 344 142 363.252 142 387C142 410.748 167.52 430 199 430Z" fill="#6F7B87"/>
<path d="M199 417C230.48 417 256 397.748 256 374C256 350.252 230.48 331 199 331C167.52 331 142 350.252 142 374C142 397.748 167.52 417 199 417Z" fill="#A8B0B7"/>
<path d="M199.5 408C225.734 408 247 392.554 247 373.5C247 354.446 225.734 339 199.5 339C173.266 339 152 354.446 152 373.5C152 392.554 173.266 408 199.5 408Z" fill="#6F7B87"/>
<path d="M199.5 406C223.524 406 243 392.792 243 376.5C243 360.208 223.524 347 199.5 347C175.476 347 156 360.208 156 376.5C156 392.792 175.476 406 199.5 406Z" fill="#3BA1DF"/>
<path d="M199.5 403C221.315 403 239 391.807 239 378C239 364.193 221.315 353 199.5 353C177.685 353 160 364.193 160 378C160 391.807 177.685 403 199.5 403Z" fill="#62B4E5"/>
<path fill-rule="evenodd" clip-rule="evenodd" d="M150 406.5C150 407.354 149.921 408.19 149.769 409H149.778C154.626 409 158.556 412.93 158.556 417.778C158.556 418.024 158.546 418.268 158.526 418.51C160.879 416.925 163.713 416 166.763 416C173.387 416 178.993 420.363 180.862 426.371C182.469 424.319 184.97 423 187.778 423C190.155 423 192.311 423.945 193.892 425.479C196.594 422.021 200.803 419.798 205.531 419.798C210.049 419.798 214.093 421.827 216.801 425.024C219.321 421.384 223.527 419 228.29 419C230.891 419 233.327 419.711 235.412 420.95C235.322 420.434 235.275 419.902 235.275 419.359C235.275 414.291 239.384 410.182 244.452 410.182C245.395 410.182 246.304 410.324 247.161 410.588C247.055 409.908 247 409.21 247 408.5C247 401.044 253.044 395 260.5 395C267.956 395 274 401.044 274 408.5C274 415.956 267.956 422 260.5 422C257.979 422 255.619 421.309 253.599 420.105C253.22 424.825 249.269 428.536 244.452 428.536C243.362 428.536 242.316 428.346 241.346 427.997C241.933 429.541 242.255 431.215 242.255 432.965C242.255 440.678 236.003 446.93 228.29 446.93C224.23 446.93 220.575 445.198 218.023 442.433C215.409 446.574 210.791 449.324 205.531 449.324C199.166 449.324 193.742 445.296 191.668 439.649C190.496 440.23 189.175 440.556 187.778 440.556C184.666 440.556 181.932 438.937 180.373 436.494C178.136 441.801 172.884 445.526 166.763 445.526C158.61 445.526 152 438.917 152 430.763C152 429.108 152.272 427.517 152.775 426.032C151.84 426.371 150.83 426.556 149.778 426.556C145.411 426.556 141.789 423.367 141.113 419.191C139.674 419.715 138.12 420 136.5 420C129.044 420 123 413.956 123 406.5C123 399.044 129.044 393 136.5 393C143.956 393 150 399.044 150 406.5Z" fill="#005D54"/>
<path fill-rule="evenodd" clip-rule="evenodd" d="M130.655 340.01C130.878 339.381 131 338.705 131 338C131 334.686 128.314 332 125 332C121.686 332 119 334.686 119 338C119 339.127 119.311 340.181 119.851 341.082C115.977 341.639 113 344.972 113 349C113 353.418 116.582 357 121 357C124.545 357 127.551 354.695 128.601 351.501C129.336 351.822 130.147 352 131 352C134.314 352 137 349.314 137 346C137 342.686 134.314 340 131 340C130.884 340 130.769 340.003 130.655 340.01ZM268.607 356.733C271.238 355.162 273 352.287 273 349C273 344.029 268.971 340 264 340C259.029 340 255 344.029 255 349C255 353.336 258.067 356.957 262.15 357.81C261.432 358.675 261 359.787 261 361C261 363.761 263.239 366 266 366C268.761 366 271 363.761 271 361C271 359.194 270.042 357.612 268.607 356.733ZM207.5 447C207.668 447 207.834 446.996 208 446.988V447C208 449.761 210.239 452 213 452C215.761 452 218 449.761 218 447C218 445.292 217.144 443.785 215.838 442.883C217.194 441.114 218 438.901 218 436.5C218 430.701 213.299 426 207.5 426C201.701 426 197 430.701 197 436.5C197 437.29 197.087 438.06 197.253 438.8C196.281 438.289 195.174 438 194 438C193.83 438 193.661 438.006 193.494 438.018C193.82 437.244 194 436.393 194 435.5C194 431.91 191.09 429 187.5 429C183.91 429 181 431.91 181 435.5C181 439.09 183.91 442 187.5 442C187.532 442 187.563 442 187.595 441.999C187.621 441.999 187.648 441.998 187.675 441.998C187.242 442.908 187 443.925 187 445C187 448.866 190.134 452 194 452C197.866 452 201 448.866 201 445C201 444.914 200.998 444.828 200.995 444.743C202.784 446.156 205.043 447 207.5 447ZM173 459C176.866 459 180 455.866 180 452C180 448.134 176.866 445 173 445C171.456 445 170.028 445.5 168.87 446.347C168.955 445.911 169 445.461 169 445C169 443.829 168.713 442.726 168.205 441.756C172.667 440.752 176 436.765 176 432C176 426.477 171.523 422 166 422C160.477 422 156 426.477 156 432C156 434.64 157.023 437.041 158.694 438.828C156.495 440.009 155 442.33 155 445C155 448.866 158.134 452 162 452C163.544 452 164.972 451.5 166.13 450.653C166.045 451.089 166 451.539 166 452C166 455.866 169.134 459 173 459ZM134 428C134 431.866 130.866 435 127 435C123.134 435 120 431.866 120 428C120 424.134 123.134 421 127 421C128.492 421 129.874 421.467 131.01 422.262C130.368 421.156 130 419.871 130 418.5C130 417.544 130.179 416.631 130.505 415.79C126.216 414.873 123 411.062 123 406.5C123 401.253 127.253 397 132.5 397C137.747 397 142 401.253 142 406.5C142 408.387 141.45 410.146 140.501 411.624C142.757 412.61 144.434 414.674 144.881 417.164C145.783 415.857 147.292 415 149 415C151.761 415 154 417.239 154 420C154 422.761 151.761 425 149 425C146.83 425 144.983 423.618 144.291 421.686C143.094 424.235 140.503 426 137.5 426C135.861 426 134.344 425.474 133.11 424.582C133.677 425.593 134 426.759 134 428ZM144 438C146.761 438 149 435.761 149 433C149 430.239 146.761 428 144 428C141.239 428 139 430.239 139 433C139 435.761 141.239 438 144 438ZM268.257 402.463C269.885 401.638 271 399.949 271 398C271 395.239 268.761 393 266 393C263.239 393 261 395.239 261 398C261 398.711 261.148 399.388 261.416 400C255.656 400.045 251 404.729 251 410.5C251 412.275 251.44 413.947 252.218 415.413C251.045 414.526 249.584 414 248 414C244.134 414 241 417.134 241 421C241 424.866 244.134 428 248 428C251.866 428 255 424.866 255 421C255 420.037 254.806 419.12 254.454 418.285C256.317 419.972 258.788 421 261.5 421C267.299 421 272 416.299 272 410.5C272 407.275 270.546 404.389 268.257 402.463ZM260 443C262.761 443 265 440.761 265 438C265 435.239 262.761 433 260 433C257.239 433 255 435.239 255 438C255 440.761 257.239 443 260 443ZM123.5 397C128.747 397 133 392.747 133 387.5C133 384.839 131.906 382.434 130.144 380.71C133.521 379.772 136 376.676 136 373C136 368.582 132.418 365 128 365C123.582 365 120 368.582 120 373C120 374.957 120.702 376.749 121.869 378.139C117.399 378.913 114 382.809 114 387.5C114 392.747 118.253 397 123.5 397ZM236.293 439.434C234.67 441.022 232.449 442 230 442C225.029 442 221 437.971 221 433C221 428.029 225.029 424 230 424C234.651 424 238.478 427.528 238.951 432.054C239.971 431.387 241.19 431 242.5 431C246.09 431 249 433.91 249 437.5C249 441.09 246.09 444 242.5 444C239.584 444 237.116 442.08 236.293 439.434Z" fill="#068070"/>
<path d="M36 336V357C36 359.761 38.2386 362 41 362C43.7614 362 46 359.761 46 357V336C46 333.239 43.7614 331 41 331C38.2386 331 36 333.239 36 336Z" fill="#6E758C"/>
<path d="M56.2009 351.207C63.6681 351.207 67.064 360.532 61.3457 365.334L46.5712 377.741C43.6293 380.212 39.3467 380.242 36.3698 377.814L21.1585 365.407C15.3279 360.651 18.6909 351.207 26.2151 351.207H56.2009Z" fill="#6E758C"/>
<path d="M38 268H44V334C44 335.657 42.6569 337 41 337C39.3431 337 38 335.657 38 334V268Z" fill="#8A949E"/>
<path d="M38 267H37V268V334C37 336.209 38.7909 338 41 338C43.2091 338 45 336.209 45 334V268V267H44H38Z" stroke="#171C4C" stroke-width="2"/>
<path d="M38 269H37V270V336C37 338.209 38.7909 340 41 340C43.2091 340 45 338.209 45 336V270V269H44H38Z" stroke="#171C4C" stroke-width="2"/>
<path d="M40 266H42V334C42 334.552 41.5523 335 41 335C40.4477 335 40 334.552 40 334V266Z" fill="#A8B0B7"/>
<path d="M76.0491 258.137L47.8628 229.951C44.348 226.436 38.6496 226.436 35.1348 229.951L6.94852 258.137C3.43383 261.652 3.43383 267.35 6.94852 270.865L35.1348 299.051C38.6496 302.566 44.348 302.566 47.8628 299.051L76.0491 270.865C79.5638 267.35 79.5638 261.652 76.0491 258.137Z" stroke="#171C4C" stroke-width="2"/>
<path d="M35.8419 228.657C38.966 225.533 44.0314 225.533 47.1556 228.657L75.3419 256.843C78.466 259.967 78.466 265.033 75.3419 268.157L47.1556 296.343C44.0314 299.467 38.966 299.467 35.8419 296.343L7.65565 268.157C4.53145 265.033 4.53145 259.967 7.65565 256.843L35.8419 228.657Z" fill="#FFCC48"/>
<path d="M76.0491 256.137L47.8628 227.951C44.348 224.436 38.6496 224.436 35.1348 227.951L6.94852 256.137C3.43383 259.652 3.43383 265.35 6.94852 268.865L35.1348 297.051C38.6496 300.566 44.348 300.566 47.8628 297.051L76.0491 268.865C79.5638 265.35 79.5638 259.652 76.0491 256.137Z" stroke="#171C4C" stroke-width="2"/>
<path d="M67.5854 259.674L44.328 236.416C42.7659 234.854 40.2333 234.854 38.6712 236.416L15.4138 259.674C13.8517 261.236 13.8517 263.768 15.4138 265.33L38.6712 288.588C40.2333 290.15 42.7659 290.15 44.328 288.588L67.5854 265.33C69.1475 263.768 69.1475 261.236 67.5854 259.674Z" stroke="#192C40" stroke-width="2"/>
<mask id="mask0_818_6146" style="mask-type:alpha" maskUnits="userSpaceOnUse" x="5" y="226" width="73" height="73">
<path d="M35.8419 228.657C38.966 225.533 44.0314 225.533 47.1556 228.657L75.3419 256.843C78.466 259.967 78.466 265.033 75.3419 268.157L47.1556 296.343C44.0314 299.467 38.966 299.467 35.8419 296.343L7.65565 268.157C4.53145 265.033 4.53145 259.967 7.65565 256.843L35.8419 228.657Z" fill="white"/>
</mask>
<g mask="url(#mask0_818_6146)">
<g style="mix-blend-mode:soft-light">
<path d="M54.1392 6.9995L-298 359.139L-205.57 451.569L146.569 99.4297L54.1392 6.9995Z" fill="white" fill-opacity="0.5"/>
</g>
</g>
<mask id="mask1_818_6146" style="mask-type:luminance" maskUnits="userSpaceOnUse" x="29" y="252" width="20" height="20">
<path d="M49 252H29V271.888H49V252Z" fill="white"/>
</mask>
<g mask="url(#mask1_818_6146)">
<path d="M37.5357 258.975H47.6263C48.3818 258.975 49 259.587 49 260.342V269.415C49 270.776 47.8885 271.888 46.5273 271.888H46.4774C45.1161 271.888 44.0047 270.776 44.0047 269.415V263.964H37.5357L40.2457 266.674C41.2135 267.642 41.2198 269.234 40.2457 270.208C39.2716 271.182 37.6856 271.176 36.7115 270.208C36.7115 270.208 30.2051 263.708 29.7306 263.239C28.7377 262.247 28.744 260.686 29.7306 259.699C30.1302 259.312 36.7178 252.731 36.7178 252.731C37.6918 251.756 39.2779 251.756 40.2457 252.731C41.2198 253.705 41.2198 255.291 40.2457 256.265L37.5357 258.975Z" fill="#192C40"/>
</g>
</g>
<defs>
<clipPath id="clip0_818_6146">
<rect width="180" height="494" fill="white"/>
</clipPath>
</defs>
</svg>
