<svg width="26" height="32" viewBox="0 0 26 32" fill="none" xmlns="http://www.w3.org/2000/svg">
<g clip-path="url(#clip0_936_8404)">
<path d="M20.2977 25.2469V25.2467C20.2977 25.1462 20.3204 25.047 20.3642 24.9565C20.4077 24.8665 20.4708 24.7875 20.5489 24.7252C21.9602 23.6208 23.1018 22.2099 23.8876 20.5993C24.6738 18.9879 25.0831 17.2187 25.0846 15.4258V15.4251C25.0846 12.2204 23.8116 9.14699 21.5455 6.88092C19.2794 4.61486 16.206 3.3418 13.0013 3.3418C9.7966 3.3418 6.72316 4.61486 4.4571 6.88092C2.19103 9.14699 0.917969 12.2204 0.917969 15.4251L0.917969 15.4258C0.919457 17.2187 1.32879 18.9879 2.11498 20.5993C2.90051 22.2094 4.0417 23.6199 5.45231 24.7242C5.5292 24.7865 5.59126 24.8651 5.63397 24.9544C5.67726 25.0449 5.69956 25.144 5.69922 25.2444V25.2469V28.0179H5.69916L5.69928 28.0275C5.70781 28.6902 5.97871 29.3224 6.4526 29.7857C6.92552 30.248 7.56211 30.5044 8.22335 30.499H8.7513H9.5013V29.749V25.499C9.5013 25.3222 9.57154 25.1527 9.69657 25.0276C9.82159 24.9026 9.99116 24.8324 10.168 24.8324C10.3448 24.8324 10.5143 24.9026 10.6394 25.0276C10.7644 25.1527 10.8346 25.3222 10.8346 25.499V29.749V30.499H11.5846H14.418H15.168V29.749V25.499C15.168 25.3222 15.2382 25.1527 15.3632 25.0276C15.4883 24.9026 15.6578 24.8324 15.8346 24.8324C16.0114 24.8324 16.181 24.9026 16.306 25.0276C16.4311 25.1527 16.5013 25.3222 16.5013 25.499V29.749V30.499H17.2513H17.7802C18.4405 30.5027 19.0757 30.2453 19.5472 29.7829C20.0193 29.3198 20.2891 28.6888 20.2977 28.0276H20.2977V28.0179V25.2469Z" fill="white" stroke="#171C4C" stroke-width="1.5"/>
<path d="M20.2977 24.2469V24.2467C20.2977 24.1462 20.3204 24.047 20.3642 23.9565C20.4077 23.8665 20.4708 23.7875 20.5489 23.7252C21.9602 22.6208 23.1018 21.2099 23.8876 19.5993C24.6738 17.9879 25.0831 16.2187 25.0846 14.4258V14.4251C25.0846 11.2204 23.8116 8.14699 21.5455 5.88092C19.2794 3.61486 16.206 2.3418 13.0013 2.3418C9.7966 2.3418 6.72316 3.61486 4.4571 5.88092C2.19103 8.14699 0.917969 11.2204 0.917969 14.4251L0.917969 14.4258C0.919457 16.2187 1.32879 17.9879 2.11498 19.5993C2.90051 21.2094 4.0417 22.6199 5.45231 23.7242C5.5292 23.7865 5.59126 23.8651 5.63397 23.9544C5.67726 24.0449 5.69956 24.144 5.69922 24.2444V24.2469V27.0179H5.69916L5.69928 27.0275C5.70781 27.6902 5.97871 28.3224 6.4526 28.7857C6.92552 29.248 7.56211 29.5044 8.22335 29.499H8.7513H9.5013V28.749V24.499C9.5013 24.3222 9.57154 24.1527 9.69657 24.0276C9.82159 23.9026 9.99116 23.8324 10.168 23.8324C10.3448 23.8324 10.5143 23.9026 10.6394 24.0276C10.7644 24.1527 10.8346 24.3222 10.8346 24.499V28.749V29.499H11.5846H14.418H15.168V28.749V24.499C15.168 24.3222 15.2382 24.1527 15.3632 24.0276C15.4883 23.9026 15.6578 23.8324 15.8346 23.8324C16.0114 23.8324 16.181 23.9026 16.306 24.0276C16.4311 24.1527 16.5013 24.3222 16.5013 24.499V28.749V29.499H17.2513H17.7802C18.4405 29.5027 19.0757 29.2453 19.5472 28.7829C20.0193 28.3198 20.2891 27.6888 20.2977 27.0276H20.2977V27.0179V24.2469Z" fill="white" stroke="#171C4C" stroke-width="1.5"/>
<path d="M20.2977 23.2469V23.2467C20.2977 23.1462 20.3204 23.047 20.3642 22.9565C20.4077 22.8665 20.4708 22.7875 20.5489 22.7252C21.9602 21.6208 23.1018 20.2099 23.8876 18.5993C24.6738 16.9879 25.0831 15.2187 25.0846 13.4258V13.4251C25.0846 10.2204 23.8116 7.14699 21.5455 4.88092C19.2794 2.61486 16.206 1.3418 13.0013 1.3418C9.7966 1.3418 6.72316 2.61486 4.4571 4.88092C2.19103 7.14699 0.917969 10.2204 0.917969 13.4251L0.917969 13.4258C0.919457 15.2187 1.32879 16.9879 2.11498 18.5993C2.90051 20.2094 4.0417 21.6199 5.45231 22.7242C5.5292 22.7865 5.59126 22.8651 5.63397 22.9544C5.67726 23.0449 5.69956 23.144 5.69922 23.2444V23.2469V26.0179H5.69916L5.69928 26.0275C5.70781 26.6902 5.97871 27.3224 6.4526 27.7857C6.92552 28.248 7.56211 28.5044 8.22335 28.499H8.7513H9.5013V27.749V23.499C9.5013 23.3222 9.57154 23.1527 9.69657 23.0276C9.82159 22.9026 9.99116 22.8324 10.168 22.8324C10.3448 22.8324 10.5143 22.9026 10.6394 23.0276C10.7644 23.1527 10.8346 23.3222 10.8346 23.499V27.749V28.499H11.5846H14.418H15.168V27.749V23.499C15.168 23.3222 15.2382 23.1527 15.3632 23.0276C15.4883 22.9026 15.6578 22.8324 15.8346 22.8324C16.0114 22.8324 16.181 22.9026 16.306 23.0276C16.4311 23.1527 16.5013 23.3222 16.5013 23.499V27.749V28.499H17.2513H17.7802C18.4405 28.5027 19.0757 28.2453 19.5472 27.7829C20.0193 27.3198 20.2891 26.6888 20.2977 26.0276H20.2977V26.0179V23.2469Z" fill="white" stroke="#171C4C" stroke-width="1.5"/>
<path d="M8.7513 19.2507C10.3161 19.2507 11.5846 17.9821 11.5846 16.4173C11.5846 14.8525 10.3161 13.584 8.7513 13.584C7.1865 13.584 5.91797 14.8525 5.91797 16.4173C5.91797 17.9821 7.1865 19.2507 8.7513 19.2507Z" fill="#171C4C"/>
<path d="M17.2513 19.2507C18.8161 19.2507 20.0846 17.9821 20.0846 16.4173C20.0846 14.8525 18.8161 13.584 17.2513 13.584C15.6865 13.584 14.418 14.8525 14.418 16.4173C14.418 17.9821 15.6865 19.2507 17.2513 19.2507Z" fill="#171C4C"/>
</g>
<defs>
<clipPath id="clip0_936_8404">
<rect width="26" height="32" fill="white"/>
</clipPath>
</defs>
</svg>
